<svg xmlns="http://www.w3.org/2000/svg" width="1100.079mm" height="300mm" viewBox="0 0 1100.079 300"><defs><clipPath id="a" clipPathUnits="userSpaceOnUse"><path d="M0 792h612V0H0Z"/></clipPath><clipPath id="b" clipPathUnits="userSpaceOnUse"><path d="M134.699 736.527c3.041-3.126 10.976-4.068 16.305-3.401a25.066 25.066 0 0 1-6.745 12.209 25.085 25.085 0 0 1-13.027 6.923c-.532-5.311.451-12.796 3.467-15.731"/></clipPath><clipPath id="d" clipPathUnits="userSpaceOnUse"><path d="M131.808 755.414a13.526 13.526 0 0 1-.186-.717 28.185 28.185 0 0 0 14.297-7.704 28.168 28.168 0 0 0 7.509-13.399c.052.015.107.028.157.043 2.871.848 3.055 3.288 2.444 6.022-.972 3.634-3.546 7.718-6.966 11.233-3.515 3.422-7.6 5.994-11.234 6.966-.784.175-1.544.286-2.249.286-1.752 0-3.167-.682-3.772-2.73"/></clipPath><clipPath id="f" clipPathUnits="userSpaceOnUse"><path d="M92.09 718.735c.527-5.457 3.714-11.676 8.472-16.478 4.8-4.758 11.021-7.945 16.478-8.473 3.707-.357 6.285.563 8.242 4.89-7.039.154-14.032 2.907-19.403 8.278-5.596 5.598-8.356 12.955-8.287 20.291-4.857-1.988-5.878-4.63-5.502-8.508"/></clipPath><clipPath id="h" clipPathUnits="userSpaceOnUse"><path d="M101.269 728.457c-.25-6.757 2.199-13.596 7.357-18.756 4.955-4.953 11.46-7.41 17.955-7.374 3.065 10.463 2.954 20.719-1.306 24.641-2.154 2.338-6.213 3.427-11.167 3.427-3.891 0-8.334-.672-12.839-1.938"/></clipPath><clipPath id="j" clipPathUnits="userSpaceOnUse"><path d="M118.909 759.077c-4.201-.21-11.287-2.758-16.341-6.654-4.665-3.593-7.567-7.678-8.133-10.74-.473-2.582.887-4.578 4.6-5.772a28.198 28.198 0 0 0 6.844 11.082c5.522 5.522 12.761 8.286 19.999 8.291-1.19 2.903-2.946 3.818-6.029 3.818-.301 0-.614-.009-.94-.025"/></clipPath><clipPath id="l" clipPathUnits="userSpaceOnUse"><path d="M108.626 745.335a25.08 25.08 0 0 1-6.223-10.273c7.854-1.633 17.689-1.595 21.975 1.523 4.223 3.07 3.77 10.83 2.347 16.123l-.286.001c-6.448 0-12.894-2.455-17.813-7.374"/></clipPath><clipPath id="n" clipPathUnits="userSpaceOnUse"><path d="M145.919 706.952a28.203 28.203 0 0 0-10.865-6.773c1.212-3.187 3.115-4.346 5.527-3.903 3.064.563 7.149 3.468 10.742 8.132 3.895 5.055 6.443 12.14 6.654 16.341.184 3.674-.606 5.657-3.783 6.965.196-7.491-2.558-15.045-8.275-20.762"/></clipPath><clipPath id="p" clipPathUnits="userSpaceOnUse"><path d="M135.484 726.219c-3.215-4.419-3.156-14.735-1.367-22.696a25.095 25.095 0 0 1 10.142 6.178c5.185 5.187 7.635 12.071 7.355 18.862-2.177.587-4.772 1.009-7.286 1.009-3.6 0-7.035-.866-8.844-3.353"/></clipPath><radialGradient id="c" cx="0" cy="0" r="1" fx="0" fy="0" gradientTransform="matrix(43.12964 0 0 -43.12964 130.382 732.162)" gradientUnits="userSpaceOnUse" spreadMethod="pad"><stop offset="0" style="stop-opacity:1;stop-color:#00b9e3"/><stop offset="0.247192" style="stop-opacity:1;stop-color:#00b9e3"/><stop offset="0.870789" style="stop-opacity:1;stop-color:#006cb7"/><stop offset="1" style="stop-opacity:1;stop-color:#006cb7"/></radialGradient><radialGradient id="e" cx="0" cy="0" r="1" fx="0" fy="0" gradientTransform="matrix(43.12848 0 0 -43.12846 130.381 732.163)" gradientUnits="userSpaceOnUse" spreadMethod="pad"><stop offset="0" style="stop-opacity:1;stop-color:#00b9e3"/><stop offset="0.247192" style="stop-opacity:1;stop-color:#00b9e3"/><stop offset="0.870789" style="stop-opacity:1;stop-color:#006cb7"/><stop offset="1" style="stop-opacity:1;stop-color:#006cb7"/></radialGradient><radialGradient id="g" cx="0" cy="0" r="1" fx="0" fy="0" gradientTransform="matrix(43.12892 0 0 -43.12892 130.648 732.429)" gradientUnits="userSpaceOnUse" spreadMethod="pad"><stop offset="0" style="stop-opacity:1;stop-color:#00b9e3"/><stop offset="0.247192" style="stop-opacity:1;stop-color:#00b9e3"/><stop offset="0.870789" style="stop-opacity:1;stop-color:#006cb7"/><stop offset="1" style="stop-opacity:1;stop-color:#006cb7"/></radialGradient><radialGradient id="i" cx="0" cy="0" r="1" fx="0" fy="0" gradientTransform="matrix(43.12877 0 0 -43.12877 130.648 732.428)" gradientUnits="userSpaceOnUse" spreadMethod="pad"><stop offset="0" style="stop-opacity:1;stop-color:#00b9e3"/><stop offset="0.247192" style="stop-opacity:1;stop-color:#00b9e3"/><stop offset="0.870789" style="stop-opacity:1;stop-color:#006cb7"/><stop offset="1" style="stop-opacity:1;stop-color:#006cb7"/></radialGradient><radialGradient id="k" cx="0" cy="0" r="1" fx="0" fy="0" gradientTransform="matrix(43.12978 0 0 -43.12976 130.642 732.153)" gradientUnits="userSpaceOnUse" spreadMethod="pad"><stop offset="0" style="stop-opacity:1;stop-color:#00b9e3"/><stop offset="0.247192" style="stop-opacity:1;stop-color:#00b9e3"/><stop offset="0.870789" style="stop-opacity:1;stop-color:#006cb7"/><stop offset="1" style="stop-opacity:1;stop-color:#006cb7"/></radialGradient><radialGradient id="m" cx="0" cy="0" r="1" fx="0" fy="0" gradientTransform="matrix(43.12973 0 0 -43.12973 130.642 732.153)" gradientUnits="userSpaceOnUse" spreadMethod="pad"><stop offset="0" style="stop-opacity:1;stop-color:#00b9e3"/><stop offset="0.247192" style="stop-opacity:1;stop-color:#00b9e3"/><stop offset="0.870789" style="stop-opacity:1;stop-color:#006cb7"/><stop offset="1" style="stop-opacity:1;stop-color:#006cb7"/></radialGradient><radialGradient id="o" cx="0" cy="0" r="1" fx="0" fy="0" gradientTransform="matrix(43.12866 0 0 -43.12866 130.368 732.422)" gradientUnits="userSpaceOnUse" spreadMethod="pad"><stop offset="0" style="stop-opacity:1;stop-color:#00b9e3"/><stop offset="0.247192" style="stop-opacity:1;stop-color:#00b9e3"/><stop offset="0.870789" style="stop-opacity:1;stop-color:#006cb7"/><stop offset="1" style="stop-opacity:1;stop-color:#006cb7"/></radialGradient><radialGradient id="q" cx="0" cy="0" r="1" fx="0" fy="0" gradientTransform="matrix(43.12793 0 0 -43.12793 130.368 732.42)" gradientUnits="userSpaceOnUse" spreadMethod="pad"><stop offset="0" style="stop-opacity:1;stop-color:#00b9e3"/><stop offset="0.247192" style="stop-opacity:1;stop-color:#00b9e3"/><stop offset="0.870789" style="stop-opacity:1;stop-color:#006cb7"/><stop offset="1" style="stop-opacity:1;stop-color:#006cb7"/></radialGradient></defs><g clip-path="url(#a)" transform="matrix(4.588 0 0 -4.588 -422.185 3482.765)"><path d="M0 0h.148v-3.068c-1.195.25-2.496.39-3.886.39-1.387 0-2.685-.14-3.879-.388V0Zm-3.729-14.147c-3.839 0-6.412 1.871-6.412 4.645 0 2.783 2.573 4.647 6.412 4.647 3.829 0 6.398-1.864 6.398-4.647 0-2.774-2.569-4.645-6.398-4.645M-19.004 0h7.219v-4.661c-1.922-1.208-3.063-2.891-3.063-4.841 0-3.954 4.674-6.821 11.11-6.821 6.447 0 11.112 2.867 11.112 6.821 0 1.946-1.134 3.627-3.05 4.835V0h7.21v2.349h-30.538z" style="fill:#006cb7;fill-opacity:1;fill-rule:nonzero;stroke:none" transform="translate(225.23 719.108)"/><path d="M0 0c3.829 0 6.398-1.891 6.398-4.711 0-2.818-2.569-4.722-6.398-4.722-3.839 0-6.411 1.904-6.411 4.722C-6.411-1.891-3.839 0 0 0m-.009-11.638c6.447 0 11.113 2.912 11.113 6.927 0 4.013-4.666 6.921-11.113 6.921-6.435 0-11.109-2.908-11.109-6.921 0-4.015 4.674-6.927 11.109-6.927" style="fill:#006cb7;fill-opacity:1;fill-rule:nonzero;stroke:none" transform="translate(221.5 734.989)"/><path d="M0 0c3.3 0 5.511-1.929 5.511-4.812C5.511-7.688 3.3-9.633 0-9.633c-3.31 0-5.532 1.945-5.532 4.821C-5.532-1.929-3.31 0 0 0m-.011-11.881c5.557 0 9.576 2.972 9.576 7.069 0 4.103-4.019 7.07-9.576 7.07-5.543 0-9.57-2.967-9.57-7.07 0-4.097 4.027-7.069 9.57-7.069" style="fill:#006cb7;fill-opacity:1;fill-rule:nonzero;stroke:none" transform="translate(314.775 734.619)"/><path d="M0 0h13.229v-7.598H1.467c-1.299 0-1.44.64-1.467 1.363zm-4.363-7.961c.08-1.223 1.056-1.877 2.824-1.877H17.59V2.208H-4.418Z" style="fill:#006cb7;fill-opacity:1;fill-rule:nonzero;stroke:none" transform="translate(181.35 713.415)"/><path d="M0 0c.572.926.551 2.41.551 2.485v9.152c0 .626-.467 1.293-1.496 1.293h-20.448v-2.375h17.582V1.687c0-.238-.043-1.056-.551-1.599-.316-.322-.728-.479-1.235-.479h-20.679v-2.358H4.541v2.358H-.234z" style="fill:#006cb7;fill-opacity:1;fill-rule:nonzero;stroke:none" transform="translate(198.39 722.628)"/><path d="M0 0c-.51-.031-.87.064-1.116.285-.305.279-.347.702-.371 1.076v3.925c0 .542-.095.782-.677.782h-3.623v-6.23c.093-1.193 1.024-1.805 2.839-1.877H16.12V0Z" style="fill:#006cb7;fill-opacity:1;fill-rule:nonzero;stroke:none" transform="translate(315.672 705.615)"/><path d="M0 0h4.264v4.955h13.113V2.228H8.925V-.021h8.452v-2.817h4.164v24.543c0 .38-.139.887-1.341.887h-2.823V7.186H-6.257V4.943H0Z" style="fill:#006cb7;fill-opacity:1;fill-rule:nonzero;stroke:none" transform="translate(309.93 713.764)"/><path d="M0 0c-.142.168-.218.441-.218.829v2.207h16.639v7.577H-4.387V8.381h16.643V5.27H-4.387V-.357c0-.531.189-.978.545-1.334.504-.532 1.321-.793 2.451-.793h17.992v2.232H.939C.459-.252.146-.17 0 0" style="fill:#006cb7;fill-opacity:1;fill-rule:nonzero;stroke:none" transform="translate(249.51 706.031)"/><path d="M0 0h7.117v-3.97h-8.144v-2.231h8.144v-3.402h4.165V6.161c0 .744-.514 1.116-1.548 1.116H7.117V2.228H.992c.351.975.618 1.998.791 3.067.096.668-.254 1.012-1.047 1.012h-15.121V3.6h10.778c.309 0 .431-.177.361-.537-1.252-5.022-5.717-9.164-12.652-11.246l.935-2.057C-8.549-9.015-2.881-5.406 0 0" style="fill:#006cb7;fill-opacity:1;fill-rule:nonzero;stroke:none" transform="translate(254.65 728.563)"/><path d="m0 0-.043.058.027.064c.021.035 1.586 3.412 2.13 7.841l.011.098h4.078v2.656H-8.868V8.061l6.007-.001.298-.104.103-.3c-.146-3.448-1.161-10.154-7.925-16.393.129-.147 1.466-1.456 1.596-1.595C-5.87-8.063-3.384-5.431-1.6-2.705l.094.145.1-.145c1.233-1.886 3.24-4.81 5.791-7.378.153.162 2.408 2.426 2.558 2.586C6.452-7.085 2.321-3.408 0 0" style="fill:#006cb7;fill-opacity:1;fill-rule:nonzero;stroke:none" transform="translate(280.616 723.906)"/><path d="M0 0h-2.596v-32.318h3.889v31.233C1.293-.382 1.057 0 0 0" style="fill:#006cb7;fill-opacity:1;fill-rule:nonzero;stroke:none" transform="translate(297.726 735.83)"/><path d="M0 0h-2.599v-9.491h-4.532v-2.289h4.532v-20.538h3.888v31.233C1.289-.382 1.05 0 0 0" style="fill:#006cb7;fill-opacity:1;fill-rule:nonzero;stroke:none" transform="translate(292.06 735.83)"/></g><g clip-path="url(#b)" transform="matrix(4.588 0 0 -4.588 -422.185 3482.765)"><path d="M134.699 736.527c3.041-3.126 10.976-4.068 16.305-3.401a25.066 25.066 0 0 1-6.745 12.209 25.085 25.085 0 0 1-13.027 6.923c-.532-5.311.451-12.796 3.467-15.731" style="fill:url(#c);stroke:none"/></g><g clip-path="url(#d)" transform="matrix(4.588 0 0 -4.588 -422.185 3482.765)"><path d="M131.808 755.414a13.526 13.526 0 0 1-.186-.717 28.185 28.185 0 0 0 14.297-7.704 28.168 28.168 0 0 0 7.509-13.399c.052.015.107.028.157.043 2.871.848 3.055 3.288 2.444 6.022-.972 3.634-3.546 7.718-6.966 11.233-3.515 3.422-7.6 5.994-11.234 6.966-.784.175-1.544.286-2.249.286-1.752 0-3.167-.682-3.772-2.73" style="fill:url(#e);stroke:none"/></g><g clip-path="url(#f)" transform="matrix(4.588 0 0 -4.588 -422.185 3482.765)"><path d="M92.09 718.735c.527-5.457 3.714-11.676 8.472-16.478 4.8-4.758 11.021-7.945 16.478-8.473 3.707-.357 6.285.563 8.242 4.89-7.039.154-14.032 2.907-19.403 8.278-5.596 5.598-8.356 12.955-8.287 20.291-4.857-1.988-5.878-4.63-5.502-8.508" style="fill:url(#g);stroke:none"/></g><g clip-path="url(#h)" transform="matrix(4.588 0 0 -4.588 -422.185 3482.765)"><path d="M101.269 728.457c-.25-6.757 2.199-13.596 7.357-18.756 4.955-4.953 11.46-7.41 17.955-7.374 3.065 10.463 2.954 20.719-1.306 24.641-2.154 2.338-6.213 3.427-11.167 3.427-3.891 0-8.334-.672-12.839-1.938" style="fill:url(#i);stroke:none"/></g><g clip-path="url(#j)" transform="matrix(4.588 0 0 -4.588 -422.185 3482.765)"><path d="M118.909 759.077c-4.201-.21-11.287-2.758-16.341-6.654-4.665-3.593-7.567-7.678-8.133-10.74-.473-2.582.887-4.578 4.6-5.772a28.198 28.198 0 0 0 6.844 11.082c5.522 5.522 12.761 8.286 19.999 8.291-1.19 2.903-2.946 3.818-6.029 3.818-.301 0-.614-.009-.94-.025" style="fill:url(#k);stroke:none"/></g><g clip-path="url(#l)" transform="matrix(4.588 0 0 -4.588 -422.185 3482.765)"><path d="M108.626 745.335a25.08 25.08 0 0 1-6.223-10.273c7.854-1.633 17.689-1.595 21.975 1.523 4.223 3.07 3.77 10.83 2.347 16.123l-.286.001c-6.448 0-12.894-2.455-17.813-7.374" style="fill:url(#m);stroke:none"/></g><g clip-path="url(#n)" transform="matrix(4.588 0 0 -4.588 -422.185 3482.765)"><path d="M145.919 706.952a28.203 28.203 0 0 0-10.865-6.773c1.212-3.187 3.115-4.346 5.527-3.903 3.064.563 7.149 3.468 10.742 8.132 3.895 5.055 6.443 12.14 6.654 16.341.184 3.674-.606 5.657-3.783 6.965.196-7.491-2.558-15.045-8.275-20.762" style="fill:url(#o);stroke:none"/></g><g clip-path="url(#p)" transform="matrix(4.588 0 0 -4.588 -422.185 3482.765)"><path d="M135.484 726.219c-3.215-4.419-3.156-14.735-1.367-22.696a25.095 25.095 0 0 1 10.142 6.178c5.185 5.187 7.635 12.071 7.355 18.862-2.177.587-4.772 1.009-7.286 1.009-3.6 0-7.035-.866-8.844-3.353" style="fill:url(#q);stroke:none"/></g></svg>