<svg xmlns="http://www.w3.org/2000/svg" xml:space="preserve" width="887.20917" height="200" viewBox="0 0 887.20916 200"><path d="m290.865 464.21-49.73 53.937 49.73 53.7h-44.7l-50.421-53.758 49.637-53.878zM117.148 571.833v.012H78.765v-31.798h38.383v.052c11.725-.284 21.959-10.02 21.959-22.022 0-11.603-9.619-21.1-20.816-21.948h-11.44v32.675H78.828l-.064-64.473h39.584l.006.03c28.346.922 51.883 24.615 51.883 53.716 0 29.524-24.18 53.472-53.09 53.756" style="fill:#072444;fill-opacity:1;fill-rule:nonzero;stroke:none;stroke-width:5.80152" transform="matrix(1.33333 0 0 -1.33333 -105.02 790.216)"/><path d="m169.402 548.455 19.238-20.352 60.8 64.56h-38.755zM209.247 485.796l-19.394 20.863-59.976-63.997h38.957z" style="fill:#c11b30;fill-opacity:1;fill-rule:nonzero;stroke:none;stroke-width:5.80152" transform="matrix(1.33333 0 0 -1.33333 -105.02 790.216)"/><path d="M517.765 561.34v-19.533c-.012 0-.261-3.417-.261-3.417 0 .023-.766-4.885-.766-4.885l-.18-1.259 1.306-.023h3.394v-13.111h-35.036l.035-12.352h31.688v-32.709h-22.08c0 1.967-.047 19.615-.047 19.615h-63.092V506.761h31.601l-.035 12.35h-31.566l-.156 13.112h61.867l.546 4.995.208 3.91-.011 7.096h-62.61v13.117zM385.69 484.99v-.012c-4.212-1.439-9.678-2.182-16.25-2.182-6.643 0-12.137.743-16.367 2.193-4.293 1.532-6.376 3.4-6.376 5.703-.011 2.39 2.095 4.195 6.411 5.5 3.986 1.16 9.462 1.752 16.302 1.752 6.76 0 12.213-.592 16.198-1.752 4.404-1.305 6.533-3.11 6.544-5.5.006-2.303-2.094-4.171-6.463-5.703m17.649 18.304c-8.198 4.125-19.615 6.208-33.962 6.208-14.429 0-25.875-2.083-34.02-6.208-6.69-3.585-10.084-7.838-10.055-12.6 0-5.048 3.313-9.266 10.124-12.926 8.093-4.34 19.557-6.539 34.055-6.539 14.417 0 25.828 2.199 33.91 6.539 6.84 3.637 10.164 7.872 10.164 12.89v.035c-.011 4.763-3.44 8.993-10.216 12.601M350.254 561.34h61.612v-11.26h-62.749v-7.292h62.75v-11.255h-31.59l.012-7.183h35.024v-11.162h-91.978v11.162h35.024l-.012 7.183h-17.56c-4.538 0-8.042 1.015-10.391 3.01-2.263 1.915-3.371 4.67-3.383 8.395 0 0-.04 16.425-.04 18.403zM627.953 474.02h-17.95v87.453h17.95zM595.338 561.497h10.814v-87.423h-17.77v45.954h-12.259v11.597h12.259v29.872zm-15.844-.91v-11.61h-11.957l.052-23.618c.03-8.824 1.63-16.192 4.815-21.906 2.785-4.978 7.043-9.022 12.653-12.004 0 0 .482-.25.963-.51-.574-.528-8.992-8.459-10.013-9.433-4.2 1.81-7.832 3.962-10.733 6.462-2.338 1.99-4.217 4.212-5.616 6.62l-1.032 1.787-.975-1.822c-1.172-2.204-3-4.409-5.46-6.585-2.894-2.436-6.52-4.589-10.691-6.462-.963.916-8.349 7.866-10.025 9.444 5.418 2.855 9.706 6.62 12.624 11.33 3.718 5.837 5.61 13.478 5.61 22.743l-.047 23.954h-11.945v11.61zM734.112 561.34v-17.172h10.06v-13.094h-10.06v-15.583h-22.231v45.85zM715.875 492.29c0-2.797-1.996-5.077-5.93-6.823-4.101-1.822-9.821-2.75-16.992-2.75-7.17 0-12.856.928-16.894 2.761-3.887 1.74-5.848 4.027-5.848 6.829-.017 3.069 1.95 5.505 5.813 7.246 4.003 1.798 9.526 2.651 16.888 2.651 7.165 0 12.903-.922 17.005-2.755 3.95-1.74 5.958-4.137 5.958-7.13zm10.268 14.538c-8.017 4.461-19.18 6.736-33.155 6.736-14.052 0-25.196-2.275-33.115-6.736-6.945-3.922-10.315-8.679-10.31-14.51.024-5.569 3.417-10.222 10.38-14.213 8.017-4.537 19.173-6.846 33.15-6.846 13.987 0 25.131 2.309 33.12 6.846 7.014 3.991 10.42 8.627 10.42 14.167v.035c-.024 5.772-3.458 10.512-10.49 14.521M701.21 560.485l.029-7.27c0-11.654-5.402-21.093-16.065-28.02-9.915-6.446-22.753-9.695-38.133-9.683-.377 1.27-2.796 9.387-3.377 11.37 10.408.58 18.583 2.31 24.158 5.21 6.04 3.209 10.338 9.3 11.116 15.3l.15 1.229h-34.356v11.864z" style="fill:#072444;fill-opacity:1;fill-rule:nonzero;stroke:none;stroke-width:5.80152" transform="matrix(1.33333 0 0 -1.33333 -105.02 790.216)"/></svg>