<svg xmlns="http://www.w3.org/2000/svg" width="751.87805pt" height="225pt" viewBox="0 0 751.87804 224.99999"><g fill-rule="evenodd"><path fill="#231f20" d="M716.725 66.448c-4.574 0-8.284 3.725-8.284 8.323 0 4.602 3.71 8.327 8.284 8.327 4.575 0 8.282-3.725 8.282-8.327 0-4.598-3.707-8.323-8.282-8.323M283.182 84.487c3.77-5.546 5.818-11.1 5.818-17.857v-4.612h-23.66c-2.743 0-5.285-.476-7.71-1.82l-3.806 6.993c3.513 1.95 7.535 2.82 11.517 2.82h13.086c-1.03 11.613-10.554 18.553-24.603 24.602l4.093 6.98c10.025-3.747 19.767-9.007 25.265-17.106m3.135 21.833c-4.837 0-8.763 3.548-8.763 7.927 0 4.38 3.926 7.927 8.763 7.927 4.842 0 8.771-3.548 8.771-7.927s-3.93-7.927-8.77-7.927m18.914-46.122h-10.181v38.476h10.181V83.963h7.652v-7.99h-7.652zm-18.91 38.476c10.951 0 19.834 6.969 19.834 15.573s-8.883 15.576-19.834 15.576c-10.953 0-19.838-6.972-19.838-15.576s8.885-15.573 19.838-15.573M412.97 78.58l-8.964 3.466c1.215.503 1.781 1.728 1.808 2.44.134 3.987-3.207 6.82-7.652 6.82s-7.42-2.399-7.42-6.143c.205-6.593 7.687-7.424 11.351-7.424h14.796v6.223h8.051v14.71h10.179V60.199H424.94v16.529h-5.612v-6.223H379.79v7.236h4.384c-2.048 1.577-3.503 4.437-3.503 8.313 0 8.414 7.948 12.62 17.492 12.62 9.538 0 17.253-4.299 17.253-12.62 0-2.124-.83-6.212-2.445-7.472m-16.21 50.054h38.359v-27.662h-38.36zm28.18-7.998h-17.994V109h17.994zm-13.38-51.31h-16.936c-3.987 0-8.009-.877-11.52-2.821l3.808-6.996c2.426 1.347 4.969 1.823 7.712 1.823h16.936zm47.604 59.308h38.36v-27.662h-38.36zm1.077-44.603c-2.585 5.045-11.26 11.731-16.55 14.642l-5.257-6.961c4.5-2.614 7.935-5.66 10.885-8.99 3.664-5.128 5.252-10.88 5.255-16.69l.002-5.835h10.382l-.005 5.834c0 2.921-.341 6.591-1.003 9.47l18.878 15.3-6.082 7.69zm37.282-23.834h-10.18v38.476h10.18zm-10.178 60.439h-18V109h18zm50.03-3.223-15.16-18.962c-4.8 8.67-11.28 15.324-15.246 18.748l-5.781-6.977c3.143-2.85 8.334-9.022 11.152-14.602 3.25-6.43 4.863-13.563 4.863-20.85V60.198h10.525V72.69c0 4.522-.571 12.75-1.352 15.36l18.376 21.59zm18.883-57.216h-10.184v68.437h10.184V83.963h9.35v-7.99h-9.35zm50.353 38.476c-10.959 0-19.836 6.969-19.836 15.573s8.877 15.576 19.836 15.576c10.957 0 19.839-6.972 19.839-15.576s-8.882-15.573-19.839-15.573m19.209-38.476h-10.184v9.61h-9.596v7.715h9.596v6.117h-9.596v4.76h-4.332V70.012h2.964v-7.994H579.12c-2.744 0-5.286-.476-7.715-1.82l-3.802 6.993c3.508 1.95 7.53 2.82 11.517 2.82h12.454v18.39h-7.504V73.35h-9.63V88.4h-5.65v7.992h38.333v-5.032h8.512v7.313h10.184zM606.61 106.32c4.84 0 8.766 3.548 8.766 7.927 0 4.38-3.927 7.927-8.766 7.927-4.84 0-8.768-3.548-8.768-7.927s3.929-7.927 8.768-7.927m76.502-46.122h-10.184v68.437h10.184l.002-44.672h8.512v-7.99h-8.514zm-29.382 9.814h-11.486c-3.99 0-8.011-.87-11.52-2.82l3.805-6.994c2.429 1.344 4.966 1.82 7.715 1.82h23.167c-.243 7.107-1.32 15.793-2.786 21.543-4.175 16.367-12.718 26.794-27.244 35.353l-5.331-7.104c13.361-8.056 23.341-19.256 23.68-41.798M357.389 95.488h-23.341V83.966h23.341zm-23.344-23.526c0-4.533-.722-8.438-3.188-12.423l-9.276 3.662c1.886 3.043 2.286 5.847 2.286 9.287v30.993h16.655v13.195h-26.657v7.993h63.702v-7.993H350.7v-13.195h16.867V60.198h-10.179v15.775h-23.344zm-116.189 29.135h-10.184v27.538l39.201-.005v-7.993h-29.017Zm.879-16.61c-5.499 8.099-15.24 13.359-25.266 17.105l-4.093-6.98c14.052-6.048 23.577-12.988 24.604-24.6H200.89c-3.985 0-8.004-.87-11.515-2.82l3.805-6.994c2.429 1.344 4.966 1.82 7.71 1.82h23.656v4.612c0 3.366-.505 6.427-1.476 9.343h12.584V60.198h10.183v48.604h-10.183V83.963h-16.569c-.113.175-.232.35-.351.524m496.488 21.018h7.633v15.132h29.022v7.998h-39.203v-20.547c-2.228 2.12-4.623 4.066-6.924 5.8l-5.35-7.525c3.744-2.842 8.673-6.972 9.805-11.57h-15.219v-7.991h10.742c-4.67-2.741-7.707-7.18-7.707-12.195 0-8.32 8.372-15.068 18.698-15.068 10.327 0 18.698 6.747 18.698 15.068 0 5.014-3.034 9.454-7.71 12.195h13.597V60.206h10.181v54.467h-10.18v-6.91h-11.37v-7.988l11.37-.006v-4.977h-19.57c-1.066 3.81-3.508 7.427-6.513 10.713"/><path fill="#939598" d="M741.367 147.61h10.28v2.017h-6.935v5.405h6.577v2.014h-6.577v6.043h7.165v2.12h-10.51zm-1.968 16.783c-.564.22-1.265.46-2.106.71-.839.259-1.8.386-2.87.386-1.393 0-2.575-.257-3.544-.762a6.694 6.694 0 0 1-2.37-2.07c-.614-.867-1.061-1.87-1.342-3.01a14.867 14.867 0 0 1-.418-3.57c0-1.174.122-2.286.365-3.341.25-1.053.657-1.98 1.225-2.781a6.204 6.204 0 0 1 2.233-1.91c.921-.48 2.038-.712 3.366-.712 2.09 0 3.643.452 4.654 1.373 1.013.92 1.519 2.151 1.519 3.699h-3.8c0-.339-.034-.712-.103-1.109-.066-.4-.193-.77-.384-1.108a2.292 2.292 0 0 0-.79-.842c-.337-.222-.773-.333-1.3-.333-.746 0-1.35.228-1.796.69a4.72 4.72 0 0 0-1.048 1.68 8.967 8.967 0 0 0-.495 2.133 17.61 17.61 0 0 0-.127 2c0 .342.008.77.021 1.289.019.516.074 1.074.167 1.659.095.587.24 1.167.434 1.746.198.577.474 1.1.83 1.57.355.465.802.848 1.337 1.147.537.297 1.198.445 1.976.445.561 0 1.075-.069 1.535-.206.458-.135.87-.297 1.233-.485.368-.185.685-.373.958-.574.27-.193.484-.352.64-.47zm-18.27-16.782h3.342v17.597h-3.342zm-16.2 0 5.99 17.597h3.442l6.096-17.597H717.5l-4.564 13.568h-.055l-4.488-13.568zm-8.25 8.032h.662c.595 0 1.14-.044 1.635-.14a3.4 3.4 0 0 0 1.273-.497c.357-.238.64-.558.84-.971.205-.408.308-.934.308-1.582 0-.694-.111-1.244-.344-1.643-.23-.397-.532-.699-.905-.89a3.53 3.53 0 0 0-1.302-.373c-.492-.05-.992-.076-1.505-.076h-.662zm-3.339-8.032h4c.972 0 1.9.05 2.795.156.894.098 1.68.312 2.36.635.68.32 1.225.786 1.632 1.389.408.606.609 1.405.609 2.41 0 .68-.117 1.257-.355 1.736-.235.474-.537.87-.891 1.183a4.182 4.182 0 0 1-1.188.74 9.3 9.3 0 0 1-1.233.418v.056c.645.116 1.164.31 1.566.574.402.262.714.577.945.94.227.37.404.78.534 1.238.127.463.244.944.344 1.455l.998 4.667h-3.342l-.64-3.318a19.529 19.529 0 0 0-.485-2.037c-.169-.564-.386-1.016-.65-1.365a2.192 2.192 0 0 0-1.009-.752c-.407-.153-.941-.232-1.603-.232h-1.048v7.704h-3.339zm-12.507 0h10.277v2.016h-6.935v5.405h6.578v2.014h-6.578v6.043h7.165v2.12h-10.507zm-3.122 2.931a20.6 20.6 0 0 0-.725-.304c-.33-.138-.717-.27-1.158-.407-.44-.138-.919-.252-1.432-.344a8.498 8.498 0 0 0-1.53-.14c-.71 0-1.29.163-1.732.497a1.554 1.554 0 0 0-.664 1.312c0 .58.211 1.074.64 1.492.423.416.955.81 1.593 1.186.635.373 1.328.749 2.064 1.119.74.378 1.428.807 2.066 1.294a6.805 6.805 0 0 1 1.595 1.69c.424.649.638 1.424.638 2.323 0 .953-.17 1.757-.508 2.421a4.438 4.438 0 0 1-1.394 1.622c-.582.418-1.286.717-2.104.905-.812.188-1.69.28-2.627.28-.527 0-1.037-.034-1.54-.1a27.817 27.817 0 0 1-1.389-.227 19.196 19.196 0 0 1-1.839-.463v-3.115c.336.207.712.424 1.122.651.407.23.839.434 1.291.617.45.174.918.328 1.413.444.492.12.987.178 1.479.178.273 0 .569-.035.892-.101.322-.069.627-.18.905-.347.283-.158.51-.38.69-.661.177-.278.267-.625.267-1.032 0-.664-.203-1.225-.61-1.696a6.756 6.756 0 0 0-1.546-1.286 27.03 27.03 0 0 0-2.014-1.153 12.779 12.779 0 0 1-2.013-1.286 6.732 6.732 0 0 1-1.545-1.68c-.41-.64-.611-1.426-.611-2.363 0-1.426.51-2.543 1.542-3.34 1.03-.798 2.495-1.195 4.4-1.195.46 0 .92.016 1.379.06a30.223 30.223 0 0 1 3.005.421zm-26.365-.915h-4.239v-2.016h11.811v2.016h-4.236v15.581h-3.336zm-18.606-2.016h3.649l6.807 13.057h.05V147.61h2.734v17.597h-3.318l-7.141-13.695h-.05v13.695h-2.73zm-12.501 0h10.276v2.016h-6.937v5.405h6.58v2.014h-6.58v6.043h7.167v2.12H620.24zm-21.434 0h4.132l5.078 14.359h.05l4.945-14.36h4.236v17.598h-2.96v-15.07h-.05l-5.179 15.07h-2.553l-5.173-14.713h-.053v14.713h-2.473zm-3.141 2.931c-.156-.068-.4-.169-.73-.304-.331-.138-.717-.27-1.16-.407a12.033 12.033 0 0 0-1.428-.344 8.587 8.587 0 0 0-1.53-.14c-.716 0-1.293.163-1.737.497-.44.328-.662.764-.662 1.312 0 .58.21 1.074.64 1.492.424.416.953.81 1.593 1.186.635.373 1.326.749 2.064 1.119.743.378 1.429.807 2.066 1.294a6.903 6.903 0 0 1 1.596 1.69c.423.649.635 1.424.635 2.323 0 .953-.17 1.757-.508 2.421a4.431 4.431 0 0 1-1.392 1.622c-.585.418-1.288.717-2.103.905-.815.188-1.691.28-2.625.28-.53 0-1.043-.034-1.545-.1a28.865 28.865 0 0 1-1.39-.227 19.574 19.574 0 0 1-1.124-.26c-.32-.082-.558-.153-.712-.203v-3.115c.342.207.712.424 1.122.651.408.23.836.434 1.289.617.45.174.923.328 1.413.444.494.12.987.178 1.484.178.267 0 .569-.035.889-.101.325-.069.624-.18.905-.347.283-.158.51-.38.688-.661.18-.278.272-.625.272-1.032 0-.664-.206-1.225-.616-1.696a6.644 6.644 0 0 0-1.545-1.286 27.996 27.996 0 0 0-2.008-1.153 12.684 12.684 0 0 1-2.017-1.286 6.634 6.634 0 0 1-1.545-1.68c-.407-.64-.611-1.426-.611-2.363 0-1.426.513-2.543 1.54-3.34 1.03-.798 2.498-1.195 4.403-1.195.46 0 .918.016 1.375.06a30.373 30.373 0 0 1 3.014.421zm-12.48 0c-.156-.068-.4-.169-.73-.304-.331-.138-.718-.27-1.16-.407a12.033 12.033 0 0 0-1.428-.344 8.542 8.542 0 0 0-1.53-.14c-.717 0-1.29.163-1.735.497-.44.328-.662.764-.662 1.312 0 .58.212 1.074.635 1.492.426.416.955.81 1.596 1.186.637.373 1.325.749 2.069 1.119.738.378 1.426.807 2.064 1.294a6.942 6.942 0 0 1 1.592 1.69c.426.649.64 1.424.64 2.323 0 .953-.174 1.757-.513 2.421a4.407 4.407 0 0 1-1.391 1.622c-.585.418-1.286.717-2.104.905-.815.188-1.69.28-2.624.28-.527 0-1.043-.034-1.543-.1a27.949 27.949 0 0 1-1.392-.227 18.813 18.813 0 0 1-1.119-.26 11.42 11.42 0 0 1-.717-.203v-3.115c.341.207.717.424 1.122.651.407.23.836.434 1.288.617.45.174.924.328 1.413.444.498.12.987.178 1.485.178.267 0 .568-.035.889-.101a3.04 3.04 0 0 0 .91-.347c.278-.158.505-.38.685-.661.177-.278.27-.625.27-1.032 0-.664-.206-1.225-.617-1.696a6.723 6.723 0 0 0-1.54-1.286 29.36 29.36 0 0 0-2.013-1.153 12.684 12.684 0 0 1-2.016-1.286 6.72 6.72 0 0 1-1.543-1.68c-.41-.64-.61-1.426-.61-2.363 0-1.426.51-2.543 1.542-3.34 1.024-.798 2.492-1.195 4.4-1.195.455 0 .915.016 1.373.06a30.523 30.523 0 0 1 3.014.421zm-21.842-2.931h10.28v2.016h-6.938v5.405h6.577v2.014h-6.577v6.043h7.168v2.12h-10.51zm-3.12 2.931c-.153-.068-.396-.169-.727-.304-.33-.138-.72-.27-1.161-.407a11.91 11.91 0 0 0-1.43-.344 8.52 8.52 0 0 0-1.528-.14c-.715 0-1.292.163-1.736.497-.44.328-.661.764-.661 1.312 0 .58.211 1.074.637 1.492.424.416.955.81 1.596 1.186.635.373 1.325.749 2.066 1.119.738.378 1.426.807 2.064 1.294a6.805 6.805 0 0 1 1.595 1.69c.424.649.638 1.424.638 2.323 0 .953-.17 1.757-.51 2.421a4.45 4.45 0 0 1-1.39 1.622c-.587.418-1.291.717-2.103.905-.818.188-1.694.28-2.63.28-.527 0-1.04-.034-1.54-.1a28.465 28.465 0 0 1-1.392-.227 18.813 18.813 0 0 1-1.119-.26 11.622 11.622 0 0 1-.72-.203v-3.115c.342.207.72.424 1.125.651.407.23.839.434 1.288.617.45.174.921.328 1.413.444.495.12.99.178 1.482.178.27 0 .569-.035.889-.101.325-.069.632-.18.91-.347a1.98 1.98 0 0 0 .688-.661c.177-.278.267-.625.267-1.032 0-.664-.206-1.225-.611-1.696a6.797 6.797 0 0 0-1.543-1.286 28.223 28.223 0 0 0-2.016-1.153 12.927 12.927 0 0 1-2.016-1.286 6.771 6.771 0 0 1-1.542-1.68c-.408-.64-.612-1.426-.612-2.363 0-1.426.514-2.543 1.543-3.34 1.032-.798 2.495-1.195 4.4-1.195.46 0 .918.016 1.379.06a30.223 30.223 0 0 1 3.008.421zm-12.48 0c-.153-.068-.396-.169-.725-.304-.333-.138-.72-.27-1.161-.407a12.033 12.033 0 0 0-1.429-.344 8.549 8.549 0 0 0-1.532-.14c-.711 0-1.29.163-1.73.497-.445.328-.667.764-.667 1.312 0 .58.212 1.074.64 1.492.426.416.958.81 1.593 1.186.638.373 1.326.749 2.067 1.119.738.378 1.428.807 2.063 1.294a6.757 6.757 0 0 1 1.596 1.69c.423.649.637 1.424.637 2.323 0 .953-.169 1.757-.51 2.421a4.389 4.389 0 0 1-1.395 1.622c-.582.418-1.285.717-2.095.905-.82.188-1.696.28-2.633.28-.526 0-1.04-.034-1.54-.1-.5-.069-.965-.148-1.391-.227a19.443 19.443 0 0 1-1.836-.463v-3.115c.34.207.714.424 1.121.651.408.23.84.434 1.289.617.452.174.92.328 1.418.444.487.12.984.178 1.48.178.272 0 .565-.035.89-.101.32-.069.625-.18.906-.347.28-.158.51-.38.688-.661.18-.278.27-.625.27-1.032 0-.664-.21-1.225-.614-1.696-.405-.468-.924-.9-1.543-1.286a27.103 27.103 0 0 0-2.016-1.153 12.779 12.779 0 0 1-2.014-1.286 6.671 6.671 0 0 1-1.542-1.68c-.408-.64-.614-1.426-.614-2.363 0-1.426.516-2.543 1.543-3.34 1.031-.798 2.497-1.195 4.4-1.195.46 0 .918.016 1.38.06a30.568 30.568 0 0 1 3.006.421zm-20.947 7.808h4.848l-2.374-7.779h-.05zm.945-10.74h3.418l6.12 17.598h-3.543l-1.532-4.998h-5.992l-1.583 4.998h-2.958zm-16.526 13.492 2.45 3.339h-3.217l-1.172-1.603c-1.498 1.225-3.247 1.836-5.255 1.836-1.783 0-3.122-.611-4.006-1.836-.746-1.006-1.008-2.117-.788-3.342.206-1.172.825-2.241 1.86-3.215.51-.473 1.267-1.063 2.273-1.757-1.143-2.108-1.718-3.175-1.736-3.19-.392-1.138-.177-2.236.638-3.29.767-1.005 2.108-1.447 4.03-1.328.647.037 1.222.26 1.735.665.492.373.839.836 1.042 1.378.445 1.257.215 2.582-.685 3.977-.51.783-1.082 1.405-1.71 1.862l3.75 5.385c.51-.514.817-1.183.92-2.016.017-.138.02-.913.02-2.324h1.484l.076 1.612c0 1.524-.571 2.81-1.709 3.847m-6.247-13.16c-.614.322-.878.928-.79 1.812.081.677.335 1.402.764 2.167l.635 1.095a4.973 4.973 0 0 0 1.302-2.066c.304-.969.248-1.836-.18-2.601-.408-.696-.982-.83-1.73-.408m-2.07 10.354c-.592 1.161-.534 2.307.183 3.444.674 1.07 1.492 1.564 2.442 1.477 1.04-.085 2.053-.558 3.04-1.426l-3.903-5.533c-.852.712-1.439 1.395-1.762 2.038m-34.25-10.684h3.111l2.55 13.39h.049l4.667-13.39h1.762l4.64 13.39h.051l2.58-13.39h2.574l-3.471 17.597h-2.958l-4.615-12.65h-.053l-4.413 12.65h-2.982zm-11.205 0h10.276v2.016h-6.937v5.405h6.583v2.014h-6.583v6.043h7.167v2.12h-10.506zm-6.334 0h3.341v17.597h-3.341zm-16.2 0 5.992 17.597h3.44l6.096-17.597h-2.958l-4.565 13.568h-.047l-4.493-13.568zm-10.187 0H433v2.016h-6.938v5.405h6.58v2.014h-6.58v6.043h7.165v2.12h-10.506zm-10.541 8.032h.661c.598 0 1.143-.044 1.633-.14a3.39 3.39 0 0 0 1.278-.497c.354-.238.637-.558.841-.971.201-.408.304-.934.304-1.582 0-.694-.114-1.244-.344-1.643-.23-.397-.529-.699-.905-.89a3.501 3.501 0 0 0-1.299-.373 14.91 14.91 0 0 0-1.508-.076h-.661zm-3.342-8.032h4.003c.971 0 1.903.05 2.797.156.891.098 1.677.312 2.355.635.682.32 1.225.786 1.632 1.389.41.606.617 1.405.617 2.41 0 .68-.122 1.257-.363 1.736a3.79 3.79 0 0 1-.889 1.183c-.36.314-.754.563-1.188.74-.434.18-.841.318-1.235.418v.056c.645.116 1.169.31 1.568.574.4.262.715.577.942.94.228.37.41.78.538 1.238.124.463.243.944.34 1.455l.998 4.667h-3.339l-.637-3.318a20.906 20.906 0 0 0-.487-2.037c-.172-.564-.387-1.016-.651-1.365a2.206 2.206 0 0 0-1.008-.752c-.408-.153-.942-.232-1.604-.232h-1.047v7.704h-3.342zm-20.836 0h10.276v2.016h-6.934v5.405h6.577v2.014h-6.577v6.043h7.167v2.12h-10.509zm-1.971 16.782c-.564.22-1.265.46-2.106.71-.839.259-1.797.386-2.868.386-1.395 0-2.575-.257-3.548-.762a6.74 6.74 0 0 1-2.371-2.07c-.609-.867-1.058-1.87-1.339-3.01a15.001 15.001 0 0 1-.423-3.57c0-1.174.13-2.286.373-3.341.246-1.053.656-1.98 1.225-2.781.566-.8 1.312-1.434 2.23-1.91.921-.48 2.043-.712 3.371-.712 2.088 0 3.644.452 4.652 1.373 1.01.92 1.518 2.151 1.518 3.699h-3.802c0-.339-.032-.712-.103-1.109-.063-.4-.193-.77-.378-1.108a2.337 2.337 0 0 0-.791-.842c-.342-.222-.776-.333-1.302-.333-.752 0-1.35.228-1.8.69a4.642 4.642 0 0 0-1.044 1.68 9.1 9.1 0 0 0-.5 2.133 18.86 18.86 0 0 0-.125 2c0 .342.01.77.027 1.289.015.516.071 1.074.164 1.659.092.587.238 1.167.434 1.746.198.577.47 1.1.828 1.57.357.465.807.848 1.341 1.147.535.297 1.193.445 1.977.445.56 0 1.069-.069 1.529-.206a7.104 7.104 0 0 0 1.238-.485c.363-.185.68-.373.955-.574.273-.193.484-.352.638-.47zm-28.168-16.782h3.649l6.81 13.057h.05V147.61h2.731v17.597h-3.318l-7.143-13.695h-.05v13.695h-2.729zm-11.612 10.74 2.423-7.78h.053l2.371 7.78zm.944-10.74-6.07 17.597h2.962l1.58-4.998h5.99l1.534 4.998h3.545l-6.125-17.597zm-14.748 8.032h.662a8.61 8.61 0 0 0 1.632-.14c.493-.092.921-.259 1.278-.497a2.4 2.4 0 0 0 .836-.971c.207-.408.305-.934.305-1.582 0-.694-.109-1.244-.339-1.643a2.214 2.214 0 0 0-.905-.89 3.56 3.56 0 0 0-1.302-.373c-.492-.05-.992-.076-1.505-.076h-.662zm-3.341-8.032h4.003c.971 0 1.902.05 2.797.156.889.098 1.68.312 2.357.635.68.32 1.222.786 1.633 1.389.407.606.608 1.405.608 2.41 0 .68-.114 1.257-.357 1.736-.236.474-.532.87-.892 1.183a4.097 4.097 0 0 1-1.185.74c-.434.18-.841.318-1.236.418v.056c.643.116 1.17.31 1.567.574.404.262.72.577.947.94.227.37.402.78.532 1.238.13.463.248.944.346 1.455l.998 4.667h-3.345l-.635-3.318a20.906 20.906 0 0 0-.486-2.037c-.17-.564-.387-1.016-.651-1.365a2.22 2.22 0 0 0-1.008-.752c-.408-.153-.94-.232-1.606-.232h-1.046v7.704h-3.341zm-2.792 11.602c0 .786-.063 1.555-.185 2.31a4.631 4.631 0 0 1-.854 2.016c-.445.584-1.09 1.058-1.942 1.415-.847.355-1.99.535-3.416.535-1.416 0-2.538-.18-3.379-.535-.844-.357-1.484-.83-1.918-1.415a4.636 4.636 0 0 1-.836-2.016 13.608 13.608 0 0 1-.193-2.31V147.61h3.339v11.602c0 .696.037 1.328.103 1.889.066.56.212 1.042.434 1.442.222.4.521.709.905.929.38.22.9.333 1.545.333.677 0 1.22-.114 1.622-.333.4-.22.704-.53.915-.93.212-.399.352-.88.418-1.441s.103-1.193.103-1.89v-11.601h3.34zm-15.663-8.67a31.64 31.64 0 0 0-.727-.305c-.331-.138-.72-.27-1.165-.407-.439-.138-.915-.252-1.426-.344a8.542 8.542 0 0 0-1.53-.14c-.713 0-1.29.163-1.735.497-.439.328-.661.764-.661 1.312 0 .58.211 1.074.64 1.492.423.416.95.81 1.59 1.186.638.373 1.323.749 2.07 1.119a13.48 13.48 0 0 1 2.06 1.294 6.757 6.757 0 0 1 1.596 1.69c.426.649.637 1.424.637 2.323 0 .953-.171 1.757-.513 2.421a4.387 4.387 0 0 1-1.384 1.622c-.59.418-1.29.717-2.108.905-.818.188-1.691.28-2.625.28-.526 0-1.045-.034-1.54-.1a30.415 30.415 0 0 1-1.397-.227 19.838 19.838 0 0 1-1.833-.463v-3.115c.34.207.714.424 1.121.651.408.23.837.434 1.286.617.45.174.926.328 1.421.444.492.12.982.178 1.48.178.269 0 .568-.035.888-.101.326-.069.625-.18.91-.347.278-.158.506-.38.686-.661.182-.278.27-.625.27-1.032 0-.664-.207-1.225-.614-1.696-.41-.468-.921-.9-1.54-1.286-.622-.394-1.3-.775-2.016-1.153a12.684 12.684 0 0 1-2.017-1.286 6.782 6.782 0 0 1-1.545-1.68c-.407-.64-.608-1.426-.608-2.363 0-1.426.516-2.543 1.54-3.34 1.026-.798 2.495-1.195 4.402-1.195.46 0 .913.016 1.374.06a31.024 31.024 0 0 1 2.31.294c.3.05.534.093.703.127zm-25.59-2.932h3.648l6.81 13.057h.048V147.61h2.728v17.597h-3.313l-7.14-13.695h-.054v13.695h-2.727zm-6.361 0h3.344v17.597h-3.344zm-24.098 0h3.339v7.368h6.125v-7.368h3.336v17.597h-3.336v-8.212h-6.125v8.212h-3.34zm-8.702 2.016v15.581h3.339v-15.581h4.233v-2.016h-11.808v2.016zm-13.399-2.016h3.34v15.478h6.582v2.12h-9.922zm-11.612 10.74h4.841l-2.37-7.78h-.048zm.941-10.74h3.422l6.117 17.597h-3.546l-1.529-4.998h-5.993l-1.582 4.998h-2.955zm-16.687 0h10.28v2.016h-6.935v5.405h6.577v2.014h-6.577v6.043h7.167v2.12h-10.512zm-15.769 0h3.342v7.368h6.117v-7.368h3.344v17.597h-3.344v-8.212h-6.117v8.212h-3.342z"/><path fill="#7dd0f3" d="M22.379 132.364c6.305-5.395 14.608-8.372 19.37-11.991 3.016-2.281 5.167-4.342 5.167-7.869 0 2.72-1.529 4.577-3.698 6.054-4.792 3.262-14.81 3.109-19.527 11.057-.5.833-.936 1.76-1.312 2.749m0-39.725c6.305 5.392 14.608 8.374 19.37 11.994 3.016 2.278 5.167 4.339 5.167 7.868 0-2.722-1.529-4.577-3.698-6.056-4.792-3.26-14.81-3.111-19.527-11.057a17.26 17.26 0 0 1-1.312-2.749M7.486 162.391a35.485 35.485 0 0 0 .476 10.332c-1.932 3.487-3.649 6.983-5.03 10.676-.545-6.728.995-14.01 4.554-21.008m6.78-17.121c-3.928 5.186-6.124 10.753-6.78 17.121 1.608-3.164 3.606-6.17 5.791-9.04.006-2.795.339-5.52.99-8.081m8.112-12.909c-.672 1.749-1.167 3.715-1.46 5.813-2.424 2.196-4.707 4.543-6.652 7.096 1.339-5.241 3.847-9.266 8.112-12.909m0-39.722c-4.265-3.646-6.773-7.67-8.112-12.912 1.945 2.554 4.228 4.903 6.651 7.097.294 2.1.789 4.066 1.461 5.815m-8.112-12.912c-.651-2.555-.984-5.286-.99-8.075-2.185-2.873-4.183-5.887-5.791-9.048.656 6.37 2.852 11.938 6.78 17.123m-6.78-17.123C3.926 55.608 2.387 48.327 2.932 41.6c1.381 3.694 3.098 7.186 5.03 10.673a35.476 35.476 0 0 0-.476 10.33m79.658 64.976c-2.617-5.657-7.369-8.485-12.145-8.44-4.775-.045-9.525 2.783-12.141 8.44 3.071-5.263 7.606-7.898 12.141-7.898s9.07 2.635 12.145 7.898m-28.075 56.094c-.223 4.752-.699 9.078-1.617 12.84.132-2.65.193-5.455.207-8.419a31.336 31.336 0 0 0 1.41-4.42m1.616-12.854a34.053 34.053 0 0 1-1.439 4.535c-.005 2.886-.05 5.672-.177 8.318.944-3.841 1.407-8.207 1.616-12.853m1.609-12.825c-.177 4.475-.635 8.88-1.609 12.825.12-2.715.164-5.466.125-8.186.6-1.458 1.087-3.02 1.484-4.639m0 0c1.294-5.201 1.677-11.022 1.677-16.131 0-2.403-.246-4.763-.605-7.136-.363-2.379-.657-4.73-.508-7.15-1.05 4.245-.91 8.423-.784 12.682.12 4.244.315 8.488.315 12.737 0 1.66-.031 3.337-.095 4.998M2.932 183.4c-4.503 12.065-4.075 22.58 3.072 30.1 6.77 7.122 19.566 11.55 30.038 11.5 3.493-.015 6.726-.531 9.393-1.616 8.68-3.516 11.33-13.028 12.017-26.868-1.58 6.51-4.482 11.326-9.684 13.697-9.9 4.495-28.122.148-37.467-9.774-4.414-4.688-6.842-10.604-7.369-17.039m0-141.798c.527-6.435 2.955-12.356 7.369-17.037 9.345-9.927 27.567-14.274 37.467-9.776 5.202 2.37 8.105 7.186 9.684 13.698-.688-13.84-3.336-23.353-12.017-26.872C42.768.534 39.535.016 36.042 0 25.57-.052 12.775 4.377 6.004 11.502-1.143 19.019-1.571 29.536 2.932 41.6m56.137-.278a31.227 31.227 0 0 0-1.41-4.421 186.58 186.58 0 0 0-.207-8.416c.918 3.76 1.394 8.088 1.617 12.837m1.616 12.85c-.209-4.643-.672-9.01-1.616-12.85.127 2.651.172 5.435.177 8.319a34.262 34.262 0 0 1 1.44 4.532M62.293 67a32.867 32.867 0 0 0-1.484-4.638c.04-2.72-.006-5.47-.125-8.19.974 3.949 1.432 8.354 1.609 12.828m0 0c.064 1.662.095 3.339.095 5.003 0 4.247-.196 8.488-.315 12.732-.127 4.262-.267 8.435.784 12.681-.149-2.415.145-4.77.508-7.143.36-2.376.605-4.736.605-7.139 0-5.109-.383-10.93-1.677-16.134m24.85 30.416c-2.617 5.663-7.369 8.483-12.145 8.438-4.775.045-9.525-2.775-12.141-8.438 3.071 5.266 7.606 7.896 12.141 7.896s9.07-2.63 12.145-7.896m3.786-56.094c.222-4.75.704-9.078 1.62-12.837a190.419 190.419 0 0 0-.21 8.416 31.924 31.924 0 0 0-1.41 4.421m-1.614 12.85c.389-1.59.868-3.11 1.44-4.531.005-2.884.05-5.668.174-8.319-.942 3.84-1.408 8.207-1.614 12.85m-1.611 12.828c.177-4.474.635-8.88 1.61-12.827-.12 2.72-.166 5.469-.126 8.189A33.568 33.568 0 0 0 87.705 67m0 0c-1.294 5.204-1.675 11.025-1.675 16.134 0 2.403.243 4.763.603 7.139.363 2.373.659 4.728.51 7.143 1.051-4.246.908-8.419.784-12.681-.12-4.244-.318-8.485-.318-12.732 0-1.664.032-3.341.096-5.003m39.917 65.363c-6.305-5.395-14.61-8.372-19.372-11.991-3.017-2.281-5.168-4.342-5.168-7.869 0 2.72 1.53 4.577 3.7 6.054 4.788 3.262 14.808 3.109 19.525 11.057.503.833.94 1.76 1.315 2.749m0-.003c.67 1.749 1.164 3.715 1.46 5.813 2.424 2.196 4.702 4.543 6.652 7.096-1.341-5.241-3.847-9.266-8.112-12.909m8.112 12.909c3.927 5.186 6.126 10.753 6.78 17.121-1.61-3.164-3.605-6.17-5.79-9.04-.008-2.795-.341-5.52-.99-8.081m6.78 17.121c.343 3.45.19 6.953-.472 10.332 1.924 3.487 3.646 6.983 5.025 10.676.545-6.728-.995-14.01-4.554-21.008m4.554 21.008c4.503 12.065 4.077 22.58-3.072 30.1-6.771 7.122-19.564 11.55-30.036 11.5-3.495-.015-6.728-.531-9.395-1.616-8.678-3.516-11.33-13.028-12.015-26.868 1.577 6.51 4.48 11.326 9.684 13.697 9.9 4.495 28.12.148 37.468-9.774 4.413-4.688 6.842-10.604 7.366-17.039m-56.137.275c.222 4.752.704 9.078 1.62 12.84a190.336 190.336 0 0 1-.21-8.419 32.039 32.039 0 0 1-1.41-4.42m-1.614-12.854a33.298 33.298 0 0 0 1.44 4.535c.005 2.886.05 5.672.174 8.318-.942-3.841-1.408-8.207-1.614-12.853m-1.611-12.825c.177 4.475.635 8.88 1.61 12.825a138.415 138.415 0 0 1-.126-8.186c-.598-1.458-1.085-3.02-1.484-4.639m0 0c-1.294-5.201-1.675-11.022-1.675-16.131 0-2.403.243-4.763.603-7.136.363-2.379.659-4.73.51-7.15 1.051 4.245.908 8.423.784 12.682-.12 4.244-.318 8.488-.318 12.737 0 1.66.032 3.337.096 4.998m59.362-116.395c4.503-12.065 4.077-22.582-3.072-30.1-6.771-7.124-19.564-11.553-30.036-11.5-3.495.015-6.728.534-9.395 1.613-8.678 3.52-11.33 13.031-12.015 26.872 1.577-6.512 4.48-11.327 9.684-13.698 9.9-4.498 28.12-.15 37.468 9.776 4.413 4.68 6.842 10.602 7.366 17.037m-4.554 21.003c.344-3.448.19-6.948-.47-10.33 1.923-3.487 3.645-6.98 5.024-10.673.545 6.726-.995 14.007-4.554 21.003m-6.779 17.123c3.927-5.185 6.126-10.752 6.78-17.123-1.61 3.161-3.605 6.175-5.79 9.048-.008 2.789-.341 5.52-.99 8.075m-8.112 12.912c.67-1.749 1.164-3.715 1.46-5.815 2.424-2.194 4.702-4.543 6.652-7.097-1.341 5.242-3.847 9.266-8.112 12.912m0 0c-6.305 5.392-14.61 8.374-19.372 11.994-3.017 2.278-5.168 4.339-5.168 7.868 0-2.722 1.53-4.577 3.7-6.056 4.788-3.26 14.808-3.111 19.525-11.057.503-.833.94-1.76 1.315-2.749"/><path fill="#40a8d1" d="M7.961 52.272c1.085-5.538 3.506-10.753 7.255-14.923 9.043-10.083 25.744-14.07 34.883-9.38 3.545 1.81 5.945 4.932 7.561 8.93-.016-2.96-.076-5.765-.209-8.416-1.58-6.512-4.482-11.327-9.683-13.695-9.901-4.5-28.12-.15-37.468 9.774-4.413 4.683-6.842 10.602-7.366 17.036 1.378 3.694 3.098 7.189 5.027 10.674m5.315 19.38a37.185 37.185 0 0 1 1.114-9.093c-2.354-3.459-4.54-6.906-6.429-10.287a35.49 35.49 0 0 0-.476 10.332c1.611 3.161 3.609 6.175 5.791 9.048m7.642 15.171c-2.424-2.196-4.705-4.548-6.652-7.096-.65-2.558-.984-5.291-.99-8.075 2.25 2.95 4.747 5.818 7.33 8.589a36.118 36.118 0 0 0 .312 6.582m0 0c.285 2.077.772 4.025 1.46 5.813 6.305 5.395 14.608 8.374 19.373 11.994 3.014 2.278 5.167 4.347 5.167 7.869 0-4.194-2.585-6.499-6.157-9.901-4.863-4.54-12.964-9.552-19.843-15.775m0 51.353c.285-2.076.772-4.021 1.46-5.812 6.305-5.395 14.608-8.374 19.373-11.991 3.014-2.281 5.167-4.35 5.167-7.872 0 4.191-2.585 6.498-6.157 9.901-4.863 4.538-12.964 9.554-19.843 15.774m0-.002a36.158 36.158 0 0 0-.313 6.585c-2.582 2.765-5.08 5.633-7.329 8.591.006-2.788.34-5.516.99-8.077 1.947-2.554 4.228-4.903 6.652-7.1m-7.642 15.177c-2.182 2.871-4.18 5.88-5.791 9.044a35.485 35.485 0 0 0 .476 10.332c1.89-3.379 4.075-6.83 6.43-10.287a37.143 37.143 0 0 1-1.115-9.089m-5.315 19.376c1.085 5.538 3.506 10.755 7.255 14.925 9.043 10.08 25.744 14.068 34.883 9.377 3.545-1.807 5.945-4.932 7.561-8.933a190.336 190.336 0 0 1-.209 8.42c-1.58 6.514-4.482 11.326-9.683 13.697-9.901 4.498-28.12.15-37.468-9.774-4.413-4.683-6.842-10.604-7.366-17.036 1.378-3.697 3.098-7.189 5.027-10.676m51.284 2.627a23.72 23.72 0 0 1-1.6 3.21c.018 3.177.02 6.355.015 9.532a31.496 31.496 0 0 0 1.408-4.415c.127-2.652.172-5.435.177-8.327m1.567-12.721c.037 2.725-.006 5.474-.127 8.189a33.77 33.77 0 0 1-1.44 4.532c0-3.127-.053-6.252-.1-9.377a22.394 22.394 0 0 0 1.667-3.344m2.045-35.047c-3.175 8.438-2.127 22.18-2.045 35.047.598-1.455 1.084-3.014 1.484-4.63.063-1.667.092-3.342.092-5.004 0-4.249-.195-8.487-.314-12.731-.127-4.263-.268-8.438.783-12.682m12.142-9.012c6.061 0 10.247 3.943 12.144 9.012-2.617-5.662-7.366-8.443-12.144-8.443-4.776 0-9.525 2.781-12.142 8.443 1.897-5.07 6.083-9.012 12.142-9.012m12.144 9.012c1.05 4.244.91 8.42.786 12.682-.12 4.244-.318 8.482-.318 12.731 0 1.662.03 3.337.093 5.004a33.47 33.47 0 0 0 1.484 4.63c.082-12.867 1.133-26.61-2.045-35.047m2.045 35.047a22.65 22.65 0 0 0 1.667 3.344c-.048 3.125-.1 6.25-.1 9.377a33.77 33.77 0 0 1-1.44-4.532 140.738 140.738 0 0 1-.127-8.19m1.566 12.722c.006 2.892.05 5.675.175 8.327a32.207 32.207 0 0 0 1.408 4.415c-.003-3.177 0-6.355.018-9.533a23.118 23.118 0 0 1-1.6-3.209m51.286-2.627c1.924 3.487 3.649 6.98 5.025 10.676-.524 6.432-2.953 12.353-7.366 17.036-9.348 9.925-27.567 14.272-37.468 9.774-5.202-2.37-8.107-7.183-9.684-13.698a194.326 194.326 0 0 1-.211-8.419c1.622 4 4.019 7.126 7.561 8.933 9.142 4.69 25.842.704 34.886-9.377 3.749-4.17 6.173-9.387 7.257-14.925m-5.318-19.376a37.401 37.401 0 0 1-1.114 9.089c2.355 3.458 4.54 6.908 6.432 10.287.662-3.379.815-6.882.471-10.332-1.608-3.165-3.603-6.173-5.789-9.044m-7.641-15.176c2.424 2.196 4.704 4.545 6.652 7.099.65 2.56.984 5.289.99 8.077-2.255-2.958-4.747-5.826-7.33-8.59a36.158 36.158 0 0 0-.312-6.586m0 .002c-.288-2.076-.773-4.021-1.458-5.812-6.308-5.395-14.613-8.374-19.375-11.991-3.014-2.281-5.168-4.35-5.168-7.872 0 4.191 2.583 6.498 6.157 9.901 4.863 4.538 12.965 9.554 19.844 15.774m0-51.353c-.288 2.077-.773 4.025-1.458 5.813-6.308 5.395-14.613 8.374-19.375 11.994-3.014 2.278-5.168 4.347-5.168 7.869 0-4.194 2.583-6.499 6.157-9.901 4.863-4.54 12.965-9.552 19.844-15.775m0 0c2.424-2.196 4.704-4.548 6.652-7.096.65-2.558.984-5.291.99-8.075-2.255 2.95-4.747 5.818-7.33 8.589a36.118 36.118 0 0 1-.312 6.582m7.641-15.17a37.444 37.444 0 0 0-1.114-9.094c2.355-3.459 4.54-6.906 6.432-10.287a35.58 35.58 0 0 1 .471 10.332c-1.608 3.161-3.603 6.175-5.789 9.048m5.318-19.38c1.924-3.485 3.649-6.98 5.025-10.674-.524-6.434-2.953-12.353-7.366-17.036-9.348-9.925-27.567-14.275-37.468-9.774-5.202 2.368-8.107 7.183-9.684 13.695a194.31 194.31 0 0 0-.211 8.416c1.622-3.998 4.019-7.12 7.561-8.93 9.142-4.69 25.842-.703 34.886 9.38 3.749 4.17 6.173 9.385 7.257 14.923m-82.796-2.628a23.533 23.533 0 0 0-1.6-3.207c.018-3.177.02-6.357.015-9.538a31.72 31.72 0 0 1 1.408 4.424c.127 2.646.172 5.43.177 8.321m1.567 12.721c.037-2.725-.006-5.474-.127-8.191a33.975 33.975 0 0 0-1.44-4.53c0 3.13-.053 6.255-.1 9.377a22.521 22.521 0 0 1 1.667 3.344m2.045 35.05c-3.175-8.44-2.127-22.183-2.045-35.05.598 1.458 1.084 3.014 1.484 4.636.063 1.661.092 3.339.092 4.998 0 4.246-.195 8.493-.314 12.734-.127 4.26-.268 8.438.783 12.682m24.286 0c1.05-4.244.91-8.422.786-12.682-.12-4.241-.318-8.488-.318-12.734 0-1.66.03-3.337.093-4.998a33.43 33.43 0 0 1 1.484-4.636c.082 12.867 1.133 26.61-2.045 35.05m2.045-35.05a22.78 22.78 0 0 1 1.667-3.344c-.048-3.122-.1-6.247-.1-9.377a33.975 33.975 0 0 0-1.44 4.53 140.865 140.865 0 0 0-.127 8.191m1.566-12.72c.006-2.893.05-5.676.175-8.322a32.44 32.44 0 0 1 1.408-4.424c-.003 3.18 0 6.36.018 9.538a22.939 22.939 0 0 0-1.6 3.207m-15.756 56.782c6.061 0 10.247-3.944 12.144-9.011-2.617 5.662-7.366 8.44-12.144 8.44-4.776 0-9.525-2.778-12.142-8.44 1.897 5.067 6.083 9.011 12.142 9.011"/><path fill="#12729f" d="M87.142 97.412c-1.897 5.07-6.082 9.012-12.141 9.012-6.062 0-10.248-3.942-12.147-9.012 1.426 5.79 5.476 9.57 12.147 9.57 6.67 0 10.718-3.78 12.141-9.57M14.39 62.56C12.035 59.1 9.85 55.65 7.958 52.272c1.085-5.538 3.506-10.756 7.257-14.926 9.044-10.083 25.744-14.07 34.883-9.38 3.545 1.81 5.943 4.935 7.567 8.933 0 3.18-.005 6.358-.021 9.539-1.344-2.223-3.05-4.046-5.207-5.295-8.385-4.868-23.561-1.243-31.824 8.705-2.982 3.606-5.067 8.04-6.223 12.71m6.218 17.683c.1-2.509.447-5.06 1.053-7.54-2.495-3.343-4.961-6.743-7.271-10.142a37.423 37.423 0 0 0-1.114 9.09c2.252 2.953 4.747 5.821 7.332 8.592m0 0c7.059 7.548 14.668 14.552 19.518 19.907 3.008 3.326 6.792 6.914 6.792 12.348 0-4.164-2.585-6.495-6.154-9.9-4.848-4.512-12.968-9.55-19.847-15.772a36.145 36.145 0 0 1-.31-6.583m0 64.518c-.097-2.26.014-4.487.31-6.582 6.88-6.223 15-11.261 19.847-15.775 3.569-3.405 6.154-5.736 6.154-9.9 0 5.431-3.784 9.022-6.792 12.345-4.85 5.36-12.46 12.364-19.518 19.912m0 0c-2.585 2.768-5.08 5.636-7.332 8.591a37.401 37.401 0 0 0 1.114 9.089c2.31-3.397 4.776-6.797 7.27-10.142a38.396 38.396 0 0 1-1.052-7.538m-6.218 17.68c1.156 4.672 3.241 9.107 6.223 12.708 8.263 9.953 23.44 13.578 31.824 8.71 2.156-1.254 3.863-3.072 5.207-5.294.016 3.177.021 6.355.021 9.535-1.624 3.998-4.022 7.123-7.567 8.932-9.139 4.689-25.84.704-34.883-9.379-3.751-4.17-6.172-9.387-7.257-14.925 1.892-3.382 4.077-6.83 6.432-10.287m43.254 16.124a23.185 23.185 0 0 0 1.6-3.215c0-3.122-.05-6.247-.1-9.372a16.656 16.656 0 0 1-1.524 2.128c-.008 3.484.008 6.971.024 10.459m5.21-50.978c-3.173 8.44-2.125 22.18-2.043 35.042a22.456 22.456 0 0 1-1.667 3.35c-.23-14.442-.497-29.69 3.71-38.392m24.288 0c-1.423-5.784-5.471-9.567-12.141-9.567s-10.721 3.783-12.147 9.567c1.9-5.07 6.085-9.011 12.147-9.011 6.059 0 10.244 3.942 12.141 9.011m0 0c4.213 8.702 3.943 23.95 3.712 38.391a22.456 22.456 0 0 1-1.666-3.35c.082-12.86 1.132-26.6-2.046-35.04m5.215 50.977c.014-3.488.03-6.975.021-10.46a16.92 16.92 0 0 1-1.524-2.127c-.047 3.125-.1 6.25-.1 9.372a22.903 22.903 0 0 0 1.603 3.215m43.252-16.124c2.355 3.458 4.543 6.905 6.432 10.287-1.085 5.538-3.509 10.755-7.258 14.925-9.043 10.083-25.744 14.068-34.885 9.38-3.543-1.81-5.94-4.935-7.565-8.933 0-3.18.003-6.358.024-9.535 1.342 2.222 3.048 4.04 5.205 5.294 8.384 4.868 23.56 1.243 31.821-8.71 2.985-3.601 5.07-8.036 6.226-12.708m-6.215-17.68a38.6 38.6 0 0 1-1.056 7.538c2.495 3.345 4.96 6.745 7.27 10.142a37.143 37.143 0 0 0 1.115-9.089c-2.252-2.955-4.747-5.823-7.33-8.59m0 0c-7.056-7.55-14.67-14.553-19.52-19.913-3.006-3.323-6.792-6.914-6.792-12.346 0 4.165 2.582 6.496 6.157 9.901 4.844 4.514 12.964 9.552 19.846 15.775a36.36 36.36 0 0 1 .31 6.582m0-64.518c-7.057 7.548-14.671 14.552-19.521 19.907-3.006 3.326-6.792 6.914-6.792 12.348 0-4.164 2.582-6.495 6.157-9.9 4.844-4.512 12.964-9.55 19.846-15.772.294-2.101.408-4.324.31-6.583m0 0a38.626 38.626 0 0 0-1.056-7.54c2.495-3.343 4.96-6.743 7.27-10.142a37.164 37.164 0 0 1 1.115 9.09c-2.252 2.953-4.747 5.821-7.33 8.592m6.216-17.682c2.355-3.459 4.543-6.909 6.432-10.287-1.085-5.538-3.509-10.756-7.258-14.926-9.043-10.083-25.744-14.07-34.885-9.38-3.543 1.81-5.94 4.935-7.565 8.933 0 3.18.003 6.358.024 9.539 1.342-2.223 3.048-4.046 5.205-5.295 8.384-4.868 23.56-1.243 31.821 8.705 2.985 3.606 5.07 8.04 6.226 12.71m-43.252-16.12c.014 3.484.03 6.974.021 10.458-.553.651-1.055 1.36-1.524 2.122-.047-3.122-.1-6.246-.1-9.371a22.695 22.695 0 0 1 1.603-3.21m-5.215 50.975c4.213-8.702 3.943-23.947 3.712-38.394a22.844 22.844 0 0 0-1.666 3.35c.082 12.864 1.132 26.607-2.046 35.044m-24.288 0c-4.207-8.702-3.94-23.947-3.71-38.394a22.844 22.844 0 0 1 1.667 3.35c-.082 12.864-1.13 26.607 2.043 35.044m-5.21-50.974c-.016 3.484-.032 6.974-.024 10.458.556.651 1.056 1.36 1.524 2.122.05-3.122.1-6.246.1-9.371-.473-1.146-.994-2.217-1.6-3.21"/><path fill="#001638" d="M75 107.536c6.86 0 11.771-3.985 12.142-10.123 4.574-7.821 4.873-20.985 5.088-29.113.095-3.802.14-7.604.148-11.406.841-1 1.786-1.876 2.85-2.577 7.627-5.045 21.29-1.783 28.333 7.755 2.252 3.053 3.832 6.747 4.779 10.629-6.903 9.233-14 17.975-18.524 24.788-6.662 9.42-6.733 11.52-6.733 15.01 0 3.493.071 5.588 6.733 15.01 4.525 6.81 11.62 15.555 18.524 24.789-.947 3.881-2.527 7.577-4.779 10.63-7.043 9.536-20.706 12.796-28.334 7.753-1.063-.701-2.008-1.58-2.85-2.577a496.404 496.404 0 0 0-.147-11.404c-.215-8.133-.514-21.29-5.088-29.114-.37-6.136-5.282-10.123-12.142-10.123-6.858 0-11.769 3.987-12.142 10.123-4.572 7.823-4.874 20.981-5.088 29.114-.095 3.8-.14 7.602-.148 11.404-.841.997-1.786 1.876-2.85 2.577-7.625 5.043-21.29 1.783-28.334-7.752-2.251-3.054-3.831-6.75-4.776-10.631 6.903-9.234 13.997-17.979 18.521-24.789 6.663-9.422 6.734-11.517 6.734-15.01 0-3.49-.071-5.59-6.734-15.01-4.524-6.813-11.618-15.555-18.52-24.788.944-3.882 2.524-7.576 4.775-10.629 7.043-9.538 20.71-12.8 28.334-7.755 1.064.701 2.009 1.577 2.85 2.577.008 3.802.053 7.604.148 11.406.214 8.128.516 21.292 5.088 29.113.373 6.138 5.284 10.123 12.142 10.123"/><path fill="#004e79" d="M62.857 127.581c1.429-5.784 5.474-9.562 12.142-9.562 6.67 0 10.72 3.78 12.144 9.567-.373-6.138-5.284-10.123-12.144-10.123-6.856 0-11.764 3.985-12.142 10.118m0-30.16c1.429 5.779 5.474 9.562 12.142 9.562 6.67 0 10.72-3.786 12.144-9.57-.373 6.138-5.284 10.123-12.144 10.123-6.856 0-11.764-3.985-12.142-10.115m29.477-50.945c1.366-2.263 3.072-4.083 5.228-5.332 8.388-4.868 23.559-1.246 31.825 8.705 2.981 3.604 5.066 8.038 6.223 12.708-2.31 3.402-4.776 6.802-7.271 10.144-.945-3.881-2.527-7.575-4.779-10.628-7.043-9.538-20.706-12.8-28.334-7.755-1.063.7-2.005 1.577-2.847 2.577.008-3.485-.008-6.972-.045-10.42M90.858 59.02c.466-.764.966-1.473 1.519-2.124-.006 3.802-.05 7.604-.146 11.406-.214 8.125-.516 21.278-5.08 29.102 4.204-8.708 3.934-23.948 3.707-38.384M57.666 46.476c-1.368-2.263-3.072-4.083-5.228-5.332-8.385-4.868-23.564-1.246-31.824 8.705-2.982 3.604-5.067 8.038-6.223 12.708 2.31 3.402 4.775 6.802 7.27 10.144.948-3.881 2.527-7.575 4.776-10.628 7.043-9.538 20.712-12.8 28.334-7.755 1.064.7 2.009 1.577 2.85 2.577-.008-3.485.008-6.972.045-10.42m1.479 12.544a16.89 16.89 0 0 0-1.524-2.124c.008 3.802.053 7.604.148 11.406.214 8.125.513 21.278 5.08 29.102-4.201-8.708-3.934-23.948-3.704-38.384m-1.48 119.502a801.505 801.505 0 0 1-.044-10.42c-.841 1.004-1.786 1.877-2.85 2.58-7.622 5.044-21.29 1.784-28.334-7.754-2.249-3.051-3.828-6.747-4.776-10.629-2.495 3.342-4.96 6.745-7.27 10.142 1.156 4.67 3.24 9.104 6.223 12.708 8.26 9.95 23.44 13.576 31.824 8.71 2.156-1.254 3.86-3.075 5.228-5.337m1.479-12.544a16.89 16.89 0 0 1-1.524 2.125c.008-3.802.053-7.604.148-11.404.214-8.125.513-21.28 5.08-29.099-4.201 8.703-3.934 23.943-3.704 38.378m33.19 12.544c.036-3.447.052-6.932.044-10.42.842 1.004 1.784 1.877 2.847 2.58 7.628 5.044 21.291 1.784 28.334-7.754 2.252-3.051 3.834-6.747 4.779-10.629 2.495 3.342 4.96 6.745 7.27 10.142-1.156 4.67-3.24 9.104-6.222 12.708-8.266 9.95-23.437 13.576-31.825 8.71-2.156-1.254-3.862-3.075-5.228-5.337m-1.476-12.544c.466.765.966 1.474 1.519 2.125a481.81 481.81 0 0 0-.146-11.404c-.214-8.125-.516-21.28-5.08-29.099 4.204 8.703 3.934 23.943 3.707 38.378m-43.94-53.48c0-5.434-3.783-9.022-6.791-12.348-4.85-5.358-12.462-12.359-19.519-19.91.1-2.508.448-5.059 1.053-7.538 6.903 9.234 14 17.976 18.524 24.789 6.66 9.419 6.734 11.517 6.734 15.007m0 .005c0 5.432-3.784 9.023-6.792 12.346-4.85 5.358-12.462 12.364-19.519 19.91a38.45 38.45 0 0 0 1.053 7.54c6.903-9.234 14-17.978 18.524-24.788 6.66-9.422 6.734-11.52 6.734-15.008m56.163-.005c0-5.434 3.783-9.022 6.792-12.348 4.85-5.358 12.461-12.359 19.518-19.91a38.567 38.567 0 0 0-1.053-7.538c-6.9 9.234-14 17.976-18.524 24.789-6.662 9.419-6.733 11.517-6.733 15.007m0 .005c0 5.432 3.783 9.023 6.792 12.346 4.85 5.358 12.461 12.364 19.518 19.91a38.65 38.65 0 0 1-1.053 7.54c-6.9-9.234-14-17.978-18.524-24.788-6.662-9.422-6.733-11.52-6.733-15.008"/></g></svg>