<svg width="539" height="148" viewBox="0 0 539 148" fill="none" xmlns="http://www.w3.org/2000/svg">
    <g clip-path="url(#clip0_838_50178)">
        <path d="M424.835 93.3074H449.146V97.3909H425.617C425.205 97.3909 425.041 97.2116 424.945 97.0185C424.862 96.8529 424.849 96.6184 424.849 96.6184V93.3074H424.835ZM416.969 82.3948V97.0874C417.175 99.8052 419.303 101.833 421.952 102.151H457.012V82.4086H449.146V88.9892H424.835V82.4086H416.969V82.3948ZM275.766 97.2668H255.381C255.024 97.2668 254.942 97.1426 254.887 97.0047V87.0026H275.766V97.2668ZM283.619 82.1603H247.034V97.115C247.24 99.7914 249.245 101.93 251.908 102.109H283.619V82.1603ZM185.301 98.1359C187.923 95.2388 189.433 90.9483 189.433 85.0988V52.0438H180.428V85.085C180.428 88.6167 179.604 91.0034 178.273 92.4796C176.955 93.942 175.184 94.48 173.399 94.4938H173.303C169.748 94.4938 166.947 93.0038 164.641 90.2723L159.686 95.7078C162.733 99.5293 167.153 102.647 173.852 102.647C178.685 102.647 182.638 101.102 185.315 98.1359M224.974 87.8304C224.974 92.2865 221.858 95.3629 218.316 96.1079C217.246 96.3425 216.381 96.3838 215.941 96.3838C215.502 96.3838 207.705 96.3838 207.705 96.3838V79.2493C207.705 79.2493 215.941 79.2493 215.955 79.2493C217.04 79.2493 218.303 79.5252 218.33 79.5252C221.872 80.2978 224.947 83.802 224.974 87.7752V87.8442V87.8304ZM220.911 65.6742C220.87 69.8957 217.273 73.8413 213.443 73.8551C213.374 73.8551 207.705 73.8827 207.705 73.8827V57.3001C207.705 57.3001 208.721 57.2311 209.86 57.2311C211.109 57.2311 212.798 57.2863 214.445 57.5346C217.699 58.045 220.87 61.6596 220.911 65.5224V65.6604V65.6742ZM234.46 88.4512V88.3684C234.46 82.2982 230.122 77.7318 223.807 75.7728L222.654 75.4141L223.725 74.8071C227.431 72.6549 229.394 69.5094 229.408 65.1913V65.0258C229.408 61.8251 228.145 58.5693 225.468 56.1274C222.819 53.7131 218.81 52.1128 213.361 52.0714H199.043V101.944H215.818C222.256 101.944 226.924 100.164 229.985 97.5565C233.019 94.9767 234.446 91.6105 234.474 88.4788M239.896 76.7799H292.542V71.9375H282.946V51.8507H246.54L248.325 56.6792H275.094V71.9375H238.153L239.896 76.7799ZM331.432 59.5902C331.432 62.6805 328.481 65.2189 324.802 65.2189C321.123 65.2189 318.171 62.6667 318.171 59.5902C318.171 56.4999 321.123 53.9614 324.802 53.9614C328.481 53.9614 331.432 56.5137 331.432 59.5902ZM338.694 59.5902C338.694 53.52 332.448 48.6638 324.802 48.6638C317.155 48.6638 310.909 53.52 310.909 59.5902C310.909 65.6604 317.169 70.5165 324.802 70.5303C332.448 70.5303 338.694 65.6742 338.694 59.5902ZM331.72 92.2589C331.72 95.4871 328.645 98.1359 324.802 98.1359C320.958 98.1359 317.897 95.4871 317.883 92.2589C317.883 89.0306 320.958 86.3818 324.802 86.3818C328.645 86.3818 331.707 89.0306 331.72 92.2589ZM330.32 81.7326C328.618 81.1808 326.751 80.8635 324.802 80.8635C322.852 80.8635 320.985 81.1808 319.283 81.7326V76.7661H330.334V81.7326H330.32ZM336.662 76.7799H351.337V71.9651H298.321L300.064 76.7799H312.955V85.7472C311.321 87.5821 310.346 89.8308 310.346 92.2589C310.346 98.5774 316.853 103.627 324.815 103.64C332.777 103.64 339.27 98.5774 339.284 92.2589C339.284 89.8308 338.31 87.5821 336.676 85.7472V76.7799H336.662ZM389.376 87.9408H397.242V55.0375H357.13L358.928 59.8661H389.363V87.9408H389.376ZM352.998 97.5427H406.55V92.314H350.843L352.998 97.5427ZM422.556 71.3995H458.454V66.5571H425.864C425.137 66.5571 425.082 65.9777 425.068 65.7983V63.4392H457.41V51.1195H415.514L417.285 55.9618H449.572V59.1073H417.202V65.7569C417.298 68.7369 419.632 71.1787 422.57 71.3995M464 79.2631V74.4208H409.007L410.805 79.2631H432.55V86.2852H440.525V79.2631H464Z" fill="#021D49"/>
        <path d="M75 40V108H142.664V107.917L125.751 91.0034L138.298 78.394L142.664 82.5742V40H75Z" fill="#0091D0"/>
        <path d="M75 73.9931L91.9124 56.9965L75 40V73.9931Z" fill="#009CD8"/>
        <path d="M75 40L91.9124 56.9965L108.825 40H75Z" fill="#0091D0"/>
        <path d="M75 73.9931H108.825L91.9124 56.9966L75 73.9931Z" fill="#0091D0"/>
        <path d="M91.9126 56.9965L108.825 73.9931V40L91.9126 56.9965Z" fill="#0082C9"/>
        <path d="M108.825 40V73.9931L125.751 56.9965L108.825 40Z" fill="#0071BB"/>
        <path d="M142.663 40H108.825L125.751 56.9965L142.663 40Z" fill="#0061AF"/>
        <path d="M108.825 73.9931H142.663L125.751 56.9966L108.825 73.9931Z" fill="#004C98"/>
        <path d="M125.751 56.9965L142.663 73.9931V40L125.751 56.9965Z" fill="#00529C"/>
        <path d="M75 108L91.9124 91.0034L75 73.993V108Z" fill="#0071BB"/>
        <path d="M75 73.993L91.9124 91.0034L108.825 73.993H75Z" fill="#0082C9"/>
        <path d="M75 108H108.825L91.9124 91.0034L75 108Z" fill="#0061AF"/>
        <path d="M91.9126 91.0034L108.825 108V73.993L91.9126 91.0034Z" fill="#00529C"/>
        <path d="M108.825 108L125.751 91.0034L108.825 73.993V108Z" fill="#004C98"/>
        <path d="M142.663 73.993H108.825L125.751 91.0034L142.663 73.993Z" fill="#1D388B"/>
        <path d="M142.664 73.993L138.298 78.3939L142.664 82.5741V73.993Z" fill="#1D388B"/>
        <path d="M108.825 108H142.663V107.917L125.751 91.0034L108.825 108Z" fill="#1D388B"/>
        <path d="M142.663 73.993H108.825L125.751 91.0034L142.663 73.993Z" fill="#1D388B"/>
        <path d="M142.664 73.993L138.298 78.3939L142.664 82.5741V73.993Z" fill="#1D388B"/>
        <path d="M108.825 108H142.663V107.917L125.751 91.0034L108.825 108Z" fill="#1D388B"/>
        <path d="M88.041 94.8801L100.121 107.02L121.056 86.2852L125.751 91.0034L142.663 107.917V82.5741L120.987 61.7837L88.041 94.8801Z" fill="white"/>
    </g>
    <defs>
        <clipPath id="clip0_838_50178">
            <rect width="389" height="68" fill="white" transform="translate(75 40)"/>
        </clipPath>
    </defs>
</svg>
