<svg xmlns="http://www.w3.org/2000/svg" xml:space="preserve" width="1193.3552" height="400" viewBox="0 0 1193.3552 400"><defs><radialGradient id="a" cx="0" cy="0" r="1" fx="0" fy="0" gradientTransform="matrix(104.48816 0 0 -102.02639 532.65 682.58)" gradientUnits="userSpaceOnUse" spreadMethod="pad"><stop offset="0" style="stop-opacity:1;stop-color:#bfdd1c"/><stop offset="1" style="stop-opacity:1;stop-color:#58bf3d"/></radialGradient><radialGradient id="b" cx="0" cy="0" r="1" fx="0" fy="0" gradientTransform="matrix(104.49485 0 0 -102.03293 532.648 683.575)" gradientUnits="userSpaceOnUse" spreadMethod="pad"><stop offset="0" style="stop-opacity:1;stop-color:#f7ed20"/><stop offset="0.45500226" style="stop-opacity:1;stop-color:#f7ed20"/><stop offset="1" style="stop-opacity:1;stop-color:#f3bd19"/></radialGradient><radialGradient id="c" cx="0" cy="0" r="1" fx="0" fy="0" gradientTransform="matrix(104.4915 0 0 -102.02966 532.648 682.58)" gradientUnits="userSpaceOnUse" spreadMethod="pad"><stop offset="0" style="stop-opacity:1;stop-color:#f3b217"/><stop offset="1" style="stop-opacity:1;stop-color:#ea282f"/></radialGradient><radialGradient id="d" cx="0" cy="0" r="1" fx="0" fy="0" gradientTransform="matrix(95.00694 0 0 -92.76855 558.035 662.025)" gradientUnits="userSpaceOnUse" spreadMethod="pad"><stop offset="0" style="stop-opacity:1;stop-color:#65c7df"/><stop offset="0.994382" style="stop-opacity:1;stop-color:#35a6cb"/><stop offset="1" style="stop-opacity:1;stop-color:#35a6cb"/></radialGradient></defs><path d="M538.864 718.32c-9.21-5.925-12.694-15.944-12.636-27.125.07-14.192 9.123-39.033 19.971-62.767 0 0 41.058 4.36 58.457 9.625 17.403 5.27 26.96 16.072 26.96 30.434 0 .154 0 .308-.003.458-.208 7.642-3.138 15.288-8.72 22.735-6.343 8.477-15.774 16.068-27.285 21.917-14.615 7.269-26.723 9.903-36.352 9.903-8.91 0-15.7-2.255-20.391-5.18" style="fill:url(#a);stroke:none;stroke-width:2.14353" transform="matrix(1.56863 0 0 -1.56863 108.086 1217.255)"/><path d="M509.554 618.84c-3.773.118-6.242.236-6.242.22 0-.01 0-.01.023-.022-1.41-.011-3.202-.242-3.76-1.248-.12-.223-.22-.538-.22-1.033 0-1.142.585-3.153 2.898-6.632 3.558-5.157 10.657-13.305 24.282-21.36 15.234-8.75 25.617-10.315 30.393-10.465 4.488.02 5.635 1.046 5.959 1.631.519.94.744 1.98-2.838 6.452-8.88 11.507-15.264 22.24-21.324 32.873-8.634-.893-21.558-.653-29.171-.415" style="fill:url(#b);stroke:none;stroke-width:2.14353" transform="matrix(1.56863 0 0 -1.56863 108.086 1217.255)"/><path d="M492.356 699.823c-7.993-1.762-14.409-9.935-16.184-24.014a64.142 64.142 0 0 1-.443-7.419c0-9.562 2.3-18.175 7.052-26.648 5.117-8.82 10.7-12.953 19.513-14.435 8.805-1.479 25.349-.733 32.279-.087-10.555 20.633-19.373 45.177-20.75 49.41-5.517 16.998-12.256 23.4-19.248 23.4-.738 0-1.477-.07-2.219-.207" style="fill:url(#c);stroke:none;stroke-width:2.14353" transform="matrix(1.56863 0 0 -1.56863 108.086 1217.255)"/><path d="M603.5 626.227c-25.266-3.655-44.926-6.484-53.492-7.035 4.727-9.1 9.443-17.11 14.369-24.2 5.757-7.511 11.367-14.452 27.447-14.855 12.426.013 22.988 3.61 33.195 11.27 11.61 9.098 16.7 19.627 13.305 27.455-2.748 5.914-10.178 8.488-20.897 8.488-4.172 0-8.84-.39-13.927-1.123" style="fill:url(#d);stroke:none;stroke-width:2.14353" transform="matrix(1.56863 0 0 -1.56863 108.086 1217.255)"/><path d="M39.17 664.346h11.046v5.588H39.171v15.716H29.263v-51.256h9.908zM3.27 670.487c2.043 0 3.788-1.029 5.192-3.07 1.424-2.038 2.144-4.524 2.144-7.38 0-2.863-.72-5.345-2.144-7.388-1.404-2.051-3.15-3.087-5.191-3.087-1.987 0-3.726 1.036-5.164 3.091-1.443 2.047-2.174 4.534-2.174 7.385 0 2.842.731 5.328 2.174 7.38 1.438 2.04 3.177 3.07 5.164 3.07m12.072-21.665c3.335 3.101 5.022 6.878 5.022 11.215 0 2.658-.69 5.144-2.045 7.384a17.336 17.336 0 0 1-4.883 5.17h9.505v5.582H8.226v8.253h-9.913v-8.253h-14.718v-5.582h9.447a17.452 17.452 0 0 1-4.821-5.17c-1.36-2.244-2.05-4.73-2.05-7.384 0-4.326 1.7-8.097 5.053-11.215 3.357-3.117 7.41-4.69 12.047-4.69 4.683 0 8.74 1.573 12.072 4.69M41.525 622.015H5.45v17.065h-9.91v-15.373c0-2.273.714-4.077 2.122-5.368 1.38-1.26 3.177-1.905 5.334-1.905h38.53ZM114.11 653.515v5.573h-10.478s2.516 4.204 2.516 11.597v14.966h-46.71v-5.588h36.805v-10.501c0-6.397-1.286-10.474-1.286-10.474H51.195v-5.573H77.7v-12.014H58.478v-5.582H95.95v-19.463h9.908V641.5H87.602v12.014zM157.95 636.718h9.067c1.807 4.086 4.002 13.708 4.002 21.862v25.618h-48.484v-5.576h38.572v-19.924c0-8.306-.936-16.123-3.157-21.98" style="fill:#231f20;fill-opacity:1;fill-rule:nonzero;stroke:none;stroke-width:2.14353" transform="matrix(1.56863 0 0 -1.56863 108.086 1217.255)"/><path d="M117.46 626.198h60.694v5.588h-31.652v29.201h-9.905v-29.201H117.46zM296.201 685.668v-13.761h-14.21v-5.602h14.21v-19.533h9.905v38.896h-.171zM291.856 622.643c-1.674-2.122-3.614-3.153-5.94-3.153-2.287 0-4.285 1.059-5.933 3.153-1.666 2.105-2.508 4.585-2.508 7.38 0 2.785.842 5.297 2.508 7.458 1.652 2.139 3.65 3.22 5.933 3.22 2.29 0 4.287-1.081 5.94-3.22 1.66-2.157 2.499-4.669 2.499-7.458 0-2.8-.838-5.28-2.5-7.38m7.06 18.835c-3.555 3.15-7.925 4.74-12.999 4.74-5.076 0-9.447-1.59-12.992-4.74-3.55-3.123-5.354-6.979-5.354-11.455 0-4.478 1.804-8.338 5.354-11.474 3.563-3.136 7.929-4.722 12.992-4.722 5.065 0 9.44 1.586 12.998 4.718 3.55 3.136 5.35 6.996 5.35 11.478 0 4.48-1.8 8.336-5.35 11.455M331.43 666.099h26.606V651.41h-26.605zm-17.055-34.312v-5.59h60.707v5.59h-25.397v14.04h18.25V684.2h-9.899v-12.493h-26.605V684.2h-9.91v-31.09c0-2.285.671-4.09 2.002-5.363 1.327-1.278 3.181-1.918 5.518-1.918h10.73v-14.04zM413.258 639.724h15.826V632.9h9.91v52.77h-9.91v-40.804h-15.826zM396.14 677.969c1.347 1.65 3 2.486 4.914 2.486 1.914 0 3.571-.836 4.911-2.482 1.385-1.687 2.051-3.76 2.051-6.338 0-2.534-.685-4.66-2.047-6.317-1.365-1.655-3.018-2.487-4.915-2.487-1.897 0-3.554.832-4.915 2.487-1.365 1.652-2.055 3.779-2.055 6.317 0 2.578.67 4.655 2.055 6.334m16.842 3.888c-3.239 2.776-7.245 4.184-11.927 4.184-4.625 0-8.623-1.408-11.886-4.184-3.26-2.8-4.915-6.242-4.915-10.222 0-3.979 1.655-7.389 4.915-10.148 3.246-2.765 7.24-4.162 11.886-4.162 4.692 0 8.707 1.397 11.927 4.162 3.237 2.759 4.883 6.174 4.883 10.148 0 3.98-1.646 7.418-4.883 10.222" style="fill:#231f20;fill-opacity:1;fill-rule:nonzero;stroke:none;stroke-width:2.14353" transform="matrix(1.56863 0 0 -1.56863 108.086 1217.255)"/><path d="M380.126 649.215h15.096v-10.164h9.893v10.164H423.9v5.393h-43.775zM402.034 622.015V635.5h-9.91v-11.776c0-2.29.716-4.094 2.114-5.372 1.395-1.273 3.196-1.918 5.346-1.918h41.54v5.581zM273.435 678.588c0-7.673 1.717-13.234 4.778-17.236 3.406-4.726 8.1-7.093 12.286-8.349l-3.79-4.6-.07.01c-7.578.904-16.876 9.306-18.308 13.874-1.44-4.568-10.74-12.97-18.317-13.875l-.07-.009-3.786 4.6c4.189 1.256 8.881 3.623 12.29 8.35 3.06 4.001 4.775 9.562 4.775 17.235 0 0 0-.272 0 0h-13.17v5.584h36.554v-5.584h-13.18zM211.72 662.625c-5.034 0-9.113 4.446-9.113 9.935 0 5.488 4.08 9.936 9.112 9.936 5.027 0 9.108-4.448 9.108-9.936 0-5.49-4.081-9.935-9.108-9.935m5.2-11.011h-10.406v6.105a24.498 24.498 0 0 1 5.206-.55c1.833 0 3.563.194 5.2.55zm9.916 0v11.618c.624.662 1.21 1.357 1.698 2.102 1.41 2.176 2.126 4.605 2.126 7.23 0 4.283-1.843 7.968-5.483 10.939-3.605 2.982-8.134 4.493-13.457 4.493-5.318 0-9.85-1.511-13.472-4.493-3.629-2.98-5.47-6.66-5.47-10.938 0-2.64.718-5.074 2.133-7.252.488-.767 1.071-1.466 1.697-2.126v-11.573h-16.706v-5.593h63.641v5.593zM211.72 619.49c-4.427 0-8.015 4.17-8.015 9.33 0 5.148 3.588 9.326 8.014 9.326 4.42 0 8.004-4.178 8.004-9.327 0-5.16-3.584-9.328-8.004-9.328m12.771 19.844h-.004c-3.494 2.826-7.785 4.253-12.766 4.253-4.93 0-9.213-1.427-12.73-4.253-3.536-2.846-5.328-6.409-5.328-10.58 0-4.135 1.792-7.682 5.327-10.542 3.511-2.86 7.794-4.306 12.73-4.306 4.989 0 9.282 1.447 12.772 4.306 3.51 2.864 5.29 6.411 5.29 10.542 0 4.171-1.78 7.73-5.29 10.58M9.52 595.61H6.131l-5.168-6.35c-.574-.712-1.26-1.557-1.69-2.119.014.73.044 2.483.044 2.483v5.986h-2.866v-17.32h2.866v5.012c.07.084 2.731 3.233 3.018 3.567.225-.407 4.894-8.578 4.894-8.578h3.331s-6.152 10.78-6.266 10.968c.144.18 5.224 6.351 5.224 6.351M17.34 580.744c-1.92 0-3.069 1.545-3.069 4.145 0 2.448 1.153 4.028 2.948 4.028 1.937 0 3.138-1.571 3.138-4.1 0-2.365-1.267-4.073-3.016-4.073m-.024 10.889c-3.571 0-5.959-2.742-5.959-6.817 0-3.997 2.42-6.79 5.884-6.79 3.608 0 6.03 2.76 6.03 6.863 0 3.968-2.448 6.744-5.955 6.744M31.749 591.633a3.84 3.84 0 0 1-2.789-1.209v.941h-2.89V578.29h2.89v7.448c0 1.415.412 3.102 2.375 3.102.731 0 1.29-.128 1.87-.435l.19-.1.761 2.704-.111.058c-.588.39-1.3.566-2.296.566M40.86 589.038c2.115 0 2.733-1.52 2.866-2.869H38.09c.258 1.85 1.23 2.869 2.77 2.869m.167 2.595c-3.61 0-5.86-2.613-5.86-6.816 0-3.998 2.377-6.79 5.79-6.79 1.881 0 3.34.548 4.59 1.72l.125.118-1.732 1.829-.124-.088c-.95-.695-1.758-.988-2.712-.988-1.655 0-2.782 1.18-3.065 3.157h8.533l.028.264.064 1.042c0 3.978-2.214 6.552-5.637 6.552M53.956 584.286c1.17 0 2.063-.167 2.791-.506v-1.638c-.578-.765-1.706-1.524-2.964-1.524-1.5 0-2.326.695-2.326 1.942 0 1.063.958 1.726 2.5 1.726m.589 7.348c-1.792 0-3.233-.369-4.54-1.168l-.137-.08 1.142-2.19.159.083c.977.54 1.993.78 3.303.78 1.492 0 2.274-.683 2.274-1.984v-.708c-.724.268-1.629.414-2.718.414-3.341 0-5.337-1.604-5.337-4.292 0-3.298 2.514-4.462 4.664-4.462 1.211 0 2.418.49 3.391 1.335v-1.072h2.84v8.905c0 2.818-1.834 4.439-5.041 4.439M72.888 586.128h4.975v2.817h-4.975v3.851h8.557v2.815h-11.49v-17.32h11.859v2.812h-8.926zM98.135 591.633c-1.993 0-3.054-.703-3.972-1.775-.754 1.177-1.918 1.775-3.573 1.775-1.185 0-2.214-.452-2.915-1.209v.941h-2.887V578.29h2.887v7.62c0 2.038.78 3.078 2.328 3.078 1.653 0 2.326-.965 2.326-3.325v-7.373h2.885v7.62c0 2.038.782 3.078 2.328 3.078 1.654 0 2.321-.965 2.321-3.325v-7.373h2.894v7.47c0 3.893-1.556 5.873-4.622 5.873M108.914 587.468c.782.953 1.811 1.52 2.765 1.52 1.852 0 2.754-1.45 2.754-4.438 0-2.578-.891-3.882-2.651-3.882-1.138 0-2.277.804-2.868 1.567zm3.239 4.164c-1.136 0-2.165-.43-3.218-1.296v1.029h-2.861V573.5l2.861 1.458v4.313c.695-.624 1.805-1.243 3.093-1.243 2.44 0 5.29 1.727 5.29 6.593 0 4.454-1.882 7.011-5.165 7.011M120.284 594.94v-16.65h2.89v18.127l-.25-.124zM132.077 580.744c-1.92 0-3.067 1.545-3.067 4.145 0 2.448 1.16 4.028 2.943 4.028 1.942 0 3.146-1.571 3.146-4.1 0-2.365-1.269-4.073-3.022-4.073m-.021 10.889c-3.567 0-5.957-2.742-5.957-6.817 0-3.997 2.413-6.79 5.886-6.79 3.6 0 6.023 2.76 6.023 6.863 0 3.968-2.448 6.744-5.952 6.744M148.668 591.365l-2.242-6.396c-.315-.873-.718-2.19-.984-3.074a53.23 53.23 0 0 1-.99 3.119l-2.167 6.351h-3.162s4.793-12.544 4.834-12.66c-.04-.117-1.938-4.902-1.938-4.902h3.061l6.654 17.562h-.245zM167.36 591.633c-1.994 0-3.049-.703-3.968-1.775-.761 1.177-1.92 1.775-3.578 1.775-1.185 0-2.21-.452-2.915-1.209v.941h-2.894V578.29h2.894v7.62c0 2.038.787 3.078 2.326 3.078 1.654 0 2.325-.965 2.325-3.325v-7.373h2.888v7.62c0 2.038.786 3.078 2.33 3.078 1.65 0 2.317-.965 2.317-3.325v-7.373h2.896v7.47c0 3.893-1.556 5.873-4.622 5.873M180.363 589.038c2.122 0 2.741-1.52 2.874-2.869h-5.64c.258 1.85 1.231 2.869 2.766 2.869m.17 2.595c-3.613 0-5.855-2.613-5.855-6.816 0-3.998 2.377-6.79 5.783-6.79 1.882 0 3.342.548 4.594 1.72l.122.118-1.727 1.829-.123-.088c-.956-.695-1.764-.988-2.715-.988-1.653 0-2.787 1.18-3.061 3.157h8.529l.03.264.06 1.042c0 3.978-2.212 6.552-5.638 6.552M194.972 591.633c-1.228 0-2.373-.482-3.087-1.226v.958h-2.894V578.29h2.894v7.62c0 1.99.879 3.078 2.495 3.078 1.726 0 2.5-1.027 2.5-3.325v-7.373h2.89v7.47c0 3.843-1.658 5.873-4.798 5.873M207.76 580.643c-.795 0-1.162.21-1.162 1.357v6.744h3.215v2.621h-3.215v5.057l-.257-.129-2.583-1.352v-3.576h-1.854v-2.621h1.854v-7.17c0-2.287 1.097-3.548 3.087-3.548.958 0 1.875.215 2.578.605l.078.04.355 2.63-.304-.171c-.422-.244-1.143-.487-1.792-.487M220.094 595.61v-17.32h2.946v17.32h-.18zM232.924 591.633c-1.23 0-2.373-.482-3.086-1.226v.958h-2.89V578.29h2.89v7.62c0 1.99.885 3.078 2.495 3.078 1.727 0 2.497-1.027 2.497-3.325v-7.373h2.89v7.47c0 3.843-1.655 5.873-4.796 5.873M244.995 596.243c-2.206 0-3.462-1.235-3.462-3.37v-1.507h-1.678v-2.669h1.678v-10.406h2.892v10.406h2.396v2.669h-2.396v1.288c0 .804.244 1.063 1.014 1.063.435 0 .862-.066 1.436-.233l.219-.062v2.531l-.127.034c-.57.16-1.31.256-1.972.256M254.44 580.744c-1.92 0-3.074 1.545-3.074 4.145 0 2.448 1.16 4.028 2.948 4.028 1.935 0 3.14-1.571 3.14-4.1 0-2.365-1.269-4.073-3.014-4.073m-.026 10.889c-3.566 0-5.96-2.742-5.96-6.817 0-3.997 2.42-6.79 5.881-6.79 3.61 0 6.03 2.76 6.03 6.863 0 3.968-2.446 6.744-5.95 6.744M268.85 591.633c-1.08 0-2.1-.465-2.797-1.209v.941h-2.883V578.29h2.883v7.448c0 1.415.416 3.102 2.38 3.102.73 0 1.288-.128 1.866-.435l.198-.1.752 2.704-.1.058c-.599.39-1.306.566-2.299.566M286.853 591.633c-1.998 0-3.053-.703-3.977-1.775-.75 1.177-1.918 1.775-3.57 1.775-1.186 0-2.213-.452-2.916-1.209v.941h-2.892V578.29h2.892v7.62c0 2.038.778 3.078 2.324 3.078 1.65 0 2.328-.965 2.328-3.325v-7.373h2.889v7.62c0 2.038.782 3.078 2.324 3.078 1.657 0 2.328-.965 2.328-3.325v-7.373h2.883v7.47c0 3.893-1.552 5.873-4.613 5.873M299.433 584.286c1.173 0 2.06-.167 2.798-.506v-1.638c-.588-.765-1.717-1.524-2.974-1.524-1.502 0-2.327.695-2.327 1.942 0 1.063.962 1.726 2.503 1.726m.59 7.348c-1.799 0-3.24-.369-4.542-1.168l-.133-.08 1.146-2.19.155.083c.975.54 1.993.78 3.299.78 1.492 0 2.283-.683 2.283-1.984v-.708c-.73.268-1.634.414-2.727.414-3.34 0-5.342-1.604-5.342-4.292 0-3.298 2.521-4.462 4.673-4.462 1.205 0 2.412.49 3.396 1.335v-1.072h2.833v8.905c0 2.818-1.835 4.439-5.041 4.439M313.178 580.643c-.791 0-1.16.21-1.16 1.357v6.744h3.207v2.621h-3.207v5.057l-.255-.129-2.591-1.352v-3.576h-1.85v-2.621h1.85v-7.17c0-2.287 1.097-3.548 3.088-3.548.963 0 1.872.215 2.583.605l.073.04.352 2.64-.298-.181c-.418-.244-1.143-.487-1.792-.487M319.922 596.243c-1.01 0-1.826-.809-1.826-1.797 0-.975.817-1.766 1.826-1.766.997 0 1.81.791 1.81 1.766 0 .988-.813 1.797-1.81 1.797M318.47 591.365V578.29h2.893v13.075h-.171ZM330.263 580.744c-1.925 0-3.078 1.545-3.078 4.145 0 2.448 1.16 4.028 2.956 4.028 1.931 0 3.132-1.571 3.132-4.1 0-2.365-1.27-4.073-3.01-4.073m-.03 10.889c-3.558 0-5.957-2.742-5.957-6.817 0-3.997 2.42-6.79 5.882-6.79 3.61 0 6.034 2.76 6.034 6.863 0 3.968-2.454 6.744-5.959 6.744M344.967 591.633c-1.222 0-2.37-.482-3.09-1.226v.958h-2.889V578.29h2.89v7.62c0 1.99.887 3.078 2.503 3.078 1.724 0 2.495-1.027 2.495-3.325v-7.373h2.892v7.47c0 3.843-1.661 5.873-4.801 5.873M366.406 588.619c-3.153.922-3.663 1.477-3.663 2.478 0 1.22 1.018 1.944 2.722 1.944 1.614 0 2.825-.487 3.91-1.575l.12-.123 2.073 2.065-.12.122c-1.694 1.599-3.53 2.349-5.78 2.349-3.47 0-5.89-2.02-5.89-4.898 0-3.052 1.634-4.023 5.535-5.16 2.902-.853 3.785-1.472 3.785-2.653 0-1.55-1.119-2.31-3.408-2.31-1.56 0-3.24.752-4.38 1.963l-.113.126-2.096-2.002.105-.122c1.552-1.775 3.839-2.795 6.283-2.795 4.242 0 6.574 1.884 6.574 5.311 0 3.316-2.564 4.35-5.657 5.28M380.054 589.038c2.118 0 2.738-1.52 2.873-2.869h-5.64c.255 1.85 1.226 2.869 2.767 2.869m.172 2.595c-3.616 0-5.865-2.613-5.865-6.816 0-3.998 2.382-6.79 5.79-6.79 1.888 0 3.348.548 4.593 1.72l.125.118-1.73 1.829-.12-.088c-.952-.695-1.762-.988-2.722-.988-1.653 0-2.776 1.18-3.055 3.157h8.536l.03.29.053 1.016c0 3.978-2.21 6.552-5.635 6.552M394.368 591.633c-1.08 0-2.1-.465-2.793-1.209v.941h-2.891V578.29h2.891v7.448c0 1.415.412 3.102 2.375 3.102.729 0 1.288-.128 1.867-.435l.193-.1.761 2.704-.114.058c-.589.39-1.296.566-2.289.566M407.074 591.365l-2.261-7.033a50.132 50.132 0 0 1-.74-2.486c-.184.669-.473 1.539-.793 2.486l-2.355 7.033h-3.044l4.771-13.075h2.789l4.694 13.075h-.244zM413.999 596.243c-1.01 0-1.83-.809-1.83-1.797 0-.975.82-1.766 1.83-1.766.975 0 1.805.808 1.805 1.766 0 .988-.817 1.797-1.805 1.797M412.542 591.365V578.29h2.89v13.075h-.172zM424.13 588.916c1.09 0 2.003-.448 3.044-1.503l.133-.13 1.726 2.023-.097.107c-1.284 1.492-2.833 2.221-4.726 2.221-3.505 0-5.856-2.752-5.856-6.842 0-3.919 2.43-6.765 5.777-6.765 2.486 0 3.813 1.235 4.788 2.446l.088.111-1.854 1.81-.12-.127c-1.014-1.038-1.693-1.524-2.823-1.524-1.82 0-2.943 1.575-2.943 4.115 0 2.508 1.093 4.058 2.864 4.058M436.519 589.038c2.122 0 2.737-1.52 2.872-2.869h-5.64c.256 1.85 1.227 2.869 2.768 2.869m.171 2.595c-3.612 0-5.852-2.613-5.852-6.816 0-3.998 2.373-6.79 5.777-6.79 1.88 0 3.344.548 4.596 1.72l.122.118-1.73 1.829-.12-.088c-.956-.695-1.762-.988-2.718-.988-1.648 0-2.78 1.18-3.063 3.157h8.536l.025.277.063 1.029c0 3.978-2.21 6.552-5.636 6.552" style="fill:#231f20;fill-opacity:1;fill-rule:nonzero;stroke:none;stroke-width:2.14353" transform="matrix(1.56863 0 0 -1.56863 108.086 1217.255)"/></svg>