<svg xmlns="http://www.w3.org/2000/svg" width="1704.0769mm" height="300mm" viewBox="0 0 1704.0769 300"><defs><linearGradient id="a" x1="0" x2="1" y1="0" y2="0" gradientTransform="translate(-247.307 212.984) scale(116.8119)" gradientUnits="userSpaceOnUse" spreadMethod="pad"><stop offset="0" style="stop-opacity:1;stop-color:#4dc6f4"/><stop offset="0.39999" style="stop-opacity:1;stop-color:#4dc6f4"/><stop offset="1" style="stop-opacity:1;stop-color:#5495d6"/></linearGradient><linearGradient id="b" x1="0" x2="1" y1="0" y2="0" gradientTransform="translate(-247.307 198.112) scale(131.49545)" gradientUnits="userSpaceOnUse" spreadMethod="pad"><stop offset="0" style="stop-opacity:1;stop-color:#f25c19"/><stop offset="1" style="stop-opacity:1;stop-color:#fbc707"/></linearGradient></defs><path d="M-285.828 227.679h6.686v13.913h.101l11.328-13.913h7.04l-12.605 14.428 13.934 17.58h-8.166l-11.531-15.495h-.101v15.494h-6.686V227.68zM-220.652 237.757l-3.645 16.226-5.501-16.226h-3.002l-5.012 16.506-4.137-16.506h-5.366l6.133 21.93h5.055l4.643-14.015 5.157 14.014h5.106l5.372-21.929h-4.803zM-203.45 257.302c-1.847 0-2.995-1.262-2.995-3.295 0-2.614 2.56-4.16 7.61-4.606l.178-.013v1.813c0 3.031-1.647 6.102-4.794 6.102zm4.793-1.046v3.43h5.896v-14.893c0-3.922-1.103-7.549-9.094-7.549-6.342 0-9.725 2.362-9.808 6.825h6.308l.012-.192c.089-1.546.275-4.765 3.435-4.765 2.28 0 3.25 1.351 3.25 4.515v3.897l-.156.004c-3.396.134-13.73.542-13.73 7.273 0 3.078 2.871 5.4 6.677 5.4 4.924 0 7.21-3.947 7.21-3.947zM-176.858 260.203c1.376 0 2.74-.13 4.183-.266l.025-.002v-2.912c-.873.238-1.845.28-2.615.28-2.505 0-3.35-.962-3.35-3.811v-13.35h6.89v-2.384h-6.89v-8.537c-.443.243-5.74 3.146-5.898 3.234v5.303h-4.576v2.384h4.576v14.052c0 5.004 2.928 6.01 7.655 6.01zM-164.213 243.928c.214-1.447 1.096-4.816 4.635-4.816 4.158 0 4.279 4.344 4.279 4.842v.163h-8.943l.028-.189zm6.383 16.275c3.502 0 5.014-.436 7.758-1.496v-1.996c-1.304.441-2.957.918-4.619.918-7.197 0-9.525-7.639-9.525-11.34v-.163h14.606v-.677c0-5.291-3.467-8.205-9.761-8.205-7.127 0-10.74 3.515-10.74 10.45 0 11.29 8.589 12.51 12.28 12.51zM-130.528 242.765v-5.498c-4.309.333-6.432 3.088-8.168 6.053l-.214.349v-5.912h-5.899v21.93h5.899v-9.797c0-5.083 2.357-7.09 8.382-7.125z" style="fill:#155196;fill-opacity:1;fill-rule:nonzero;stroke:none;stroke-width:1.5353" transform="matrix(3.74107 0 0 3.74107 1069.3 -685.896)"/><path d="M-247.307 227.455c16.933-10.489 36.883-16.55 58.223-16.55 21.494 0 41.575 6.15 58.589 16.78v-14.61c-17.252-9.333-36.963-14.673-57.893-14.79-22.26 4.318-42.46 14.486-58.92 28.846v.324z" style="fill:url(#a);stroke:none;stroke-width:1.5353" transform="matrix(3.74107 0 0 3.74107 1069.3 -685.896)"/><path d="M-247.307 212.883v14.248c16.459-14.36 36.658-24.528 58.919-28.846-.23 0-.462-.01-.696-.01-21.04 0-40.865 5.292-58.223 14.608z" style="fill:#155196;fill-opacity:1;fill-rule:nonzero;stroke:none;stroke-width:1.5353" transform="matrix(3.74107 0 0 3.74107 1069.3 -685.896)"/><path d="M-164.274 183.342c-30.327 0-59.17 9.645-83.033 27.475v2.066c17.358-9.316 37.184-14.607 58.223-14.607.234 0 .466.009.696.009a126.718 126.718 0 0 1 24.114-2.312c17.16 0 33.53 3.442 48.462 9.661v-13.582c-15.097-5.629-31.425-8.71-48.462-8.71z" style="fill:url(#b);stroke:none;stroke-width:1.5353" transform="matrix(3.74107 0 0 3.74107 1069.3 -685.896)"/><path d="M-84.504 209.748c0-2.893 1.679-5.162 3.823-5.162 2.18 0 3.823 2.22 3.823 5.162 0 2.945-1.643 5.165-3.823 5.165-2.144 0-3.823-2.268-3.823-5.165zm12.726-.151c0-1.777-.623-3.56-1.741-5.042h4.202v-3.347h-8.607v-4.48h-5.513v4.48h-8.607v3.347h4.203c-1.118 1.482-1.743 3.265-1.743 5.042 0 4.691 4.078 8.652 8.903 8.652s8.903-3.96 8.903-8.652zM-61.244 197.703h-5.32v27.064h5.32v-13.548h4.997v-3.346h-4.997v-10.17zM-79.228 223.127H-84.546v11.032c0 .772.688 1.475 1.443 1.475h22.243v-3.345h-18.368v-9.162zM-24.335 198.934H-49.37v3.346h19.713v10.026h-24.325v3.345h14.45v6.74h-9.838v3.348h19.33v10.102h5.318v-13.45h-9.453v-6.74h14.452v-3.345h-4.613v-13.372zM-12.408 215.468c5.274-.71 10.088-3.117 13.232-6.601 3.137 3.472 7.952 5.88 13.232 6.601l.086.013c.068-.026 2.1-2.579 2.1-2.579l.072-.09-.345-.055c-6.007-.97-12.34-5.152-12.34-10.989v-3.276h-5.562v3.323c0 5.712-6.356 9.901-12.388 10.942l-.34.058 2.101 2.64c.066.027.152.013.152.013zM-16.305 219.125v3.346h14.45v13.37h5.359v-13.37h14.45v-3.346h-34.259zM51.65 197.703h-5.322v38.138h5.321v-22.982h4.997v-3.345H51.65v-11.811zM71.236 200.273c2.034 0 3.25 1.8 3.25 4.811 0 3.014-1.216 4.816-3.25 4.816-2.036 0-3.252-1.802-3.252-4.816 0-3.01 1.216-4.811 3.252-4.811zm0 12.606c4.59 0 8.325-3.495 8.325-7.792 0-4.299-3.735-7.795-8.325-7.795-4.593 0-8.326 3.496-8.326 7.795 0 4.297 3.733 7.792 8.326 7.792zM67.801 223.15h5.358v-5.739h9.385v-3.306H59.68v3.306H67.8v5.738zM72.88 225.155h-5.32v9.004c0 .772.688 1.475 1.446 1.475H91.25v-3.345H72.88v-7.134z" style="fill:#7b7678;fill-opacity:1;fill-rule:nonzero;stroke:none;stroke-width:1.5353" transform="matrix(3.74107 0 0 3.74107 1069.3 -685.896)"/><path d="M78.133 222.945h7.41v3.051h5.322v-28.293h-5.321v21.938h-7.41v3.304zM126.235 198.934H101.201v3.346h19.712v11.984h-6.109v-7.745h-5.41v7.745H96.589v3.347h34.259v-3.347h-4.612v-15.33zM147.269 207.307v-8.53h-5.435v8.53c0 5.936-3.874 11.922-8.887 13.626l-.294.1 2.438 2.492c.076.018.17-.012.17-.012 3.377-1.123 7.18-4.372 9.291-7.924 2.11 3.552 5.911 6.8 9.29 7.924l.095.03c.074-.017 2.437-2.432 2.437-2.432l.075-.078-.293-.099c-5.013-1.704-8.887-7.69-8.887-13.625zM164.68 209.514v-11.811h-5.319v38.138h5.318v-22.875h4.999v-3.452h-4.999zM113.718 233.202c-3.912 0-6.642-2.076-6.642-5.051 0-2.88 2.855-5.05 6.642-5.05 3.785 0 6.641 2.17 6.641 5.05 0 2.975-2.73 5.051-6.64 5.051zm0-13.353c-6.98 0-11.855 3.437-11.855 8.362 0 4.853 4.876 8.243 11.855 8.243 6.976 0 11.853-3.39 11.853-8.243 0-4.925-4.877-8.362-11.853-8.362zM36.61 214.077c-.81-1.789-1.305-3.745-1.395-5.716a15.691 15.691 0 0 1-.017-.643v-4.977h6.725v-3.348H23.04v3.348h6.723v4.977c0 .223-.009.441-.017.658-.101 2.19-.703 4.359-1.68 6.299-2.349 4.393-6.416 6.446-7.39 6.768l2.437 2.492a.383.383 0 0 0 .17-.013c3.395-1.126 7.105-4.357 9.199-7.879 2.015 3.392 5.531 6.51 8.82 7.741a11.198 11.198 0 0 0 .47.17c.074-.017 2.439-2.435 2.439-2.435l.074-.076c-1.477-.54-5.514-2.86-7.677-7.366z" style="fill:#7b7678;fill-opacity:1;fill-rule:nonzero;stroke:none;stroke-width:1.5353" transform="matrix(3.74107 0 0 3.74107 1069.3 -685.896)"/><path d="M-91.352 247.28h1.98v5.485h.035l4.063-5.484h1.995l-4.368 5.663 4.853 6.742h-2.355l-4.188-6.023h-.036v6.023h-1.979v-12.405zM-78.637 259.883c2.517 0 3.793-1.58 3.793-4.474 0-2.896-1.276-4.479-3.793-4.479-2.516 0-3.776 1.583-3.776 4.479 0 2.893 1.26 4.474 3.776 4.474zm-1.798-4.474c0-1.566.198-3.723 1.798-3.723 1.618 0 1.817 2.157 1.817 3.723 0 1.563-.2 3.72-1.817 3.72-1.6 0-1.798-2.157-1.798-3.72zM-72.794 251.13h1.815v2.174h.037c.574-1.15 1.204-2.246 2.768-2.374v1.89c-1.744.053-2.805.647-2.805 2.947v3.92h-1.815v-8.558zM-60.656 258.572a3.787 3.787 0 0 1-1.635.358c-2.572 0-3.326-2.802-3.326-4.493h5.123c0-1.654-.52-3.507-3.29-3.507-2.696 0-3.65 1.726-3.65 4.099 0 3.453 1.907 4.853 4.28 4.853 1.078 0 1.744-.178 2.498-.482v-.828zm-4.907-4.963c.036-.484.305-1.923 1.708-1.923 1.348 0 1.58 1.258 1.58 1.923h-3.288zM-54.256 259.686h1.817v-5.519c0-1.67-.235-3.237-3.02-3.237-2.697 0-3.201 1.35-3.292 2.625h1.907c.072-1.006.27-1.87 1.384-1.87 1.204 0 1.204 1.547 1.204 2.482v.756c-1.132.054-4.783.178-4.783 2.821 0 1.186.99 2.139 2.339 2.139a2.746 2.746 0 0 0 2.409-1.383h.035v1.186zm0-3.003c0 1.457-1.132 2.069-1.761 2.069-.593 0-1.042-.504-1.042-1.277 0-1.582 2.048-1.743 2.803-1.798v1.006zM-45.662 247.28h1.852l1.815 9.745h.036l3.037-9.744h1.53l3.02 9.744h.036l1.833-9.744h1.529l-2.338 12.405h-1.977l-2.985-9.638h-.036l-3.002 9.638h-1.995l-2.355-12.405zM-25.27 259.686h1.814v-5.519c0-1.67-.234-3.237-3.02-3.237-2.698 0-3.2 1.35-3.29 2.625h1.906c.071-1.006.269-1.87 1.384-1.87 1.205 0 1.205 1.547 1.205 2.482v.756c-1.133.054-4.783.178-4.783 2.821 0 1.186.99 2.139 2.337 2.139a2.746 2.746 0 0 0 2.41-1.383h.036v1.186zm0-3.003c0 1.457-1.134 2.069-1.763 2.069-.594 0-1.043-.504-1.043-1.277 0-1.582 2.05-1.743 2.805-1.798v1.006zM-16.337 259.758c-.36.09-.846.125-1.259.125-1.707 0-2.696-.52-2.696-2.174v-5.645h-1.366v-.934h1.366v-2.016l1.816-1.095v3.11h2.337v.935h-2.337v4.926c0 1.258.126 1.869 1.293 1.869.288 0 .595-.035.846-.143v1.042zM-8.374 258.572a3.781 3.781 0 0 1-1.635.358c-2.571 0-3.326-2.802-3.326-4.493h5.123c0-1.654-.52-3.507-3.288-3.507-2.697 0-3.65 1.726-3.65 4.099 0 3.453 1.905 4.853 4.279 4.853 1.078 0 1.742-.178 2.497-.482v-.828zm-4.906-4.963c.035-.484.305-1.923 1.707-1.923 1.348 0 1.582 1.258 1.582 1.923h-3.29zM-6.197 251.13h1.816v2.174h.035c.575-1.15 1.206-2.246 2.77-2.374v1.89c-1.745.053-2.805.647-2.805 2.947v3.92h-1.816v-8.558zM5.236 259.686h1.978v-5.519h.737c1.924 0 2.283 1.15 2.553 2.213l.701 3.306h1.996l-.665-3.217c-.307-1.458-.558-2.698-2.429-3.002v-.035c1.061-.2 2.663-.898 2.663-2.895 0-2.967-2.733-3.255-4.819-3.255H5.236v12.405zm1.978-11.218h.737c1.869 0 2.84.486 2.84 2.156 0 1.96-1.581 2.356-2.84 2.356h-.737v-4.512zM21.272 258.572a3.787 3.787 0 0 1-1.635.358c-2.572 0-3.325-2.802-3.325-4.493h5.123c0-1.654-.522-3.507-3.29-3.507-2.697 0-3.65 1.726-3.65 4.099 0 3.453 1.906 4.853 4.279 4.853 1.079 0 1.743-.178 2.498-.482v-.828zm-4.908-4.963c.037-.484.306-1.923 1.71-1.923 1.347 0 1.58 1.258 1.58 1.923h-3.29zM28.086 252.82c-.61-.416-1.293-.846-2.157-.846-.575 0-1.222.252-1.222.9 0 1.545 3.919 1.689 3.919 4.42 0 1.834-1.438 2.589-3.254 2.589a6.888 6.888 0 0 1-2.283-.377v-1.672c.522.359 1.366.9 2.373.9 1.042 0 1.474-.541 1.474-1.08 0-1.51-3.864-1.815-3.864-4.26 0-1.295.862-2.464 3-2.464.917 0 1.709.252 2.014.343v1.546zM33.894 259.883c2.516 0 3.793-1.58 3.793-4.474 0-2.896-1.277-4.479-3.793-4.479-2.518 0-3.776 1.583-3.776 4.479 0 2.893 1.258 4.474 3.776 4.474zm-1.798-4.474c0-1.566.198-3.723 1.798-3.723 1.617 0 1.815 2.157 1.815 3.723 0 1.563-.198 3.72-1.815 3.72-1.6 0-1.798-2.157-1.798-3.72zM44.914 257.655h-.036c-.287.628-1.096 2.228-2.984 2.228-1.51 0-2.158-1.258-2.158-2.498v-6.256h1.816v5.358c0 1.078.162 2.05 1.08 2.05 1.797 0 2.3-2.805 2.3-3.868v-3.54h1.816v8.557h-1.833v-2.031zM49.408 251.13h1.816v2.174h.036c.575-1.15 1.205-2.246 2.769-2.374v1.89c-1.744.053-2.805.647-2.805 2.947v3.92h-1.816v-8.558zM61.35 259.452c-.738.27-1.511.43-2.284.43-2.715 0-4.297-1.634-4.297-4.817 0-2.552 1.168-4.135 3.632-4.135 2.3 0 3.073 1.224 3.073 2.985h-1.906c0-1.024-.107-2.23-1.24-2.23-1.043 0-1.581 1.224-1.581 2.769 0 2.085.88 4.477 3.073 4.477.522 0 1.025-.125 1.53-.324v.845zM69.205 258.572a3.781 3.781 0 0 1-1.635.358c-2.571 0-3.326-2.802-3.326-4.493h5.122c0-1.654-.52-3.507-3.289-3.507-2.696 0-3.65 1.726-3.65 4.099 0 3.453 1.906 4.853 4.28 4.853 1.078 0 1.742-.178 2.498-.482v-.828zm-4.907-4.963c.035-.484.304-1.923 1.707-1.923 1.348 0 1.582 1.258 1.582 1.923h-3.289zM76.02 252.82c-.612-.416-1.295-.846-2.158-.846-.575 0-1.222.252-1.222.9 0 1.545 3.918 1.689 3.918 4.42 0 1.834-1.438 2.589-3.253 2.589a6.881 6.881 0 0 1-2.284-.377v-1.672c.52.359 1.365.9 2.373.9 1.043 0 1.474-.541 1.474-1.08 0-1.51-3.865-1.815-3.865-4.26 0-1.295.862-2.464 3.003-2.464.916 0 1.707.252 2.014.343v1.546zM91.677 259.092c-.665.396-1.707.79-3.307.79-3.83 0-5.213-3.144-5.213-6.631 0-3.003 1.096-6.167 4.889-6.167 2.768 0 4.136 1.527 4.136 3.56H89.88c0-1.008-.36-2.48-1.996-2.48-2.265 0-2.624 3.037-2.624 4.763 0 2.786.665 5.662 3.434 5.662 1.51 0 2.462-.79 2.983-1.186v1.69zM96.82 259.883c2.517 0 3.793-1.58 3.793-4.474 0-2.896-1.276-4.479-3.793-4.479-2.517 0-3.775 1.583-3.775 4.479 0 2.893 1.258 4.474 3.775 4.474zm-1.798-4.474c0-1.566.197-3.723 1.798-3.723 1.617 0 1.815 2.157 1.815 3.723 0 1.563-.198 3.72-1.815 3.72-1.601 0-1.798-2.157-1.798-3.72zM102.663 251.13h1.815v2.174h.036c.576-1.15 1.205-2.246 2.768-2.374v1.89c-1.742.053-2.804.647-2.804 2.947v3.92h-1.815v-8.558zM108.99 263.533h1.816V258.5h.036c.252.468.773 1.383 2.212 1.383 2.283 0 3.236-1.905 3.236-4.474 0-2.465-.755-4.479-3.236-4.479-1.367 0-1.96 1.027-2.212 1.603h-.036v-1.404h-1.816v12.404zm1.888-8.124c0-1.422.216-3.327 1.709-3.327 1.455 0 1.725 1.905 1.725 3.327 0 1.49-.306 3.431-1.725 3.431-1.566 0-1.71-1.941-1.71-3.431zM121.485 259.883c2.517 0 3.793-1.58 3.793-4.474 0-2.896-1.276-4.479-3.793-4.479-2.517 0-3.775 1.583-3.775 4.479 0 2.893 1.258 4.474 3.775 4.474zm-1.798-4.474c0-1.566.198-3.723 1.798-3.723 1.617 0 1.816 2.157 1.816 3.723 0 1.563-.199 3.72-1.816 3.72-1.6 0-1.798-2.157-1.798-3.72zM127.327 251.13h1.815v2.174h.037c.575-1.15 1.205-2.246 2.77-2.374v1.89c-1.745.053-2.807.647-2.807 2.947v3.92h-1.815v-8.558zM137.542 259.686h1.817v-5.519c0-1.67-.235-3.237-3.02-3.237-2.698 0-3.2 1.35-3.291 2.625h1.905c.073-1.006.27-1.87 1.385-1.87 1.204 0 1.204 1.547 1.204 2.482v.756c-1.133.054-4.783.178-4.783 2.821 0 1.186.99 2.139 2.339 2.139a2.747 2.747 0 0 0 2.409-1.383h.035v1.186zm0-3.003c0 1.457-1.133 2.069-1.761 2.069-.593 0-1.043-.504-1.043-1.277 0-1.582 2.05-1.743 2.804-1.798v1.006zM146.477 259.758c-.359.09-.846.125-1.258.125-1.707 0-2.696-.52-2.696-2.174v-5.645h-1.368v-.934h1.368v-2.016l1.815-1.095v3.11h2.337v.935h-2.337v4.926c0 1.258.126 1.869 1.293 1.869.29 0 .595-.035.846-.143v1.042zM148.312 247.28h1.959v1.798h-1.96v-1.797zm.071 3.85h1.816v8.556h-1.816v-8.557zM156.132 259.883c2.515 0 3.793-1.58 3.793-4.474 0-2.896-1.278-4.479-3.793-4.479-2.517 0-3.775 1.583-3.775 4.479 0 2.893 1.258 4.474 3.775 4.474zm-1.798-4.474c0-1.566.197-3.723 1.798-3.723 1.617 0 1.815 2.157 1.815 3.723 0 1.563-.198 3.72-1.815 3.72-1.601 0-1.798-2.157-1.798-3.72zM161.974 251.13h1.816v2.03h.037c.287-.627 1.114-2.23 3-2.23 1.51 0 2.158 1.26 2.158 2.5v6.256h-1.816v-5.355c0-1.08-.162-2.05-1.078-2.05-1.798 0-2.301 2.804-2.301 3.864v3.541h-1.817v-8.557z" style="fill:#7b7979;fill-opacity:1;fill-rule:nonzero;stroke:none;stroke-width:1.5353" transform="matrix(3.74107 0 0 3.74107 1069.3 -685.896)"/></svg>