<svg xmlns="http://www.w3.org/2000/svg" width="1220.5959pt" height="225pt" viewBox="0 0 1220.5959 225"><path fill="#575f62" d="M-131.447 400.33h43.442v7.584h-44.6c-3.313 0-5.69-.584-7.142-1.758-1.345-1.178-2.03-3.076-2.03-5.69V385.21h10.33zm46.525-22.169h-59.902v-7.718h45.081a42.62 42.62 0 0 0 1.132-5.801c.178-1.82.272-4.168.272-7.07v-7.401h-43.437v-7.6h53.77v13.147c0 3.156-.124 5.812-.347 7.952-.29 2.384-.744 4.636-1.4 6.773h4.83zM-15.66 342.57v21.908h-42.197v8.462h44.105v7.463h-45.012c-3.212 0-5.576-.655-7.115-1.97-1.537-1.253-2.308-3.158-2.308-5.69v-15.74h42.199v-6.965h-42.199v-7.467zm-30.87 53.518V381.94h10.33v14.148h25.275v7.603h-60.672v-7.603zM15.529 360.31h33.103v-6.586H15.529Zm43.432 25.022v23.125h-10.33v-15.404H5.202v-7.721zM15.53 341.699v4.546h33.103V341.7h10.33v26.197h-21.03v4.489h24.509v7.596H1.764v-7.596H27.61v-4.49H14.647c-3.313 0-5.734-.627-7.276-1.888-1.452-1.257-2.17-3.2-2.17-5.803v-18.505zM133.035 408.555H122.71v-67.36h10.325zm-18.961-65.959v7.352h-13.021v15.39c0 8.18 1.789 15.173 5.39 21.012 3.08 4.945 7.207 8.68 12.389 11.198l-6.024 6.1c-4.159-2.384-7.556-5.024-10.218-7.91-3.074-3.325-5.306-7.027-6.707-11.135-1.297 4.008-3.59 7.724-6.84 11.134-2.664 2.8-6.047 5.427-10.157 7.91l-5.235-6.099c4.791-2.564 8.696-6.315 11.67-11.27 3.6-5.892 5.402-12.835 5.402-20.864v-15.466H77.627v-7.352zM166.47 390.533c-2.852 1.348-4.253 3-4.253 4.965 0 1.954 1.4 3.618 4.252 4.968 3.123 1.501 7.363 2.252 12.673 2.252 5.282 0 9.524-.75 12.738-2.252 2.947-1.388 4.422-3.06 4.422-4.968 0-1.964-1.475-3.617-4.422-4.965-3.214-1.5-7.456-2.241-12.738-2.241-5.31 0-9.55.742-12.673 2.24m33.188-5.263c4.658 2.805 6.999 6.208 6.999 10.23 0 3.967-2.341 7.35-7 10.153-5.138 3.128-11.964 4.685-20.514 4.685-8.585 0-15.413-1.557-20.512-4.685-4.571-2.802-6.866-6.186-6.866-10.154 0-4.02 2.295-7.424 6.866-10.229 5.135-3.07 11.974-4.622 20.512-4.622 8.55 0 15.376 1.552 20.515 4.622m9.797-8.597h-60.603v-7.594h19.962v-11.557h10.33v11.557h14.862c.566-2.062.996-4.428 1.27-7.106.283-2.388.419-5.028.419-7.941v-3.859h-43.406v-7.6h53.733v7.217c0 3.22-.158 6.503-.481 9.822-.325 3.785-.79 6.946-1.401 9.467h5.315zM238.398 400.344h41.033v7.596H237.22c-3.323 0-5.678-.59-7.13-1.757-1.35-1.167-2.019-3.077-2.019-5.692v-14.644h10.328zm21.846-50.285H235.04v21.032h33.617v-29.898h10.312v20.52h7.142v7.976h-7.142v20.375h-10.312v-11.631h-35.348c-2.939 0-5.124-.708-6.567-2.165-1.36-1.348-2.03-3.39-2.03-6.082v-27.59h35.533z" style="stroke-width:2.22765" transform="translate(607.766 -730.816) scale(2.14194)"/><path fill="#636466" d="M-131.447 400.33h43.442v7.584h-44.6c-3.313 0-5.69-.584-7.142-1.758-1.345-1.178-2.03-3.076-2.03-5.69V385.21h10.33zm46.525-22.169h-59.902v-7.718h45.081a42.62 42.62 0 0 0 1.132-5.801c.178-1.82.272-4.168.272-7.07v-7.401h-43.437v-7.6h53.77v13.147c0 3.156-.124 5.812-.347 7.952-.29 2.384-.744 4.636-1.4 6.773h4.83zM-15.66 342.57v21.908h-42.197v8.462h44.105v7.463h-45.012c-3.212 0-5.576-.655-7.115-1.97-1.537-1.253-2.308-3.158-2.308-5.69v-15.74h42.199v-6.965h-42.199v-7.467zm-30.87 53.518V381.94h10.33v14.148h25.275v7.603h-60.672v-7.603zM15.529 360.31h33.103v-6.586H15.529Zm43.432 25.022v23.125h-10.33v-15.404H5.202v-7.721zM15.53 341.699v4.546h33.103V341.7h10.33v26.197h-21.03v4.489h24.509v7.596H1.764v-7.596H27.61v-4.49H14.647c-3.313 0-5.734-.627-7.276-1.888-1.452-1.257-2.17-3.2-2.17-5.803v-18.505zM133.035 408.555H122.71v-67.36h10.325zm-18.961-65.959v7.352h-13.021v15.39c0 8.18 1.789 15.173 5.39 21.012 3.08 4.945 7.207 8.68 12.389 11.198l-6.024 6.1c-4.159-2.384-7.556-5.024-10.218-7.91-3.074-3.325-5.306-7.027-6.707-11.135-1.297 4.008-3.59 7.724-6.84 11.134-2.664 2.8-6.047 5.427-10.157 7.91l-5.235-6.099c4.791-2.564 8.696-6.315 11.67-11.27 3.6-5.892 5.402-12.835 5.402-20.864v-15.466H77.627v-7.352zM166.47 390.533c-2.852 1.348-4.253 3-4.253 4.965 0 1.954 1.4 3.618 4.252 4.968 3.123 1.501 7.363 2.252 12.673 2.252 5.282 0 9.524-.75 12.738-2.252 2.947-1.388 4.422-3.06 4.422-4.968 0-1.964-1.475-3.617-4.422-4.965-3.214-1.5-7.456-2.241-12.738-2.241-5.31 0-9.55.742-12.673 2.24m33.188-5.263c4.658 2.805 6.999 6.208 6.999 10.23 0 3.967-2.341 7.35-7 10.153-5.138 3.128-11.964 4.685-20.514 4.685-8.585 0-15.413-1.557-20.512-4.685-4.571-2.802-6.866-6.186-6.866-10.154 0-4.02 2.295-7.424 6.866-10.229 5.135-3.07 11.974-4.622 20.512-4.622 8.55 0 15.376 1.552 20.515 4.622m9.797-8.597h-60.603v-7.594h19.962v-11.557h10.33v11.557h14.862c.566-2.062.996-4.428 1.27-7.106.283-2.388.419-5.028.419-7.941v-3.859h-43.406v-7.6h53.733v7.217c0 3.22-.158 6.503-.481 9.822-.325 3.785-.79 6.946-1.401 9.467h5.315zM238.398 400.344h41.033v7.596H237.22c-3.323 0-5.678-.59-7.13-1.757-1.35-1.167-2.019-3.077-2.019-5.692v-14.644h10.328zm21.846-50.285H235.04v21.032h33.617v-29.898h10.312v20.52h7.142v7.976h-7.142v20.375h-10.312v-11.631h-35.348c-2.939 0-5.124-.708-6.567-2.165-1.36-1.348-2.03-3.39-2.03-6.082v-27.59h35.533z" style="stroke-width:2.22765" transform="translate(607.766 -730.816) scale(2.14194)"/><path fill="#575f62" d="m-131.4 423.68-4.781 8.14 5.595 10.792h-3.372l-3.943-8.136-.945 2.083v6.053h-2.82V423.68h2.82v7.291l3.988-7.291zM-122.901 432.476c0-1.243-.185-2.127-.55-2.63-.346-.482-.932-.722-1.76-.722-.905 0-1.53.234-1.883.697-.356.466-.537 1.283-.537 2.457v5.422c0 1.043.18 1.769.537 2.174.352.413.978.617 1.883.617.86 0 1.45-.225 1.777-.654.357-.448.533-1.281.533-2.484zm2.82 4.202c0 1.918-.35 3.366-1.045 4.373-.829 1.187-2.194 1.782-4.085 1.782-1.954 0-3.326-.513-4.135-1.548-.735-.943-1.105-2.489-1.105-4.652v-3.874c0-1.85.37-3.272 1.105-4.261.876-1.147 2.252-1.718 4.135-1.718 1.675 0 2.956.522 3.842 1.566.86 1.005 1.288 2.386 1.288 4.16zM-115.804 427.044l-.192 2.065c.357-.855.711-1.419 1.067-1.697.504-.392 1.353-.602 2.553-.63v2.784c-.88 0-1.588.07-2.105.218-.474.163-.829.39-1.062.698-.2.256-.343.619-.404 1.087-.049.271-.066.753-.066 1.436v9.577h-2.823v-15.538zM-108.847 432.822v-.766c0-.905.2-1.617.613-2.145.44-.524 1.033-.787 1.79-.787.78 0 1.384.292 1.832.874.405.54.615 1.254.615 2.143v.681zm7.628.328c0-2.108-.417-3.685-1.25-4.736-.869-1.092-2.185-1.633-3.945-1.633-1.664 0-2.965.552-3.91 1.65-.873 1.034-1.305 2.415-1.305 4.146v4.355c0 1.958.428 3.424 1.285 4.393.876 1.007 2.226 1.508 4.05 1.508 1.682 0 2.956-.43 3.825-1.28.833-.812 1.25-1.934 1.25-3.369v-1.116h-2.778v1.225c0 .593-.23 1.103-.68 1.524-.454.45-1.033.673-1.724.673-.742 0-1.332-.276-1.77-.831-.453-.55-.676-1.29-.676-2.221v-2.393h7.628zM-95.626 435.585c-.546.303-.96.606-1.227.911-.234.272-.39.57-.47.891-.056.23-.078.566-.078 1.005l-.03.15c0 .799.085 1.311.255 1.545.225.348.786.521 1.67.521.655 0 1.192-.202 1.613-.614.4-.375.597-.833.597-1.368v-4.088c-.984.379-1.757.722-2.33 1.047m-1.882-3.154h-2.702v-1.085c0-1.495.374-2.618 1.12-3.37.793-.796 2.03-1.195 3.71-1.195 1.93 0 3.258.42 3.985 1.266.588.697.88 1.882.88 3.548v11.016h-2.663v-.935c-.436.492-.937.824-1.51 1.004-.452.125-1.14.192-2.065.192-1.04 0-1.885-.35-2.54-1.047-.614-.657-.917-1.46-.917-2.4v-1.267c0-.942.25-1.753.755-2.424.42-.548 1.076-1.064 1.942-1.548.506-.29 1.005-.555 1.515-.784.296-.13.68-.287 1.147-.477.642-.265 1.045-.476 1.21-.635.227-.22.345-.568.345-1.051 0-.8-.136-1.346-.394-1.635-.272-.319-.809-.479-1.604-.479s-1.363.125-1.704.374c-.34.272-.51.742-.51 1.408zM-67.016 423.68l-3.558 18.932h-3.68l-.308-1.898c-.296-1.84-.534-3.333-.715-4.478a324.596 324.596 0 0 1-.862-6.095 200.156 200.156 0 0 1-.81 5.923 382.132 382.132 0 0 1-.965 6.066l-.06.482h-3.7l-3.558-18.931h2.96l2.455 14.62c.165-1.1.346-2.303.553-3.607.122-.802.316-2.004.575-3.617l1.21-7.396h2.63l1.127 6.266 1.288 8.354 1.74-10.445.733-4.175zM-59.102 432.476c0-1.243-.183-2.127-.55-2.63-.341-.482-.93-.722-1.763-.722-.9 0-1.526.234-1.884.697-.35.466-.53 1.283-.53 2.457v5.422c0 1.043.18 1.769.53 2.174.358.413.984.617 1.884.617.86 0 1.455-.225 1.785-.654.352-.448.528-1.281.528-2.484zm2.824 4.202c0 1.918-.35 3.366-1.044 4.373-.831 1.187-2.2 1.782-4.093 1.782-1.947 0-3.328-.513-4.132-1.548-.735-.943-1.103-2.489-1.103-4.652v-3.874c0-1.85.368-3.272 1.103-4.261.873-1.147 2.248-1.718 4.132-1.718 1.68 0 2.96.522 3.848 1.566.862 1.005 1.29 2.386 1.29 4.16zM-52.01 427.044l-.183 2.065c.352-.855.713-1.419 1.065-1.697.505-.392 1.354-.602 2.557-.63v2.784c-.889 0-1.59.07-2.107.218-.475.163-.833.39-1.063.698-.21.256-.343.619-.41 1.087-.042.271-.062.753-.062 1.436v9.577h-2.818v-15.538zM-38.42 427.075l-3.449 5.874 3.816 9.664h-2.98l-2.778-7.138-1.517 2.934v4.204h-2.818v-18.93h2.818v9.812l3.497-6.42zM-30.345 432.822v-.681c0-.89-.203-1.602-.613-2.143-.439-.582-1.049-.874-1.83-.874-.756 0-1.344.263-1.785.787-.41.528-.62 1.24-.62 2.145v.766zm2.782 2.223h-7.63v2.393c0 .931.232 1.67.682 2.22.439.556 1.03.832 1.764.832.7 0 1.28-.223 1.73-.673.45-.421.672-.931.672-1.524v-1.225h2.782v1.116c0 1.435-.412 2.557-1.247 3.368-.873.851-2.143 1.281-3.82 1.281-1.832 0-3.182-.501-4.05-1.508-.86-.969-1.29-2.435-1.29-4.393v-4.355c0-1.73.434-3.112 1.31-4.146.94-1.098 2.24-1.65 3.905-1.65 1.757 0 3.072.541 3.945 1.633.835 1.051 1.247 2.628 1.247 4.736zM-26.316 427.044v15.538h2.822v-9.577c0-.683.018-1.165.063-1.436.064-.468.205-.831.41-1.087.233-.308.583-.535 1.06-.698.519-.149 1.216-.218 2.107-.218v-2.785c-1.203.03-2.051.239-2.56.63-.35.28-.703.843-1.062 1.698l.183-2.065zM-10.21 431.114c0-1.517-.436-2.63-1.302-3.352-.784-.653-1.943-.98-3.464-.98-1.508 0-2.636.267-3.37.804-.796.581-1.186 1.501-1.186 2.762 0 1.22.205 2.157.61 2.81.408.665 1.219 1.37 2.438 2.113l1.612.914c.954.5 1.537.882 1.754 1.125.325.323.487.815.487 1.48 0 .598-.118 1.01-.363 1.242-.312.303-.946.459-1.895.459-.818 0-1.355-.192-1.611-.568-.205-.306-.303-.905-.303-1.805v-.984h-2.782v.766c0 1.708.412 2.963 1.243 3.76.81.782 2.063 1.174 3.762 1.174 1.586 0 2.79-.36 3.611-1.091.771-.693 1.168-1.671 1.168-2.932 0-1.103-.326-2.02-.967-2.767-.502-.595-1.381-1.227-2.633-1.909l-.453-.243c-1.122-.606-1.87-1.073-2.232-1.414-.599-.535-.897-1.163-.897-1.887 0-.466.122-.82.367-1.043.354-.336.971-.505 1.854-.505.784 0 1.294.169 1.523.505.16.245.245.773.245 1.589v.869h2.785zM-8.958 429.772l-.573-3.212v-2.918h2.304v2.918l-.51 3.212zM9.159 430.512H6.3v-2.442c0-.65-.2-1.178-.595-1.588-.452-.463-1.1-.697-1.96-.697-.83 0-1.47.263-1.916.782-.464.539-.698 1.287-.698 2.24v8.758c0 .91.234 1.648.698 2.192.474.57 1.116.85 1.916.85.801 0 1.43-.273 1.88-.828.45-.561.675-1.359.675-2.393v-1.74h2.858v.765c0 2.054-.348 3.604-1.043 4.635-.846 1.297-2.285 1.947-4.326 1.947-2.14 0-3.629-.643-4.475-1.915-.693-1.063-1.043-2.792-1.043-5.2v-5.529c0-2.259.35-3.938 1.043-5.043.862-1.35 2.3-2.023 4.333-2.023 2.004 0 3.452.557 4.368 1.653.76.902 1.143 2.163 1.143 3.783zM17.72 437.354c0 1.203-.184 2.033-.533 2.481-.328.432-.925.655-1.782.655-.9 0-1.529-.205-1.885-.615-.35-.407-.532-1.131-.532-2.176v-5.42c0-1.176.182-1.994.532-2.46.356-.463.985-.694 1.885-.694.833 0 1.42.238 1.76.721.367.502.554 1.388.554 2.631zm2.82-4.85c0-1.773-.43-3.154-1.288-4.159-.89-1.045-2.172-1.564-3.847-1.564-1.885 0-3.262.57-4.13 1.715-.742.992-1.11 2.41-1.11 4.262v3.876c0 2.16.368 3.71 1.11 4.651.806 1.034 2.183 1.549 4.13 1.549 1.895 0 3.259-.597 4.09-1.785.697-1.004 1.044-2.452 1.044-4.373zM24.328 427.044v1.386c.345-.577.704-.987 1.085-1.239.439-.274.967-.41 1.577-.41.833 0 1.473.136 1.93.41.42.265.719.675.88 1.241.425-.64.795-1.054 1.13-1.24.491-.275 1.273-.41 2.351-.41 1.203 0 2.092.403 2.664 1.218.522.72.78 1.755.78 3.103v11.468H33.94v-10.443c-.008-.972-.073-1.646-.182-2.025-.2-.648-.615-.978-1.221-.978-.92 0-1.515.254-1.789.757-.162.326-.245.92-.245 1.79l.022.175v10.724h-2.9V431.54c0-.829-.071-1.39-.2-1.693-.228-.484-.684-.722-1.384-.722-.77 0-1.272.254-1.503.757-.154.326-.23.92-.23 1.79l.02.175v10.724h-2.782v-15.527zM44.91 432.128c0-.958-.154-1.682-.457-2.178-.332-.553-.853-.827-1.568-.827-.873 0-1.493.172-1.862.506-.43.385-.642 1.1-.642 2.127v6.358c0 .8.216 1.401.662 1.809.41.376.99.568 1.737.568.697 0 1.248-.303 1.63-.896.33-.505.5-1.147.5-1.913zm-4.431-5.108-.098 1.413c.368-.609.74-1.025 1.114-1.261.45-.263 1.096-.39 1.929-.39 1.43 0 2.528.481 3.297 1.457.67.855 1.011 1.967 1.011 3.326v6.787c0 1.232-.356 2.261-1.051 3.09-.798.929-1.891 1.392-3.275 1.392-.951 0-1.65-.144-2.103-.44-.383-.226-.688-.629-.922-1.197v3.553h-2.742v-17.73ZM56.087 432.822v-.681c0-.89-.214-1.602-.617-2.143-.443-.582-1.049-.874-1.83-.874-.756 0-1.35.263-1.787.787-.413.528-.615 1.24-.615 2.145v.766zm2.776 2.223h-7.625v2.393c0 .931.22 1.67.672 2.22.44.556 1.03.832 1.771.832.693 0 1.27-.223 1.722-.673.453-.421.684-.931.684-1.524v-1.225h2.776v1.116c0 1.435-.414 2.557-1.25 3.368-.869.851-2.143 1.281-3.822 1.281-1.825 0-3.177-.501-4.048-1.508-.86-.969-1.288-2.435-1.288-4.393v-4.355c0-1.73.435-3.112 1.306-4.146.944-1.098 2.245-1.65 3.907-1.65 1.76 0 3.076.541 3.945 1.633.836 1.051 1.25 2.628 1.25 4.736zM59.994 427.044v15.547h2.78v-11.225c0-.844.15-1.417.45-1.729.303-.314.892-.472 1.765-.472.826 0 1.38.216 1.67.648.219.328.328.891.328 1.7v11.078h2.78v-12.01c0-1.322-.283-2.278-.835-2.862-.606-.626-1.598-.938-2.99-.938-.942 0-1.64.136-2.087.417-.325.203-.686.637-1.08 1.31v-1.464zM79.71 432.006h-2.78v-.87c0-.816-.087-1.342-.245-1.589-.231-.334-.74-.503-1.53-.503-.882 0-1.502.169-1.851.503-.245.225-.37.577-.37 1.043 0 .724.3 1.354.902 1.889.359.338 1.11.806 2.239 1.414l.448.243c1.25.682 2.127 1.314 2.633 1.91.637.743.962 1.663.962 2.766 0 1.258-.394 2.239-1.17 2.931-.817.729-2.018 1.09-3.608 1.09-1.7 0-2.952-.39-3.765-1.172-.826-.798-1.243-2.052-1.243-3.76v-.767h2.785v.983c0 .9.095 1.501.303 1.806.253.377.793.568 1.612.568.947 0 1.582-.158 1.898-.458.245-.232.363-.646.363-1.241 0-.666-.164-1.16-.487-1.482-.219-.245-.805-.623-1.76-1.125l-1.613-.913c-1.212-.744-2.027-1.45-2.435-2.114-.405-.653-.613-1.588-.613-2.809 0-1.263.397-2.183 1.183-2.762.738-.54 1.865-.807 3.373-.807 1.526 0 2.682.33 3.468.983.867.721 1.301 1.835 1.301 3.352zM85.055 435.585c-.548.303-.96.606-1.227.911-.234.272-.394.57-.47.891-.058.23-.08.566-.08 1.005l-.025.15c0 .799.085 1.311.248 1.545.227.348.79.521 1.673.521.657 0 1.194-.202 1.612-.614.4-.375.6-.833.6-1.368v-4.088c-.985.379-1.758.722-2.33 1.047m-1.885-3.154h-2.702v-1.085c0-1.495.374-2.618 1.125-3.37.788-.796 2.027-1.195 3.704-1.195 1.934 0 3.264.42 3.99 1.266.584.697.875 1.882.875 3.548v11.016h-2.66v-.935c-.436.492-.935.824-1.507 1.004-.453.125-1.143.192-2.07.192-1.038 0-1.882-.35-2.537-1.047-.613-.657-.92-1.46-.92-2.4v-1.267c0-.942.247-1.753.757-2.424.423-.548 1.074-1.064 1.938-1.548.513-.29 1.012-.555 1.52-.784.296-.13.681-.287 1.147-.477.641-.265 1.042-.476 1.207-.635.227-.22.348-.568.348-1.051 0-.8-.139-1.346-.392-1.635-.277-.319-.811-.479-1.607-.479-.793 0-1.358.125-1.702.374-.343.272-.514.742-.514 1.408zM91.976 424.795v3.288h-1.281v2.185h1.28v8.443c0 1.203.223 2.143.658 2.807.463.706 1.143 1.062 2.023 1.062h2.695v-2.223c-.735 0-1.227-.015-1.468-.042-.352-.03-.608-.094-.757-.198-.154-.116-.248-.301-.29-.56-.025-.191-.036-.548-.036-1.091v-8.198h2.368v-2.185H94.8v-3.288zM97.631 442.593h2.82v-15.428h-2.82zm0-16.446h2.82v-2.464h-2.82zM109.146 432.476c0-1.243-.182-2.127-.552-2.63-.339-.482-.925-.722-1.76-.722-.9 0-1.528.234-1.882.697-.359.466-.535 1.283-.535 2.457v5.422c0 1.043.176 1.769.535 2.174.354.413.982.617 1.882.617.856 0 1.455-.225 1.782-.654.354-.448.53-1.281.53-2.484zm2.825 4.202c0 1.918-.352 3.366-1.042 4.373-.838 1.187-2.201 1.782-4.095 1.782-1.95 0-3.328-.513-4.13-1.548-.737-.943-1.107-2.489-1.107-4.652v-3.874c0-1.85.37-3.272 1.107-4.261.878-1.147 2.248-1.718 4.13-1.718 1.678 0 2.96.522 3.845 1.566.858 1.005 1.292 2.386 1.292 4.16zM115.877 427.044v1.464c.394-.673.753-1.107 1.08-1.31.45-.28 1.148-.417 2.088-.417 1.392 0 2.383.312 2.99.938.55.584.837 1.54.837 2.863v12.009h-2.782v-11.078c0-.809-.107-1.372-.328-1.7-.287-.432-.846-.648-1.67-.648-.87 0-1.466.158-1.763.472-.303.312-.452.885-.452 1.729v11.225h-2.78v-15.547zM131.98 428.94c.151.411.372.839.653 1.3.659-.693 1.107-1.259 1.352-1.688.22-.381.332-.789.332-1.219 0-.537-.125-.971-.37-1.288-.236-.305-.515-.458-.84-.458-.434 0-.78.16-1.022.478-.259.352-.39.85-.39 1.506 0 .404.095.86.285 1.368m1.862 10.401c.412-.388.7-.853.878-1.388l-2.526-4.007-.252.28c-.432.515-.724.914-.855 1.221-.232.468-.348 1-.348 1.61 0 .883.174 1.607.532 2.157.321.506.736.76 1.226.76.476 0 .922-.212 1.345-.633m-5.217-5.108c.428-.815 1.09-1.664 2.007-2.555-.537-.769-.922-1.47-1.165-2.087-.247-.66-.37-1.295-.37-1.9 0-1.19.372-2.186 1.125-2.97.75-.8 1.695-1.2 2.838-1.2 1.1 0 2.007.36 2.714 1.073.719.697 1.082 1.582 1.082 2.658 0 .755-.196 1.523-.592 2.292-.433.86-1.157 1.835-2.166 2.936l1.802 2.818.02-.13c.065-.418.112-.757.136-.997.05-.441.063-.878.063-1.315l2.595.216a26.988 26.988 0 0 1-.283 2.576 18.83 18.83 0 0 1-.575 2.334l2.413 4.079h-3.13l-.61-1.423a2.835 2.835 0 0 1-1.468 1.396c-.7.321-1.635.484-2.818.484-1.555 0-2.658-.415-3.306-1.243-.657-.816-.982-2.175-.982-4.077 0-1.08.225-2.067.67-2.965M162.667 423.68l-3.558 18.932h-3.68l-.307-1.898c-.301-1.84-.54-3.333-.718-4.478a291.98 291.98 0 0 1-.857-6.095 225.862 225.862 0 0 1-.813 5.923 425.241 425.241 0 0 1-.97 6.066l-.057.482h-3.7l-3.554-18.931h2.956l2.458 14.62c.16-1.1.347-2.303.55-3.607.125-.802.316-2.004.577-3.617l1.205-7.396h2.635l1.123 6.266 1.288 8.354 1.737-10.445.735-4.175zM165.773 432.822v-.766c0-.905.205-1.617.617-2.145.437-.524 1.03-.787 1.789-.787.777 0 1.388.292 1.824.874.415.54.62 1.254.62 2.143v.681zm7.628.328c0-2.108-.42-3.685-1.248-4.736-.873-1.092-2.188-1.633-3.952-1.633-1.657 0-2.958.552-3.898 1.65-.871 1.034-1.315 2.415-1.315 4.146v4.355c0 1.958.428 3.424 1.29 4.393.876 1.007 2.224 1.508 4.052 1.508 1.673 0 2.95-.43 3.823-1.28.829-.812 1.248-1.934 1.248-3.369v-1.116h-2.778v1.225c0 .593-.228 1.103-.678 1.524-.452.45-1.029.673-1.728.673-.742 0-1.323-.276-1.762-.831-.452-.55-.682-1.29-.682-2.221v-2.393h7.628zM177.27 442.611h-2.823v-18.93h2.823zM181.793 442.6v-12.227h2.437v-2.225h-2.437v-.829c0-.51.047-.83.143-.982.098-.14.314-.216.657-.216l1.637-.067v-2.37c-.479 0-.891-.007-1.227-.023-.21 0-.43-.007-.678-.02H182c-.993 0-1.744.301-2.272.916-.501.595-.755 1.463-.755 2.608v.983h-1.47v2.225h1.47v12.228zM189.146 435.585c-.548.303-.951.606-1.227.911-.234.272-.386.57-.47.891-.054.23-.083.566-.083 1.005l-.015.15c0 .799.078 1.311.238 1.545.234.348.793.521 1.68.521.652 0 1.196-.202 1.615-.614a1.82 1.82 0 0 0 .592-1.368v-4.088c-.984.379-1.757.722-2.33 1.047m-1.887-3.154h-2.7v-1.085c0-1.495.381-2.618 1.123-3.37.8-.796 2.027-1.195 3.707-1.195 1.938 0 3.259.42 3.985 1.266.586.697.882 1.882.882 3.548v11.016h-2.66v-.935a3.319 3.319 0 0 1-1.512 1.004c-.45.125-1.136.192-2.065.192-1.04 0-1.885-.35-2.537-1.047-.609-.657-.923-1.46-.923-2.4v-1.267c0-.942.256-1.753.758-2.424.42-.548 1.076-1.064 1.942-1.548.504-.29 1.01-.555 1.517-.784.301-.13.684-.287 1.145-.477.642-.265 1.043-.476 1.205-.635.234-.22.35-.568.35-1.051 0-.8-.131-1.346-.394-1.635-.27-.319-.802-.479-1.602-.479-.793 0-1.36.125-1.706.374-.343.272-.515.742-.515 1.408zM198.561 427.044l-.182 2.065c.354-.855.708-1.419 1.064-1.697.508-.392 1.355-.602 2.553-.63v2.784c-.884 0-1.586.07-2.1.218-.482.163-.836.39-1.065.698-.21.256-.339.619-.41 1.087-.042.271-.06.753-.06 1.436v9.577h-2.825v-15.538zM210.367 432.822v-.681c0-.89-.202-1.602-.617-2.143-.434-.582-1.049-.874-1.824-.874-.758 0-1.352.263-1.785.787-.412.528-.619 1.24-.619 2.145v.766zm2.783 2.223h-7.628v2.393c0 .931.227 1.67.677 2.22.44.556 1.025.832 1.77.832.696 0 1.273-.223 1.723-.673.45-.421.675-.931.675-1.524v-1.225h2.783v1.116c0 1.435-.417 2.557-1.25 3.368-.869.851-2.14 1.281-3.823 1.281-1.824 0-3.179-.501-4.045-1.508-.862-.969-1.294-2.435-1.294-4.393v-4.355c0-1.73.436-3.112 1.312-4.146.938-1.098 2.243-1.65 3.905-1.65 1.753 0 3.076.541 3.945 1.633.833 1.051 1.25 2.628 1.25 4.736zM228.852 429.413h-2.94v-1.695c0-.755-.114-1.272-.343-1.548-.301-.357-.891-.541-1.751-.541-.938 0-1.57.191-1.892.583-.234.305-.347.851-.347 1.63 0 .409.01.696.038.874.055.25.158.468.31.67.162.206.425.428.8.682.295.21.79.522 1.47.931l.917.54c.954.579 1.615.995 1.983 1.263.563.405.987.79 1.27 1.17.32.425.536.93.67 1.523.138.575.205 1.339.205 2.283 0 1.798-.408 3.099-1.225 3.91-.856.869-2.261 1.305-4.208 1.305-1.92 0-3.273-.392-4.05-1.183-.642-.626-.958-1.624-.958-2.987v-2.546h2.898v2.05c0 .797.116 1.345.35 1.645.314.43.922.635 1.838.635.953 0 1.617-.234 1.98-.692.303-.361.452-.916.452-1.656 0-.909-.21-1.648-.632-2.214-.504-.668-1.546-1.49-3.126-2.482-1.539-.966-2.53-1.721-2.963-2.258-.614-.771-.917-1.847-.917-3.237 0-1.595.403-2.79 1.225-3.587.84-.8 2.107-1.198 3.798-1.198 1.744 0 3.052.263 3.945.793.795.481 1.203 1.152 1.203 2.011zM237.6 432.822v-.681c0-.89-.203-1.602-.615-2.143-.441-.582-1.05-.874-1.831-.874-.753 0-1.346.263-1.785.787-.407.528-.619 1.24-.619 2.145v.766zm2.78 2.223h-7.63v2.393c0 .931.234 1.67.684 2.22.439.556 1.022.832 1.762.832.697 0 1.274-.223 1.726-.673.457-.421.678-.931.678-1.524v-1.225h2.78v1.116c0 1.435-.415 2.557-1.243 3.368-.878.851-2.145 1.281-3.825 1.281-1.831 0-3.179-.501-4.052-1.508-.856-.969-1.288-2.435-1.288-4.393v-4.355c0-1.73.437-3.112 1.314-4.146.938-1.098 2.24-1.65 3.901-1.65 1.76 0 3.072.541 3.95 1.633.828 1.051 1.243 2.628 1.243 4.736zM244.654 427.044l-.187 2.065c.361-.855.709-1.419 1.065-1.697.506-.392 1.355-.602 2.56-.63v2.784c-.891 0-1.595.07-2.105.218-.48.163-.834.39-1.065.698-.205.256-.341.619-.415 1.087-.04.271-.058.753-.058 1.436v9.577h-2.822v-15.538z" style="stroke-width:2.22765" transform="translate(607.766 -730.816) scale(2.14194)"/><path fill="#575f62" d="m258.28 427.02-2.678 15.551h-4.35l-3.22-15.55h2.803l2.54 12.291c.135-1.013.324-2.274.57-3.767.37-2.214.873-5.056 1.508-8.525zM261.348 442.593h-2.82v-15.428h2.82zm0-16.446h-2.82v-2.464h2.82zM269.372 432.341v-.995c0-.756-.18-1.312-.53-1.682-.36-.354-.89-.54-1.587-.54-.75 0-1.294.277-1.621.827-.314.544-.475 1.415-.475 2.62v5.128c0 .815.199 1.483.597 2.005.426.523.974.786 1.667.786.597 0 1.078-.234 1.434-.697.345-.439.515-1.01.515-1.715v-1.226h2.742c0 2.237-.327 3.776-.98 4.612-.695.913-2.005 1.37-3.94 1.37-1.674 0-2.9-.515-3.672-1.549-.76-1.018-1.145-2.606-1.145-4.771v-3.264c0-2.094.374-3.684 1.125-4.77.793-1.13 1.994-1.699 3.61-1.699 1.839 0 3.144.461 3.922 1.39.715.858 1.08 2.246 1.08 4.17zM280.825 432.822v-.681c0-.89-.204-1.602-.614-2.143-.44-.582-1.047-.874-1.83-.874-.757 0-1.351.263-1.79.787-.41.528-.615 1.24-.615 2.145v.766zm2.78 2.223h-7.63v2.393c0 .931.233 1.67.683 2.22.436.556 1.022.832 1.76.832.703 0 1.28-.223 1.73-.673.452-.421.677-.931.677-1.524v-1.225h2.78v1.116c0 1.435-.416 2.557-1.247 3.368-.87.851-2.147 1.281-3.82 1.281-1.834 0-3.181-.501-4.055-1.508-.857-.969-1.283-2.435-1.283-4.393v-4.355c0-1.73.432-3.112 1.308-4.146.942-1.098 2.24-1.65 3.903-1.65 1.76 0 3.076.541 3.947 1.633.831 1.051 1.248 2.628 1.248 4.736z" style="stroke-width:2.22765" transform="translate(607.766 -730.816) scale(2.14194)"/><path fill="#636466" d="m-131.4 423.68-4.781 8.14 5.595 10.792h-3.372l-3.943-8.136-.945 2.083v6.053h-2.82V423.68h2.82v7.291l3.988-7.291zM-122.901 432.476c0-1.243-.185-2.127-.55-2.63-.346-.482-.932-.722-1.76-.722-.905 0-1.53.234-1.883.697-.356.466-.537 1.283-.537 2.457v5.422c0 1.043.18 1.769.537 2.174.352.413.978.617 1.883.617.86 0 1.45-.225 1.777-.654.357-.448.533-1.281.533-2.484zm2.82 4.202c0 1.918-.35 3.366-1.045 4.373-.829 1.187-2.194 1.782-4.085 1.782-1.954 0-3.326-.513-4.135-1.548-.735-.943-1.105-2.489-1.105-4.652v-3.874c0-1.85.37-3.272 1.105-4.261.876-1.147 2.252-1.718 4.135-1.718 1.675 0 2.956.522 3.842 1.566.86 1.005 1.288 2.386 1.288 4.16zM-115.804 427.044l-.192 2.065c.357-.855.711-1.419 1.067-1.697.504-.392 1.353-.602 2.553-.63v2.784c-.88 0-1.588.07-2.105.218-.474.163-.829.39-1.062.698-.2.256-.343.619-.404 1.087-.049.271-.066.753-.066 1.436v9.577h-2.823v-15.538zM-108.847 432.822v-.766c0-.905.2-1.617.613-2.145.44-.524 1.033-.787 1.79-.787.78 0 1.384.292 1.832.874.405.54.615 1.254.615 2.143v.681zm7.628.328c0-2.108-.417-3.685-1.25-4.736-.869-1.092-2.185-1.633-3.945-1.633-1.664 0-2.965.552-3.91 1.65-.873 1.034-1.305 2.415-1.305 4.146v4.355c0 1.958.428 3.424 1.285 4.393.876 1.007 2.226 1.508 4.05 1.508 1.682 0 2.956-.43 3.825-1.28.833-.812 1.25-1.934 1.25-3.369v-1.116h-2.778v1.225c0 .593-.23 1.103-.68 1.524-.454.45-1.033.673-1.724.673-.742 0-1.332-.276-1.77-.831-.453-.55-.676-1.29-.676-2.221v-2.393h7.628zM-95.626 435.585c-.546.303-.96.606-1.227.911-.234.272-.39.57-.47.891-.056.23-.078.566-.078 1.005l-.03.15c0 .799.085 1.311.255 1.545.225.348.786.521 1.67.521.655 0 1.192-.202 1.613-.614.4-.375.597-.833.597-1.368v-4.088c-.984.379-1.757.722-2.33 1.047m-1.882-3.154h-2.702v-1.085c0-1.495.374-2.618 1.12-3.37.793-.796 2.03-1.195 3.71-1.195 1.93 0 3.258.42 3.985 1.266.588.697.88 1.882.88 3.548v11.016h-2.663v-.935c-.436.492-.937.824-1.51 1.004-.452.125-1.14.192-2.065.192-1.04 0-1.885-.35-2.54-1.047-.614-.657-.917-1.46-.917-2.4v-1.267c0-.942.25-1.753.755-2.424.42-.548 1.076-1.064 1.942-1.548.506-.29 1.005-.555 1.515-.784.296-.13.68-.287 1.147-.477.642-.265 1.045-.476 1.21-.635.227-.22.345-.568.345-1.051 0-.8-.136-1.346-.394-1.635-.272-.319-.809-.479-1.604-.479s-1.363.125-1.704.374c-.34.272-.51.742-.51 1.408zM-67.016 423.68l-3.558 18.932h-3.68l-.308-1.898c-.296-1.84-.534-3.333-.715-4.478a324.596 324.596 0 0 1-.862-6.095 200.156 200.156 0 0 1-.81 5.923 382.132 382.132 0 0 1-.965 6.066l-.06.482h-3.7l-3.558-18.931h2.96l2.455 14.62c.165-1.1.346-2.303.553-3.607.122-.802.316-2.004.575-3.617l1.21-7.396h2.63l1.127 6.266 1.288 8.354 1.74-10.445.733-4.175zM-59.102 432.476c0-1.243-.183-2.127-.55-2.63-.341-.482-.93-.722-1.763-.722-.9 0-1.526.234-1.884.697-.35.466-.53 1.283-.53 2.457v5.422c0 1.043.18 1.769.53 2.174.358.413.984.617 1.884.617.86 0 1.455-.225 1.785-.654.352-.448.528-1.281.528-2.484zm2.824 4.202c0 1.918-.35 3.366-1.044 4.373-.831 1.187-2.2 1.782-4.093 1.782-1.947 0-3.328-.513-4.132-1.548-.735-.943-1.103-2.489-1.103-4.652v-3.874c0-1.85.368-3.272 1.103-4.261.873-1.147 2.248-1.718 4.132-1.718 1.68 0 2.96.522 3.848 1.566.862 1.005 1.29 2.386 1.29 4.16zM-52.01 427.044l-.183 2.065c.352-.855.713-1.419 1.065-1.697.505-.392 1.354-.602 2.557-.63v2.784c-.889 0-1.59.07-2.107.218-.475.163-.833.39-1.063.698-.21.256-.343.619-.41 1.087-.042.271-.062.753-.062 1.436v9.577h-2.818v-15.538zM-38.42 427.075l-3.449 5.874 3.816 9.664h-2.98l-2.778-7.138-1.517 2.934v4.204h-2.818v-18.93h2.818v9.812l3.497-6.42zM-30.345 432.822v-.681c0-.89-.203-1.602-.613-2.143-.439-.582-1.049-.874-1.83-.874-.756 0-1.344.263-1.785.787-.41.528-.62 1.24-.62 2.145v.766zm2.782 2.223h-7.63v2.393c0 .931.232 1.67.682 2.22.439.556 1.03.832 1.764.832.7 0 1.28-.223 1.73-.673.45-.421.672-.931.672-1.524v-1.225h2.782v1.116c0 1.435-.412 2.557-1.247 3.368-.873.851-2.143 1.281-3.82 1.281-1.832 0-3.182-.501-4.05-1.508-.86-.969-1.29-2.435-1.29-4.393v-4.355c0-1.73.434-3.112 1.31-4.146.94-1.098 2.24-1.65 3.905-1.65 1.757 0 3.072.541 3.945 1.633.835 1.051 1.247 2.628 1.247 4.736zM-26.316 427.044v15.538h2.822v-9.577c0-.683.018-1.165.063-1.436.064-.468.205-.831.41-1.087.233-.308.583-.535 1.06-.698.519-.149 1.216-.218 2.107-.218v-2.785c-1.203.03-2.051.239-2.56.63-.35.28-.703.843-1.062 1.698l.183-2.065zM-10.21 431.114c0-1.517-.436-2.63-1.302-3.352-.784-.653-1.943-.98-3.464-.98-1.508 0-2.636.267-3.37.804-.796.581-1.186 1.501-1.186 2.762 0 1.22.205 2.157.61 2.81.408.665 1.219 1.37 2.438 2.113l1.612.914c.954.5 1.537.882 1.754 1.125.325.323.487.815.487 1.48 0 .598-.118 1.01-.363 1.242-.312.303-.946.459-1.895.459-.818 0-1.355-.192-1.611-.568-.205-.306-.303-.905-.303-1.805v-.984h-2.782v.766c0 1.708.412 2.963 1.243 3.76.81.782 2.063 1.174 3.762 1.174 1.586 0 2.79-.36 3.611-1.091.771-.693 1.168-1.671 1.168-2.932 0-1.103-.326-2.02-.967-2.767-.502-.595-1.381-1.227-2.633-1.909l-.453-.243c-1.122-.606-1.87-1.073-2.232-1.414-.599-.535-.897-1.163-.897-1.887 0-.466.122-.82.367-1.043.354-.336.971-.505 1.854-.505.784 0 1.294.169 1.523.505.16.245.245.773.245 1.589v.869h2.785zM-8.958 429.772l-.573-3.212v-2.918h2.304v2.918l-.51 3.212zM9.159 430.512H6.3v-2.442c0-.65-.2-1.178-.595-1.588-.452-.463-1.1-.697-1.96-.697-.83 0-1.47.263-1.916.782-.464.539-.698 1.287-.698 2.24v8.758c0 .91.234 1.648.698 2.192.474.57 1.116.85 1.916.85.801 0 1.43-.273 1.88-.828.45-.561.675-1.359.675-2.393v-1.74h2.858v.765c0 2.054-.348 3.604-1.043 4.635-.846 1.297-2.285 1.947-4.326 1.947-2.14 0-3.629-.643-4.475-1.915-.693-1.063-1.043-2.792-1.043-5.2v-5.529c0-2.259.35-3.938 1.043-5.043.862-1.35 2.3-2.023 4.333-2.023 2.004 0 3.452.557 4.368 1.653.76.902 1.143 2.163 1.143 3.783zM17.72 437.354c0 1.203-.184 2.033-.533 2.481-.328.432-.925.655-1.782.655-.9 0-1.529-.205-1.885-.615-.35-.407-.532-1.131-.532-2.176v-5.42c0-1.176.182-1.994.532-2.46.356-.463.985-.694 1.885-.694.833 0 1.42.238 1.76.721.367.502.554 1.388.554 2.631zm2.82-4.85c0-1.773-.43-3.154-1.288-4.159-.89-1.045-2.172-1.564-3.847-1.564-1.885 0-3.262.57-4.13 1.715-.742.992-1.11 2.41-1.11 4.262v3.876c0 2.16.368 3.71 1.11 4.651.806 1.034 2.183 1.549 4.13 1.549 1.895 0 3.259-.597 4.09-1.785.697-1.004 1.044-2.452 1.044-4.373zM24.328 427.044v1.386c.345-.577.704-.987 1.085-1.239.439-.274.967-.41 1.577-.41.833 0 1.473.136 1.93.41.42.265.719.675.88 1.241.425-.64.795-1.054 1.13-1.24.491-.275 1.273-.41 2.351-.41 1.203 0 2.092.403 2.664 1.218.522.72.78 1.755.78 3.103v11.468H33.94v-10.443c-.008-.972-.073-1.646-.182-2.025-.2-.648-.615-.978-1.221-.978-.92 0-1.515.254-1.789.757-.162.326-.245.92-.245 1.79l.022.175v10.724h-2.9V431.54c0-.829-.071-1.39-.2-1.693-.228-.484-.684-.722-1.384-.722-.77 0-1.272.254-1.503.757-.154.326-.23.92-.23 1.79l.02.175v10.724h-2.782v-15.527zM44.91 432.128c0-.958-.154-1.682-.457-2.178-.332-.553-.853-.827-1.568-.827-.873 0-1.493.172-1.862.506-.43.385-.642 1.1-.642 2.127v6.358c0 .8.216 1.401.662 1.809.41.376.99.568 1.737.568.697 0 1.248-.303 1.63-.896.33-.505.5-1.147.5-1.913zm-4.431-5.108-.098 1.413c.368-.609.74-1.025 1.114-1.261.45-.263 1.096-.39 1.929-.39 1.43 0 2.528.481 3.297 1.457.67.855 1.011 1.967 1.011 3.326v6.787c0 1.232-.356 2.261-1.051 3.09-.798.929-1.891 1.392-3.275 1.392-.951 0-1.65-.144-2.103-.44-.383-.226-.688-.629-.922-1.197v3.553h-2.742v-17.73ZM56.087 432.822v-.681c0-.89-.214-1.602-.617-2.143-.443-.582-1.049-.874-1.83-.874-.756 0-1.35.263-1.787.787-.413.528-.615 1.24-.615 2.145v.766zm2.776 2.223h-7.625v2.393c0 .931.22 1.67.672 2.22.44.556 1.03.832 1.771.832.693 0 1.27-.223 1.722-.673.453-.421.684-.931.684-1.524v-1.225h2.776v1.116c0 1.435-.414 2.557-1.25 3.368-.869.851-2.143 1.281-3.822 1.281-1.825 0-3.177-.501-4.048-1.508-.86-.969-1.288-2.435-1.288-4.393v-4.355c0-1.73.435-3.112 1.306-4.146.944-1.098 2.245-1.65 3.907-1.65 1.76 0 3.076.541 3.945 1.633.836 1.051 1.25 2.628 1.25 4.736zM59.994 427.044v15.547h2.78v-11.225c0-.844.15-1.417.45-1.729.303-.314.892-.472 1.765-.472.826 0 1.38.216 1.67.648.219.328.328.891.328 1.7v11.078h2.78v-12.01c0-1.322-.283-2.278-.835-2.862-.606-.626-1.598-.938-2.99-.938-.942 0-1.64.136-2.087.417-.325.203-.686.637-1.08 1.31v-1.464zM79.71 432.006h-2.78v-.87c0-.816-.087-1.342-.245-1.589-.231-.334-.74-.503-1.53-.503-.882 0-1.502.169-1.851.503-.245.225-.37.577-.37 1.043 0 .724.3 1.354.902 1.889.359.338 1.11.806 2.239 1.414l.448.243c1.25.682 2.127 1.314 2.633 1.91.637.743.962 1.663.962 2.766 0 1.258-.394 2.239-1.17 2.931-.817.729-2.018 1.09-3.608 1.09-1.7 0-2.952-.39-3.765-1.172-.826-.798-1.243-2.052-1.243-3.76v-.767h2.785v.983c0 .9.095 1.501.303 1.806.253.377.793.568 1.612.568.947 0 1.582-.158 1.898-.458.245-.232.363-.646.363-1.241 0-.666-.164-1.16-.487-1.482-.219-.245-.805-.623-1.76-1.125l-1.613-.913c-1.212-.744-2.027-1.45-2.435-2.114-.405-.653-.613-1.588-.613-2.809 0-1.263.397-2.183 1.183-2.762.738-.54 1.865-.807 3.373-.807 1.526 0 2.682.33 3.468.983.867.721 1.301 1.835 1.301 3.352zM85.055 435.585c-.548.303-.96.606-1.227.911-.234.272-.394.57-.47.891-.058.23-.08.566-.08 1.005l-.025.15c0 .799.085 1.311.248 1.545.227.348.79.521 1.673.521.657 0 1.194-.202 1.612-.614.4-.375.6-.833.6-1.368v-4.088c-.985.379-1.758.722-2.33 1.047m-1.885-3.154h-2.702v-1.085c0-1.495.374-2.618 1.125-3.37.788-.796 2.027-1.195 3.704-1.195 1.934 0 3.264.42 3.99 1.266.584.697.875 1.882.875 3.548v11.016h-2.66v-.935c-.436.492-.935.824-1.507 1.004-.453.125-1.143.192-2.07.192-1.038 0-1.882-.35-2.537-1.047-.613-.657-.92-1.46-.92-2.4v-1.267c0-.942.247-1.753.757-2.424.423-.548 1.074-1.064 1.938-1.548.513-.29 1.012-.555 1.52-.784.296-.13.681-.287 1.147-.477.641-.265 1.042-.476 1.207-.635.227-.22.348-.568.348-1.051 0-.8-.139-1.346-.392-1.635-.277-.319-.811-.479-1.607-.479-.793 0-1.358.125-1.702.374-.343.272-.514.742-.514 1.408zM91.976 424.795v3.288h-1.281v2.185h1.28v8.443c0 1.203.223 2.143.658 2.807.463.706 1.143 1.062 2.023 1.062h2.695v-2.223c-.735 0-1.227-.015-1.468-.042-.352-.03-.608-.094-.757-.198-.154-.116-.248-.301-.29-.56-.025-.191-.036-.548-.036-1.091v-8.198h2.368v-2.185H94.8v-3.288zM97.631 442.593h2.82v-15.428h-2.82zm0-16.446h2.82v-2.464h-2.82zM109.146 432.476c0-1.243-.182-2.127-.552-2.63-.339-.482-.925-.722-1.76-.722-.9 0-1.528.234-1.882.697-.359.466-.535 1.283-.535 2.457v5.422c0 1.043.176 1.769.535 2.174.354.413.982.617 1.882.617.856 0 1.455-.225 1.782-.654.354-.448.53-1.281.53-2.484zm2.825 4.202c0 1.918-.352 3.366-1.042 4.373-.838 1.187-2.201 1.782-4.095 1.782-1.95 0-3.328-.513-4.13-1.548-.737-.943-1.107-2.489-1.107-4.652v-3.874c0-1.85.37-3.272 1.107-4.261.878-1.147 2.248-1.718 4.13-1.718 1.678 0 2.96.522 3.845 1.566.858 1.005 1.292 2.386 1.292 4.16zM115.877 427.044v1.464c.394-.673.753-1.107 1.08-1.31.45-.28 1.148-.417 2.088-.417 1.392 0 2.383.312 2.99.938.55.584.837 1.54.837 2.863v12.009h-2.782v-11.078c0-.809-.107-1.372-.328-1.7-.287-.432-.846-.648-1.67-.648-.87 0-1.466.158-1.763.472-.303.312-.452.885-.452 1.729v11.225h-2.78v-15.547zM131.98 428.94c.151.411.372.839.653 1.3.659-.693 1.107-1.259 1.352-1.688.22-.381.332-.789.332-1.219 0-.537-.125-.971-.37-1.288-.236-.305-.515-.458-.84-.458-.434 0-.78.16-1.022.478-.259.352-.39.85-.39 1.506 0 .404.095.86.285 1.368m1.862 10.401c.412-.388.7-.853.878-1.388l-2.526-4.007-.252.28c-.432.515-.724.914-.855 1.221-.232.468-.348 1-.348 1.61 0 .883.174 1.607.532 2.157.321.506.736.76 1.226.76.476 0 .922-.212 1.345-.633m-5.217-5.108c.428-.815 1.09-1.664 2.007-2.555-.537-.769-.922-1.47-1.165-2.087-.247-.66-.37-1.295-.37-1.9 0-1.19.372-2.186 1.125-2.97.75-.8 1.695-1.2 2.838-1.2 1.1 0 2.007.36 2.714 1.073.719.697 1.082 1.582 1.082 2.658 0 .755-.196 1.523-.592 2.292-.433.86-1.157 1.835-2.166 2.936l1.802 2.818.02-.13c.065-.418.112-.757.136-.997.05-.441.063-.878.063-1.315l2.595.216a26.988 26.988 0 0 1-.283 2.576 18.83 18.83 0 0 1-.575 2.334l2.413 4.079h-3.13l-.61-1.423a2.835 2.835 0 0 1-1.468 1.396c-.7.321-1.635.484-2.818.484-1.555 0-2.658-.415-3.306-1.243-.657-.816-.982-2.175-.982-4.077 0-1.08.225-2.067.67-2.965M162.667 423.68l-3.558 18.932h-3.68l-.307-1.898c-.301-1.84-.54-3.333-.718-4.478a291.98 291.98 0 0 1-.857-6.095 225.862 225.862 0 0 1-.813 5.923 425.241 425.241 0 0 1-.97 6.066l-.057.482h-3.7l-3.554-18.931h2.956l2.458 14.62c.16-1.1.347-2.303.55-3.607.125-.802.316-2.004.577-3.617l1.205-7.396h2.635l1.123 6.266 1.288 8.354 1.737-10.445.735-4.175zM165.773 432.822v-.766c0-.905.205-1.617.617-2.145.437-.524 1.03-.787 1.789-.787.777 0 1.388.292 1.824.874.415.54.62 1.254.62 2.143v.681zm7.628.328c0-2.108-.42-3.685-1.248-4.736-.873-1.092-2.188-1.633-3.952-1.633-1.657 0-2.958.552-3.898 1.65-.871 1.034-1.315 2.415-1.315 4.146v4.355c0 1.958.428 3.424 1.29 4.393.876 1.007 2.224 1.508 4.052 1.508 1.673 0 2.95-.43 3.823-1.28.829-.812 1.248-1.934 1.248-3.369v-1.116h-2.778v1.225c0 .593-.228 1.103-.678 1.524-.452.45-1.029.673-1.728.673-.742 0-1.323-.276-1.762-.831-.452-.55-.682-1.29-.682-2.221v-2.393h7.628zM177.27 442.611h-2.823v-18.93h2.823zM181.793 442.6v-12.227h2.437v-2.225h-2.437v-.829c0-.51.047-.83.143-.982.098-.14.314-.216.657-.216l1.637-.067v-2.37c-.479 0-.891-.007-1.227-.023-.21 0-.43-.007-.678-.02H182c-.993 0-1.744.301-2.272.916-.501.595-.755 1.463-.755 2.608v.983h-1.47v2.225h1.47v12.228zM189.146 435.585c-.548.303-.951.606-1.227.911-.234.272-.386.57-.47.891-.054.23-.083.566-.083 1.005l-.015.15c0 .799.078 1.311.238 1.545.234.348.793.521 1.68.521.652 0 1.196-.202 1.615-.614a1.82 1.82 0 0 0 .592-1.368v-4.088c-.984.379-1.757.722-2.33 1.047m-1.887-3.154h-2.7v-1.085c0-1.495.381-2.618 1.123-3.37.8-.796 2.027-1.195 3.707-1.195 1.938 0 3.259.42 3.985 1.266.586.697.882 1.882.882 3.548v11.016h-2.66v-.935a3.319 3.319 0 0 1-1.512 1.004c-.45.125-1.136.192-2.065.192-1.04 0-1.885-.35-2.537-1.047-.609-.657-.923-1.46-.923-2.4v-1.267c0-.942.256-1.753.758-2.424.42-.548 1.076-1.064 1.942-1.548.504-.29 1.01-.555 1.517-.784.301-.13.684-.287 1.145-.477.642-.265 1.043-.476 1.205-.635.234-.22.35-.568.35-1.051 0-.8-.131-1.346-.394-1.635-.27-.319-.802-.479-1.602-.479-.793 0-1.36.125-1.706.374-.343.272-.515.742-.515 1.408zM198.561 427.044l-.182 2.065c.354-.855.708-1.419 1.064-1.697.508-.392 1.355-.602 2.553-.63v2.784c-.884 0-1.586.07-2.1.218-.482.163-.836.39-1.065.698-.21.256-.339.619-.41 1.087-.042.271-.06.753-.06 1.436v9.577h-2.825v-15.538zM210.367 432.822v-.681c0-.89-.202-1.602-.617-2.143-.434-.582-1.049-.874-1.824-.874-.758 0-1.352.263-1.785.787-.412.528-.619 1.24-.619 2.145v.766zm2.783 2.223h-7.628v2.393c0 .931.227 1.67.677 2.22.44.556 1.025.832 1.77.832.696 0 1.273-.223 1.723-.673.45-.421.675-.931.675-1.524v-1.225h2.783v1.116c0 1.435-.417 2.557-1.25 3.368-.869.851-2.14 1.281-3.823 1.281-1.824 0-3.179-.501-4.045-1.508-.862-.969-1.294-2.435-1.294-4.393v-4.355c0-1.73.436-3.112 1.312-4.146.938-1.098 2.243-1.65 3.905-1.65 1.753 0 3.076.541 3.945 1.633.833 1.051 1.25 2.628 1.25 4.736zM228.852 429.413h-2.94v-1.695c0-.755-.114-1.272-.343-1.548-.301-.357-.891-.541-1.751-.541-.938 0-1.57.191-1.892.583-.234.305-.347.851-.347 1.63 0 .409.01.696.038.874.055.25.158.468.31.67.162.206.425.428.8.682.295.21.79.522 1.47.931l.917.54c.954.579 1.615.995 1.983 1.263.563.405.987.79 1.27 1.17.32.425.536.93.67 1.523.138.575.205 1.339.205 2.283 0 1.798-.408 3.099-1.225 3.91-.856.869-2.261 1.305-4.208 1.305-1.92 0-3.273-.392-4.05-1.183-.642-.626-.958-1.624-.958-2.987v-2.546h2.898v2.05c0 .797.116 1.345.35 1.645.314.43.922.635 1.838.635.953 0 1.617-.234 1.98-.692.303-.361.452-.916.452-1.656 0-.909-.21-1.648-.632-2.214-.504-.668-1.546-1.49-3.126-2.482-1.539-.966-2.53-1.721-2.963-2.258-.614-.771-.917-1.847-.917-3.237 0-1.595.403-2.79 1.225-3.587.84-.8 2.107-1.198 3.798-1.198 1.744 0 3.052.263 3.945.793.795.481 1.203 1.152 1.203 2.011zM237.6 432.822v-.681c0-.89-.203-1.602-.615-2.143-.441-.582-1.05-.874-1.831-.874-.753 0-1.346.263-1.785.787-.407.528-.619 1.24-.619 2.145v.766zm2.78 2.223h-7.63v2.393c0 .931.234 1.67.684 2.22.439.556 1.022.832 1.762.832.697 0 1.274-.223 1.726-.673.457-.421.678-.931.678-1.524v-1.225h2.78v1.116c0 1.435-.415 2.557-1.243 3.368-.878.851-2.145 1.281-3.825 1.281-1.831 0-3.179-.501-4.052-1.508-.856-.969-1.288-2.435-1.288-4.393v-4.355c0-1.73.437-3.112 1.314-4.146.938-1.098 2.24-1.65 3.901-1.65 1.76 0 3.072.541 3.95 1.633.828 1.051 1.243 2.628 1.243 4.736zM244.654 427.044l-.187 2.065c.361-.855.709-1.419 1.065-1.697.506-.392 1.355-.602 2.56-.63v2.784c-.891 0-1.595.07-2.105.218-.48.163-.834.39-1.065.698-.205.256-.341.619-.415 1.087-.04.271-.058.753-.058 1.436v9.577h-2.822v-15.538z" style="stroke-width:2.22765" transform="translate(607.766 -730.816) scale(2.14194)"/><path fill="#636466" d="m258.28 427.02-2.678 15.551h-4.35l-3.22-15.55h2.803l2.54 12.291c.135-1.013.324-2.274.57-3.767.37-2.214.873-5.056 1.508-8.525zM261.348 442.593h-2.82v-15.428h2.82zm0-16.446h-2.82v-2.464h2.82zM269.372 432.341v-.995c0-.756-.18-1.312-.53-1.682-.36-.354-.89-.54-1.587-.54-.75 0-1.294.277-1.621.827-.314.544-.475 1.415-.475 2.62v5.128c0 .815.199 1.483.597 2.005.426.523.974.786 1.667.786.597 0 1.078-.234 1.434-.697.345-.439.515-1.01.515-1.715v-1.226h2.742c0 2.237-.327 3.776-.98 4.612-.695.913-2.005 1.37-3.94 1.37-1.674 0-2.9-.515-3.672-1.549-.76-1.018-1.145-2.606-1.145-4.771v-3.264c0-2.094.374-3.684 1.125-4.77.793-1.13 1.994-1.699 3.61-1.699 1.839 0 3.144.461 3.922 1.39.715.858 1.08 2.246 1.08 4.17zM280.825 432.822v-.681c0-.89-.204-1.602-.614-2.143-.44-.582-1.047-.874-1.83-.874-.757 0-1.351.263-1.79.787-.41.528-.615 1.24-.615 2.145v.766zm2.78 2.223h-7.63v2.393c0 .931.233 1.67.683 2.22.436.556 1.022.832 1.76.832.703 0 1.28-.223 1.73-.673.452-.421.677-.931.677-1.524v-1.225h2.78v1.116c0 1.435-.416 2.557-1.247 3.368-.87.851-2.147 1.281-3.82 1.281-1.834 0-3.181-.501-4.055-1.508-.857-.969-1.283-2.435-1.283-4.393v-4.355c0-1.73.432-3.112 1.308-4.146.942-1.098 2.24-1.65 3.903-1.65 1.76 0 3.076.541 3.947 1.633.831 1.051 1.248 2.628 1.248 4.736z" style="stroke-width:2.22765" transform="translate(607.766 -730.816) scale(2.14194)"/><path fill="#00a1b1" d="M-267.262 344.615c-1.68.485-3.108 1.038-4.24 1.62-3.466 1.652-6.21 4.541-7.574 8.112-6.117 13.571-6.217 63.04-.34 77.946.207.668.458 1.3.76 1.938 14.806-21.033 34.525-59.064 11.394-89.616M-254.166 445.18c18.799 2.073 45.524 1.106 56.845-2.953 5.148-1.383 9.182-5.357 10.586-10.4 1.265-3.472 2.243-8.597 2.936-14.641-13.346-1.005-44.511.216-70.367 27.995" style="stroke-width:2.22765" transform="translate(607.766 -730.816) scale(2.14194)"/><path fill="#00a1b1" d="M-216.63 395.283c7.63.434 14.173-5.395 14.619-13.023.434-7.645-5.393-14.172-13.023-14.622-7.639-.435-14.175 5.39-14.625 13.02-.434 7.63 5.391 14.16 13.03 14.625m-48.438 48.095a42.928 42.928 0 0 1-4.09-1.18 16.174 16.174 0 0 1-2.965-1.206c35.685-45.662 36.268-79.801 31.17-99.665 17.711-.617 37.404.902 45.392 4.558 4.181 1.702 7.414 5.172 8.712 9.48 3.166 8.25 4.55 26.51 4.202 43.623-39.947-.35-69.049 28.115-82.421 44.39" style="stroke-width:2.22765" transform="translate(607.766 -730.816) scale(2.14194)"/></svg>