<svg xmlns="http://www.w3.org/2000/svg" width="726mm" height="340mm" viewBox="0 0 726 340"><defs><clipPath id="a" clipPathUnits="userSpaceOnUse"><path d="M657.448 115.531h39.448V43.969h-39.448z"/></clipPath><clipPath id="b" clipPathUnits="userSpaceOnUse"><path d="M604.019 100.179h48.918V43.888h-48.918z"/></clipPath><clipPath id="c" clipPathUnits="userSpaceOnUse"><path d="M451.44 127.687h22.973v-83.8H451.44Z"/></clipPath><clipPath id="d" clipPathUnits="userSpaceOnUse"><path d="M483.466 100.203h48.212V43.888h-48.212z"/></clipPath><clipPath id="e" clipPathUnits="userSpaceOnUse"><path d="M389.177 100.291h51.037v-83.18h-51.037z"/></clipPath><clipPath id="f" clipPathUnits="userSpaceOnUse"><path d="M542.417 100.072h50.45V45.125h-50.45z"/></clipPath></defs><g style="stroke-width:.268183"><g style="stroke-width:.268183"><path d="M0 0c-8.278 3.873-15.088 6.997-15.088 13.326 0 4.836 3.886 8.34 11.527 8.34 2.811 0 5.11-.312 7.484-.75 1.25-.218 2.58-.405 3.668-.405 6.672 0 10.433 3.979 12.932 11.54l1.05 3.079c-1.081.456-11.971 5.229-26.197 5.229-22.616 0-34.561-14.506-34.548-29.55 0-7.604 2.374-13.102 6.091-17.444 4.798-5.56 11.62-9.234 18.024-12.345 9.328-4.574 17.743-7.947 17.743-14.719 0-6.017-6.197-9.447-14.525-9.447-11.396 0-21.317 6.51-22.617 7.303l-9.339-17.536c1.673-.932 13.7-8.578 33.518-8.578 21.11.03 37.129 12.12 37.129 30.744C26.852-12.683 11.995-5.798 0 0" style="fill:#e31837;fill-opacity:1;fill-rule:nonzero;stroke:none;stroke-width:.268183" transform="matrix(1.31744 0 0 -1.31343 57.697 224.495)"/></g><g style="stroke-width:.268183"><path d="m0 0 38.285 46.963H11.002L-19.555 6.435h-.438v40.528h-22.504v-99.481h1.356c9.715 0 21.292 4.499 21.292 20.755v22.835h.469L11.745-51.28h28.632z" style="fill:#e31837;fill-opacity:1;fill-rule:nonzero;stroke:none;stroke-width:.268183" transform="matrix(1.31744 0 0 -1.31343 166.51 235.851)"/></g><g style="stroke-width:.268183"><path d="M0 0c-7.935-1.487-19.649-8.685-19.643-21.38.026-11.558 9.478-18.556 9.509-33.693.044-11.37-6.222-19.024-13.013-23.278 2.749.244 5.748.393 9.046.413 6.935.025 11.102-.645 11.371-.694l35.518 43.614C22.929-20.256 11.401-8.803 0 0" style="fill:#e31837;fill-opacity:1;fill-rule:nonzero;stroke:none;stroke-width:.268183" transform="matrix(1.31744 0 0 -1.31343 218.651 34.219)"/></g><g style="stroke-width:.268183"><path d="M0 0c4.479 6.973 5.042 18.057 5.398 29.37.437 10.527 2.624 18.468 16.731 18.519 3.137 0 6.104-.425 11.496-.388 20.66.074 34.155 7.191 42.527 11.87C59.021 70.286 34 81.45 2.949 82.719c-2.018-5.724-17.737-49.456-18.93-52.987.187-.212 2.936-3.304 6.354-9.334C-4.536 12.14-1.799 5.117 0 0" style="fill:#e31837;fill-opacity:1;fill-rule:nonzero;stroke:none;stroke-width:.268183" transform="matrix(1.31744 0 0 -1.31343 257.962 188.858)"/></g><g style="stroke-width:.268183"><path d="M0 0c-1.774-.007-2.674 1.18-2.93 3.242-.225 2.062-9.109 83.343-10.427 95.651-.2 1.805-.637 5.097-.637 6.272-.019 1.881 1.23 2.881 2.667 2.881 4.217.024 27.171-5.361 51.505-22.429-7.022-1.974-19.717-9.26-19.649-24.372.056-13.37 9.628-20.724 9.678-34.156C30.282 5.272 5.198 0 0 0" style="fill:#f58025;fill-opacity:1;fill-rule:nonzero;stroke:none;stroke-width:.268183" transform="matrix(1.31744 0 0 -1.31343 159.085 141.911)"/></g><g style="stroke-width:.268183"><path d="M0 0c.381-1.03.737-1.874 1.1-2.475.574-.949 1.293-1.386 2.187-1.367.574 0 1.28.187 2.024.53 1.88.863 76.07 35.393 87.26 40.56 1.599.787 4.692 2.149 5.71 2.743 1.031.606 1.531 1.481 1.531 2.367 0 .494-.157 1-.438 1.462-1.393 2.256-8.578 9.86-20.573 18.205-9.528-5.266-24.409-13.37-46.545-13.468-5.416 0-6.653.361-10.352.361-10.808-.056-13.494-4.673-13.888-14.132-.075-1.787-.106-4.223-.219-6.847C7.473 19.468 6.46 7.803 0 0" style="fill:#f58025;fill-opacity:1;fill-rule:nonzero;stroke:none;stroke-width:.268183" transform="matrix(1.31744 0 0 -1.31343 260.645 196.447)"/></g><g style="stroke-width:.268183"><g clip-path="url(#a)" style="stroke-width:.268183" transform="matrix(1.31744 0 0 -1.31343 -192.12 362.473)"><g style="stroke-width:.268183"><path d="M0 0v26.74h11.489l4.036 10.34H0v16.169s-1.231.018-1.28 0c-6.136 0-12.465-2.6-12.465-16.02v-.149h-10.177V26.74h10.177V-4.767c0-8.896 5.273-13.539 12.764-13.539 6.06 0 13.87 1.838 13.87 13.839-.5-.305-3.424-2.199-6.642-2.199C1.756-6.666 0-3.93 0 0" style="fill:#f58025;fill-opacity:1;fill-rule:nonzero;stroke:none;stroke-width:.268183" transform="translate(681.37 62.274)"/></g></g></g><g style="stroke-width:.268183"><g clip-path="url(#b)" style="stroke-width:.268183" transform="matrix(1.31744 0 0 -1.31343 -192.12 362.473)"><g style="stroke-width:.268183"><path d="M0 0c-13.146 0-24.254-10.684-24.254-28.195 0-17.925 10.759-28.096 26.84-28.096 12.802 0 19.405 5.579 20.229 6.079 0 0-1.261 2.043-1.618 2.606-1.767 2.929-3.829 3.892-6.085 3.892-4.529 0-5.123-1.899-11.239-1.899-10.52 0-14.182 8.216-14.432 13.675h35.224v4.092C24.665-11.064 14.987 0 0 0m-10.584-22.186c0 6.154 4.336 11.877 10.378 11.877 6.784 0 10.514-5.872 10.614-11.877z" style="fill:#f58025;fill-opacity:1;fill-rule:nonzero;stroke:none;stroke-width:.268183" transform="translate(628.273 100.179)"/></g></g></g><g style="stroke-width:.268183"><g clip-path="url(#c)" style="stroke-width:.268183" transform="matrix(1.31744 0 0 -1.31343 -192.12 362.473)"><g style="stroke-width:.268183"><path d="M0 0v56.172c0 6.335-4.241 11.239-10.801 11.239h-2.949V-5.504c0-6.717 4.167-10.884 11.396-10.884 8.92 0 11.577 6.348 11.577 12.308-.357-.187-2.249-.962-4.156-.962C1.888-5.042 0-3.193 0 0" style="fill:#f58025;fill-opacity:1;fill-rule:nonzero;stroke:none;stroke-width:.268183" transform="translate(465.19 60.275)"/></g></g></g><g style="stroke-width:.268183"><g clip-path="url(#d)" style="stroke-width:.268183" transform="matrix(1.31744 0 0 -1.31343 -192.12 362.473)"><g style="stroke-width:.268183"><path d="M0 0c.969-2.474 3.28-5.397 8.091-5.397 2.544 0 5.83.662 6.347.875-.387 1.561-1.642 5.779-1.642 15.244V29.62c0 14.032-9.047 20.061-23.01 20.061-11.765 0-20.142-5.623-21.11-6.285l.949-1.674c1.149-1.999 2.212-4.936 5.647-4.936 3.437 0 6.374 2.617 12.895 2.617 7.179 0 10.678-3.466 10.678-8.764v-1.931h-4.53c-18.399 0-28.088-7.109-28.088-18.519 0-10.083 7.709-16.824 18.311-16.824C-5.322-6.635-.874-.743 0 0m-1.155 8.147c-.874-.494-4.561-3.83-10.065-3.83-4.748 0-8.36 2.874-8.36 7.622 0 4.03 3.892 7.516 11.334 7.516h7.091z" style="fill:#f58025;fill-opacity:1;fill-rule:nonzero;stroke:none;stroke-width:.268183" transform="translate(517.24 50.523)"/></g></g></g><g style="stroke-width:.268183"><g clip-path="url(#e)" style="stroke-width:.268183" transform="matrix(1.31744 0 0 -1.31343 -192.12 362.473)"><g style="stroke-width:.268183"><path d="M0 0c-11.871 0-20.754-2.936-22.304-3.437v-79.744h2.187c6.347 0 11.645 4.224 11.645 12.658v14.989c.388-.095 4.555-1.25 9.422-1.25 14.869 0 27.783 9.252 27.783 28.826C28.733-11.495 18.136 0 0 0m-1.787-45.476c-3.411 0-5.879.618-6.71.819l.025 32.594c.75.162 3.137.842 6.685.842 8.334 0 15.638-5.41 15.638-17.119 0-11.15-6.548-17.136-15.638-17.136" style="fill:#f58025;fill-opacity:1;fill-rule:nonzero;stroke:none;stroke-width:.268183" transform="translate(411.481 100.291)"/></g></g></g><g style="stroke-width:.268183"><g clip-path="url(#f)" style="stroke-width:.268183" transform="matrix(1.31744 0 0 -1.31343 -192.12 362.473)"><g style="stroke-width:.268183"><path d="M0 0v-36.323h13.651V1.425c.744.686 5.585 5.31 10.977 5.31 7.01 0 10.658-5.073 10.658-11.695v-31.363h13.627v34.774c0 16.512-12.715 20.173-19.811 20.173-8.522 0-14.594-5.391-16.394-7.165-.574 2.211-3.187 5.96-9.134 5.96-2.105 0-4.861-.625-5.111-.693C-1.124 14.669 0 9.81 0 0" style="fill:#f58025;fill-opacity:1;fill-rule:nonzero;stroke:none;stroke-width:.268183" transform="translate(543.954 81.448)"/></g></g></g></g></svg>