<svg xmlns="http://www.w3.org/2000/svg" width="585.42059pt" height="75.000694pt" viewBox="0 0 585.42057 75.000694"><defs><clipPath id="a"><path d="m532.527 606.766.214 7.016 5.841-3.238v-7.131z"/></clipPath><clipPath id="b"><path d="m532.527 606.766.214 7.016 5.841-3.238v-7.131z"/></clipPath></defs><g clip-path="url(#a)" transform="translate(-131.816 -697.96)"><path fill="#fff" d="m530.6 614.88 1.048-.48v-7.934l-1.048.457Z"/></g><g clip-path="url(#b)" transform="translate(-131.816 -697.96)"><path fill="#fff" d="m538.8 610.673 1.049-.48v-7.935l-1.048.457Z"/></g><path d="M262.931 13.451v7.147h-9.098v4.471h9.098v10.455c-1.441-.82-3.081-1.325-4.858-1.325-5.464 0-9.893 4.43-9.893 9.886a9.891 9.891 0 0 0 9.893 9.892 9.891 9.891 0 0 0 9.892-9.892 9.798 9.798 0 0 0-.863-4.002h.294V13.45Zm-32.81.3v4.477h9.993c-.278 2.137-.488 2.883-.488 2.883-1.289 4.76-3.645 6.472-3.645 6.472-1.9 2.28-5.234 2.276-5.234 2.276v3.69h2.489c3.641-.859 5.302-2.502 5.302-2.502 3.108-3.33 3.727-6.353 3.727-6.353.55 3.261 3.446 6.053 3.446 6.053 2.578 2.856 6.184 2.839 6.184 2.839l2.22.081v-3.808l-2.545-.282c-2.656-.567-4.559-3.551-4.559-3.551a18.336 18.336 0 0 1-2.614-7.798h9.73v-4.477zm27.952 24.406a5.927 5.927 0 0 1 5.934 5.927 5.935 5.935 0 0 1-5.934 5.94 5.938 5.938 0 0 1-5.934-5.94 5.93 5.93 0 0 1 5.934-5.927z" style="fill:#000;fill-opacity:1;stroke-width:4.26871"/><path d="M277.194 15.276v17.625c0 3.683 3.03 6.715 6.71 6.715h9.237v6.851h-17.906v4.475h39.724v-4.475h-17.343v-6.851h9.232c3.683 0 6.71-3.035 6.71-6.715V15.276h-4.472v10.211h-27.418v-10.21Zm4.474 14.684h27.418V32.9a2.231 2.231 0 0 1-2.238 2.242h-22.943a2.235 2.235 0 0 1-2.237-2.242z" style="color:#000;font-style:normal;font-variant:normal;font-weight:400;font-stretch:normal;font-size:medium;font-family:sans-serif;font-variant-ligatures:normal;font-variant-position:normal;font-variant-caps:normal;font-variant-numeric:normal;font-variant-alternates:normal;font-variant-east-asian:normal;font-feature-settings:normal;text-indent:0;text-decoration:none;text-decoration-line:none;text-decoration-style:solid;text-decoration-color:#000;letter-spacing:normal;word-spacing:normal;text-transform:none;writing-mode:lr-tb;direction:ltr;text-orientation:mixed;dominant-baseline:auto;baseline-shift:baseline;text-anchor:start;clip-rule:nonzero;display:inline;overflow:visible;visibility:visible;opacity:1;mix-blend-mode:normal;color-interpolation:sRGB;vector-effect:none;fill:#000;fill-opacity:1;fill-rule:nonzero;stroke:none;stroke-width:4.47362;stroke-linecap:butt;stroke-linejoin:miter;stroke-miterlimit:4;stroke-dasharray:none;stroke-dashoffset:0;stroke-opacity:1;color-rendering:auto;image-rendering:auto;shape-rendering:auto;text-rendering:auto;enable-background:accumulate;stop-color:#000;stop-opacity:1"/><path d="M108.338.04c-2.966-.11-6.181.01-9.603.35-13.689 1.356-30.678 6.24-47.848 14.326-17.168 8.088-31.27 17.842-40.258 27.177-4.493 4.668-7.716 9.23-9.38 13.5-1.665 4.27-1.743 8.346.238 11.682 1.98 3.335 5.709 5.495 10.552 6.66 4.844 1.165 10.863 1.364 17.707.686 13.689-1.357 30.678-6.242 47.848-14.33 17.17-8.088 31.273-17.844 40.26-27.178 4.493-4.667 7.715-9.226 9.379-13.496 1.664-4.27 1.744-8.346-.237-11.682-1.98-3.335-5.71-5.495-10.554-6.66C114.02.492 111.304.15 108.338.04zm-.078 2.162c2.85.106 5.428.431 7.678.973 4.499 1.082 7.622 3.003 9.201 5.662 1.58 2.66 1.59 5.924.082 9.795-1.508 3.87-4.562 8.252-8.924 12.783-8.723 9.06-22.647 18.724-39.623 26.72C59.7 66.132 42.89 70.946 29.534 72.27c-6.678.662-12.49.448-16.989-.635-4.498-1.082-7.621-3.004-9.2-5.662v-.002c-1.58-2.659-1.591-5.924-.083-9.795 1.509-3.87 4.562-8.254 8.924-12.785C20.91 34.33 34.833 24.665 51.807 16.67 68.783 8.674 85.592 3.86 98.947 2.538c3.34-.331 6.463-.443 9.313-.336Z" style="color:#000;font-style:normal;font-variant:normal;font-weight:400;font-stretch:normal;font-size:medium;font-family:sans-serif;font-variant-ligatures:normal;font-variant-position:normal;font-variant-caps:normal;font-variant-numeric:normal;font-variant-alternates:normal;font-variant-east-asian:normal;font-feature-settings:normal;text-indent:0;text-decoration:none;text-decoration-line:none;text-decoration-style:solid;text-decoration-color:#000;letter-spacing:normal;word-spacing:normal;text-transform:none;writing-mode:lr-tb;direction:ltr;text-orientation:mixed;dominant-baseline:auto;baseline-shift:baseline;text-anchor:start;clip-rule:nonzero;display:inline;overflow:visible;visibility:visible;opacity:1;mix-blend-mode:normal;color-interpolation:sRGB;vector-effect:none;fill:#898a8e;fill-opacity:1;fill-rule:nonzero;stroke:none;stroke-width:2.15997;stroke-linecap:butt;stroke-linejoin:miter;stroke-miterlimit:4;stroke-dasharray:none;stroke-dashoffset:0;stroke-opacity:1;color-rendering:auto;image-rendering:auto;shape-rendering:auto;text-rendering:auto;enable-background:accumulate;stop-color:#000;stop-opacity:1"/><path fill="#00489b" d="M11.993 21.549h31.644v9.856h-10.42v21.032H21.845V31.973h-9.852zM47.807 21.549h31.644v9.856h-10.42v21.032H57.66V31.973h-9.852zM116.593 52.248h-11.747l-9.852-19.704L84.569 52.44H72.442l15.726-30.888h12.507z" style="fill:#1f4fa2;fill-opacity:1;stroke-width:4.26872"/><path fill="#00489b" d="M90.168 49.785a4.82 4.82 0 0 1 4.824-4.82 4.82 4.82 0 1 1 0 9.644 4.824 4.824 0 0 1-4.824-4.824" style="fill:#1f4fa2;fill-opacity:1;stroke-width:4.26872"/><path d="M151.753 9.956V13.4h-8.786v3.82h3.414c-1.558 1.85-2.532 4.213-2.532 6.823 0 5.873 4.763 10.636 10.636 10.636 5.878 0 10.637-4.763 10.637-10.636 0-2.61-.975-4.972-2.533-6.822h4.252v-4.009h-10.886V9.956Zm2.732 7.416a6.679 6.679 0 0 1 6.672 6.672 6.673 6.673 0 0 1-13.344 0 6.679 6.679 0 0 1 6.672-6.672z" style="fill:#000;fill-opacity:1;stroke-width:4.26871"/><path d="M143.159 34.605h3.44v10.407h25.207V15.114s-.286-3.15 4.013-2.766h8.115v3.82h-7.641v32.763H146.5s-3.534.286-3.342-3.919zM369.83 36.423h4.192v9.836h27.307v-33.34l4.49.014v37.24h-32.647s-3.534.286-3.342-3.914zM220.698 12.55h-33.326v3.915h32.182v7.257H187.18v3.82h15.854v7.065h-15.948v3.914h32.084v12.307h4.2V38.235s.478-3.338-2.864-3.53h-13.37v-7.163h16.52V15.411s0-2.668-2.958-2.86" style="fill:#000;fill-opacity:1;stroke-width:4.26872"/><path d="M321.678 12.92v12.412c-.478 3.624 2.483 3.527 2.483 3.527h13.944v3.063h-18.046v3.34h11.011c-1.185 1.45-2.188 3.921-2.188 6.046 0 6.045 4.902 10.943 10.943 10.943 6.044 0 10.936-4.898 10.936-10.943 0-2.35-1.023-4.325-2.37-6.046h11.58v-3.44h-17.689v-3.051h16.452v-3.44H325.88v-2.694h32.541v-3.414h-32.44v-2.97h32.94V12.92Zm18.147 22.373a6.345 6.345 0 0 1 6.346 6.34c0 3.51-2.842 6.597-6.346 6.597-3.505 0-6.347-3.088-6.347-6.597 0-3.5 2.842-6.34 6.347-6.34zM513.87 12.957v3.433h-10.292v3.82h4.69c-1.313 1.623-2.132 3.66-2.132 5.91 0 5.208 4.23 9.436 9.442 9.436s9.43-4.228 9.43-9.436c0-2.25-.815-4.287-2.127-5.91h4.565v-3.807h-9.373v-3.446zm1.583 7.254h.25a5.905 5.905 0 0 1 5.784 5.909 5.912 5.912 0 1 1-11.824 0 5.904 5.904 0 0 1 5.79-5.91zM557.273 13.182v3.433H546.98v3.82h4.96c-1.586 1.823-2.583 4.174-2.583 6.779 0 5.12 3.706 9.346 8.572 10.205v4.977h-11.655v3.252h27.22v-3.252h-11.75V37.4c4.775-.932 8.379-5.13 8.379-10.186 0-2.604-.992-4.956-2.576-6.778h4.896v-3.833h-10.968v-3.42zm2.47 7.529a6.5 6.5 0 0 1 6.503 6.503c0 3.599-2.909 6.516-6.503 6.516a6.513 6.513 0 0 1-6.51-6.516 6.505 6.505 0 0 1 6.51-6.503z" style="fill:#000;fill-opacity:1;stroke-width:4.26871"/><path d="M378.663 12.92h4.87s-.704 5.225 3.403 10.57c0 0 2.399 2.987 5.741 3.56l3.202.29v3.816l-2.796-.081s-4.538.017-7.782-2.848c0 0-3.641-2.808-4.337-6.078 0 0-.781 3.035-4.696 6.377 0 0-2.091 1.644-6.676 2.506h-3.125V27.34s4.2 0 6.591-2.293c0 0 2.954-1.72 4.58-6.492 0 0 .432.093 1.025-5.635M474.492 12.966h3.842s2.151 4.585 6.305 6.16c0 0 3.056 1.05 7.163 1.003l3.444-.11v3.816l-2.91.034s-4.982.363-9.179-1.02c0 0-4.012-1.29-6.83-4.867 0 0-2.817 3.722-7.828 5.012 0 0-4.009 1.05-7.808.858h-3.125v-3.693s5.725.542 10.31-1.605c0 0 4.294-1.336 6.616-5.588M412.302 13.3h22.722s2.677.286 1.913 4.106c0 0-1 4.35-5.2 8.504 0 0-3.965 3.863-10.556 4.768 0 0-2.1.286-4.393.239h-5.058V26.96h6.685s4.34.333 7.824-2.246c0 0 3.778-2.437 4.965-4.823 0 0 1.626-2.916-1.853-2.818h-17.05zM496.332 30.967v-3.53h-39.917v3.53h18.454v2.817h-16.704v3.488h32.562v3.338h-32.805v6.877s0 2.72 3.082 2.864h34.803v-3.436h-33.825v-3.01h32.822v-7.734s.217-2.506-2.506-2.438h-13.604v-2.766zM530.33 19.925h4.584V15.48h4.008v17.485h-4.149V30.95h-4.589v-3.436h4.824v-4.06h-4.679zM579.036 50.628h4.678V13.614h-4.678zM444.102 50.624h4.678v-37.8h-4.678zM534.91 47.333h-25.873v-5.277h25.873zm0-12.08v3.44h-25.924v-3.44h-3.872v13.125c.286 2.77 3.15 2.344 3.15 2.344h30.659v-15.47ZM154.65 54.506v2.783h-4.742v12.964h-3.317V57.29h-4.742v-2.783zM158.44 61.488c-.436.422-.705 1.003-.816 1.728h5.276c-.055-.772-.329-1.366-.815-1.767-.487-.397-1.093-.606-1.819-.606-.785 0-1.396.218-1.827.645m4.568-2.634c.807.367 1.472.93 2.002 1.716.47.687.777 1.481.918 2.39.08.538.115 1.302.102 2.301h-8.444c.043 1.191.449 2.02 1.213 2.506.465.294 1.024.444 1.677.444.696 0 1.255-.188 1.69-.56l.628-.836h3.09c-.08.692-.456 1.4-1.122 2.109-1.037 1.131-2.488 1.699-4.358 1.699-1.541 0-2.899-.478-4.077-1.43s-1.771-2.502-1.771-4.649c0-2.01.533-3.552 1.592-4.623 1.063-1.076 2.442-1.61 4.14-1.61 1.004 0 1.913.176 2.72.543M166.882 70.251h3.027V54.547h-3.027zM175.133 61.488c-.431.422-.704 1.003-.815 1.728h5.276c-.056-.772-.329-1.366-.816-1.767-.486-.397-1.092-.606-1.818-.606-.786 0-1.396.218-1.827.645m4.567-2.634c.807.367 1.473.93 2.002 1.716.47.687.777 1.481.918 2.39.081.538.115 1.302.103 2.301h-8.444c.043 1.191.448 2.02 1.212 2.506.47.294 1.025.444 1.678.444.696 0 1.255-.188 1.69-.56l.628-.836h3.09c-.08.692-.456 1.4-1.122 2.109-1.037 1.131-2.489 1.699-4.358 1.699-1.542 0-2.899-.478-4.077-1.43s-1.772-2.502-1.772-4.649c0-2.01.534-3.552 1.593-4.623 1.063-1.076 2.441-1.61 4.14-1.61 1.003 0 1.913.176 2.72.543M190.532 62.727a2.696 2.696 0 0 0-.448-1.174c-.35-.47-.897-.704-1.631-.704-1.05 0-1.767.503-2.156 1.524-.205.55-.307 1.28-.307 2.19 0 .866.102 1.562.307 2.087.367.96 1.067 1.434 2.092 1.434.726 0 1.238-.188 1.55-.568.303-.38.486-.87.554-1.477h3.147c-.073.918-.41 1.785-1.012 2.6-.965 1.323-2.39 1.98-4.277 1.98-1.891 0-3.283-.55-4.175-1.651-.888-1.102-1.336-2.549-1.336-4.337 0-2.02.495-3.573 1.48-4.67.983-1.102 2.344-1.652 4.073-1.652 1.477 0 2.681.328 3.62.977.94.65 1.494 1.797 1.67 3.44zM202.261 67.137c.483-.632.722-1.533.722-2.694 0-1.174-.24-2.066-.722-2.693-.486-.632-1.173-.948-2.074-.948-.9 0-1.592.316-2.079.948-.482.627-.73 1.52-.73 2.693 0 1.161.248 2.062.73 2.694.487.636 1.178.952 2.079.952.9 0 1.588-.316 2.074-.952m2.4 1.673c-.987 1.208-2.476 1.81-4.478 1.81s-3.492-.602-4.478-1.81c-.982-1.208-1.477-2.663-1.477-4.362 0-1.674.495-3.117 1.477-4.342.986-1.225 2.476-1.835 4.478-1.835s3.491.61 4.477 1.835c.982 1.225 1.473 2.668 1.473 4.342 0 1.699-.49 3.154-1.473 4.362M222.091 58.64c.504.196.956.538 1.37 1.016.329.414.555.91.666 1.507.077.388.111.965.111 1.72l-.021 7.368h-3.13v-7.453c0-.444-.072-.811-.217-1.097-.277-.538-.785-.816-1.52-.816-.858 0-1.447.35-1.775 1.05-.163.376-.248.824-.248 1.35v6.966h-3.03v-6.933c0-.691-.069-1.195-.214-1.506-.26-.564-.768-.846-1.524-.846-.88 0-1.468.282-1.776.846-.166.324-.247.798-.247 1.43v7.009h-3.027V58.597h2.903v1.682c.38-.589.734-1.012 1.071-1.26.59-.443 1.358-.67 2.297-.67.892 0 1.61.197 2.164.573.44.358.773.81.999 1.37.405-.666.905-1.161 1.503-1.473.631-.311 1.336-.47 2.113-.47.52 0 1.028.095 1.532.291M240.757 58.64c.503.196.956.538 1.37 1.016.329.414.555.91.666 1.507.077.388.111.965.111 1.72l-.021 7.368h-3.13v-7.453c0-.444-.072-.811-.217-1.097-.277-.538-.785-.816-1.52-.816-.858 0-1.447.35-1.775 1.05-.163.376-.248.824-.248 1.35v6.966h-3.03v-6.933c0-.691-.07-1.195-.214-1.506-.26-.564-.769-.846-1.524-.846-.88 0-1.469.282-1.776.846-.166.324-.248.798-.248 1.43v7.009h-3.026V58.597h2.903v1.682c.38-.589.734-1.012 1.071-1.26.59-.443 1.358-.67 2.297-.67.892 0 1.609.197 2.164.573.44.358.773.81.999 1.37.405-.666.905-1.161 1.502-1.473.632-.311 1.336-.47 2.113-.47.521 0 1.03.095 1.533.291M247.948 58.597v6.988c0 .661.077 1.16.235 1.494.278.589.82.883 1.63.883 1.034 0 1.747-.418 2.135-1.255.196-.456.295-1.054.295-1.801v-6.31h3.026V70.25h-2.903v-1.677l-.213.324-.41.478c-.478.431-.939.726-1.383.884-.448.158-.969.239-1.566.239-1.73 0-2.895-.627-3.492-1.882-.333-.68-.504-1.687-.504-3.014v-7.005zM266.795 59.253c.76.636 1.14 1.678 1.14 3.137v7.863h-3.15v-7.098c0-.61-.082-1.08-.24-1.41-.294-.597-.853-.9-1.677-.9-1.016 0-1.708.44-2.087 1.315-.193.461-.29 1.059-.29 1.776v6.317h-3.027V58.596h2.945v1.711c.389-.597.756-1.024 1.101-1.289.62-.47 1.405-.708 2.361-.708 1.191 0 2.164.315 2.924.943M270.049 57.206h3.026v-2.779h-3.026zm0 13.045h3.026V58.602h-3.026zM282.306 62.727a2.696 2.696 0 0 0-.448-1.174c-.35-.47-.897-.704-1.63-.704-1.051 0-1.768.503-2.157 1.524-.205.55-.307 1.28-.307 2.19 0 .866.102 1.562.307 2.087.367.96 1.068 1.434 2.092 1.434.726 0 1.238-.188 1.55-.568.303-.38.486-.87.555-1.477h3.146c-.073.918-.41 1.785-1.012 2.6-.96 1.323-2.39 1.98-4.277 1.98-1.891 0-3.283-.55-4.175-1.651-.888-1.102-1.336-2.549-1.336-4.337 0-2.02.495-3.573 1.481-4.67.982-1.102 2.344-1.652 4.072-1.652 1.477 0 2.681.328 3.62.977.94.65 1.494 1.797 1.67 3.44zM293.19 64.556l-.588.299-.816.205-.695.136c-.654.111-1.119.252-1.41.419-.49.281-.73.713-.73 1.306 0 .53.146.9.44 1.14.295.23.654.35 1.076.35.666 0 1.285-.192 1.844-.59.568-.38.863-1.096.88-2.125zm-1.86-1.426c.563-.077.973-.158 1.216-.264.44-.188.658-.479.658-.88 0-.474-.167-.807-.504-.986-.337-.183-.833-.277-1.481-.277-.73 0-1.247.175-1.55.529-.213.269-.363.615-.431 1.063h-2.945c.064-1.003.35-1.836.853-2.484.811-1.016 2.199-1.52 4.162-1.52 1.28 0 2.416.247 3.411.743.995.49 1.49 1.451 1.49 2.868v5.379c0 .371.009.824.021 1.357.017.389.077.658.175.798l.44.342v.452h-3.283l-.192-.657-.085-.704a6.38 6.38 0 0 1-1.46 1.165c-.662.376-1.405.568-2.237.568-1.059 0-1.938-.303-2.625-.91-.696-.606-1.042-1.464-1.042-2.573 0-1.443.56-2.485 1.67-3.13.61-.35 1.51-.601 2.693-.75zM296.902 60.845V58.72h1.64v-3.274h3.022v3.274h1.882v2.126h-1.882v6.203c0 .482.06.785.18.905.123.115.494.17 1.109.17l.29-.008.303-.026v2.288l-1.442.039c-1.443.05-2.425-.2-2.954-.752-.342-.345-.508-.887-.508-1.622v-7.197zM304.647 57.206h3.018v-2.779h-3.018zm0 13.045h3.018V58.602h-3.018zM317.245 67.137c.483-.632.722-1.533.722-2.694 0-1.174-.24-2.066-.722-2.693-.486-.632-1.178-.948-2.078-.948-.897 0-1.588.316-2.075.948-.487.627-.73 1.52-.73 2.693 0 1.161.243 2.062.73 2.694.487.636 1.178.952 2.075.952.9 0 1.592-.316 2.078-.952m2.395 1.673c-.986 1.208-2.476 1.81-4.478 1.81s-3.487-.602-4.473-1.81c-.986-1.208-1.477-2.663-1.477-4.362 0-1.674.49-3.117 1.477-4.342.986-1.225 2.471-1.835 4.473-1.835s3.492.61 4.478 1.835c.986 1.225 1.473 2.668 1.473 4.342 0 1.699-.487 3.154-1.473 4.362M331.864 59.253c.76.636 1.14 1.678 1.14 3.137v7.863h-3.15v-7.098c0-.61-.082-1.08-.24-1.41-.294-.597-.858-.9-1.677-.9-1.016 0-1.708.44-2.092 1.315-.188.461-.286 1.059-.286 1.776v6.317h-3.026V58.596h2.945v1.711c.389-.597.756-1.024 1.101-1.289.62-.47 1.405-.708 2.361-.708 1.187 0 2.164.315 2.924.943M337.406 66.53c.064.539.21.927.431 1.145.393.414 1.114.614 2.169.614.615 0 1.11-.09 1.473-.264l.55-.798-.435-.782c-.29-.175-1.37-.478-3.244-.909-1.35-.324-2.288-.73-2.818-1.22-.525-.483-.785-1.179-.785-2.088 0-1.072.422-1.994 1.276-2.762.845-.773 2.045-1.157 3.586-1.157 1.46 0 2.65.29 3.568.871.927.58 1.452 1.588 1.593 3.014h-3.027c-.047-.393-.158-.705-.337-.93-.35-.415-.926-.62-1.759-.62-.67 0-1.152.103-1.443.307l-.43.726.456.76c.312.162 1.383.44 3.223.837 1.225.281 2.134.708 2.728 1.28.58.58.87 1.307.87 2.173 0 1.148-.426 2.083-1.293 2.805-.858.73-2.19 1.088-3.991 1.088-1.84 0-3.202-.38-4.077-1.152-.87-.769-1.31-1.746-1.31-2.937zM363.549 54.506v2.783h-4.743v12.964h-3.317V57.29h-4.746v-2.783zM367.335 61.488c-.431.422-.704 1.003-.815 1.728h5.276c-.051-.772-.325-1.366-.811-1.767-.491-.397-1.097-.606-1.823-.606-.781 0-1.392.218-1.827.645m4.568-2.634c.81.367 1.472.93 2.002 1.716a5.73 5.73 0 0 1 .922 2.39c.076.538.11 1.302.098 2.301h-8.448c.047 1.191.453 2.02 1.217 2.506.47.294 1.024.444 1.681.444.692 0 1.251-.188 1.687-.56l.623-.836h3.095c-.081.692-.457 1.4-1.119 2.109-1.041 1.131-2.488 1.699-4.362 1.699-1.541 0-2.903-.478-4.077-1.43-1.182-.952-1.771-2.502-1.771-4.649 0-2.01.537-3.552 1.596-4.623 1.063-1.076 2.437-1.61 4.136-1.61 1.004 0 1.913.176 2.72.543M382.736 62.727a2.755 2.755 0 0 0-.453-1.174c-.35-.47-.896-.704-1.626-.704-1.055 0-1.772.503-2.156 1.524-.205.55-.307 1.28-.307 2.19 0 .866.102 1.562.307 2.087.367.96 1.067 1.434 2.092 1.434.721 0 1.238-.188 1.54-.568.308-.38.496-.87.56-1.477h3.15c-.076.918-.414 1.785-1.016 2.6-.96 1.323-2.386 1.98-4.277 1.98-1.887 0-3.278-.55-4.166-1.651-.897-1.102-1.345-2.549-1.345-4.337 0-2.02.5-3.573 1.486-4.67.982-1.102 2.339-1.652 4.072-1.652 1.473 0 2.677.328 3.62.977.935.65 1.494 1.797 1.665 3.44zM395.506 58.683c.589.248 1.067.632 1.442 1.144.316.436.513.884.59 1.34.064.462.106 1.209.106 2.25v6.839h-3.15v-7.082c0-.623-.111-1.131-.316-1.516-.277-.542-.794-.81-1.562-.81-.794 0-1.396.264-1.802.806-.414.534-.619 1.302-.619 2.297v6.305h-3.026v-15.71h3.026v5.584c.444-.679.948-1.152 1.529-1.417a4.275 4.275 0 0 1 1.827-.406c.712 0 1.366.128 1.955.376M409.086 59.253c.756.636 1.14 1.678 1.14 3.137v7.863h-3.155v-7.098c0-.61-.077-1.08-.235-1.41-.298-.597-.858-.9-1.677-.9-1.016 0-1.708.44-2.092 1.315-.188.461-.29 1.059-.29 1.776v6.317h-3.022V58.596h2.945v1.711c.384-.597.756-1.024 1.101-1.289.62-.47 1.405-.708 2.361-.708 1.187 0 2.164.315 2.924.943M419.63 67.137c.483-.632.722-1.533.722-2.694 0-1.174-.239-2.066-.721-2.693-.483-.632-1.174-.948-2.08-.948-.896 0-1.587.316-2.074.948-.482.627-.725 1.52-.725 2.693 0 1.161.243 2.062.725 2.694.487.636 1.178.952 2.075.952.905 0 1.596-.316 2.079-.952m2.399 1.673c-.986 1.208-2.476 1.81-4.478 1.81-2.006 0-3.496-.602-4.478-1.81-.982-1.208-1.473-2.663-1.473-4.362 0-1.674.491-3.117 1.473-4.342.982-1.225 2.472-1.835 4.478-1.835 2.002 0 3.492.61 4.478 1.835.982 1.225 1.472 2.668 1.472 4.342 0 1.699-.49 3.154-1.472 4.362M424.918 70.251h3.022V54.547h-3.022zM437.52 67.137c.487-.632.722-1.533.722-2.694 0-1.174-.235-2.066-.722-2.693-.486-.632-1.173-.948-2.078-.948-.897 0-1.588.316-2.075.948-.482.627-.726 1.52-.726 2.693 0 1.161.244 2.062.726 2.694.487.636 1.178.952 2.075.952.905 0 1.592-.316 2.079-.952m2.399 1.673c-.987 1.208-2.476 1.81-4.478 1.81-1.998 0-3.496-.602-4.478-1.81-.982-1.208-1.482-2.663-1.482-4.362 0-1.674.5-3.117 1.482-4.342.982-1.225 2.48-1.835 4.478-1.835 2.002 0 3.491.61 4.478 1.835.981 1.225 1.472 2.668 1.472 4.342 0 1.699-.49 3.154-1.472 4.362M449.524 66.946c.487-.534.734-1.4.734-2.579 0-1.105-.234-1.95-.695-2.527-.461-.585-1.076-.875-1.849-.875-1.05 0-1.771.508-2.177 1.511-.213.542-.316 1.204-.316 1.99 0 .678.111 1.284.337 1.814.406.982 1.136 1.477 2.19 1.477.7 0 1.298-.27 1.776-.811m-1.012-8.371c.735.307 1.328.87 1.78 1.69v-1.669h2.993v11.043c0 1.503-.26 2.63-.76 3.394-.87 1.306-2.527 1.968-4.982 1.968-1.485 0-2.693-.29-3.632-.88-.935-.58-1.456-1.442-1.554-2.6h3.321l.401.765c.329.286.871.422 1.64.422 1.084 0 1.81-.371 2.177-1.1.239-.475.362-1.264.362-2.37v-.751c-.294.495-.61.87-.939 1.118-.602.457-1.383.687-2.352.687-1.485 0-2.672-.52-3.564-1.575-.888-1.05-1.332-2.476-1.332-4.269 0-1.737.431-3.193 1.29-4.37.853-1.179 2.06-1.768 3.632-1.768.58 0 1.084.09 1.52.265M455.817 72.543l.389.022.883-.035.7-.251c.184-.12.35-.38.508-.773.154-.393.218-.632.192-.722l-4.281-12.187h3.38l2.54 8.597 2.412-8.597h3.227l-3.987 11.466c-.772 2.22-1.387 3.599-1.835 4.132-.457.538-1.362.803-2.724.803l-.657-.005-.747-.038zM476.587 64.323h4.034l-1.99-6.22zm.256-9.818h3.688l5.558 15.747h-3.564l-1.042-3.231H475.7l-1.071 3.231h-3.398zM489.391 66.53c.069.539.21.927.436 1.145.393.414 1.114.614 2.168.614.615 0 1.106-.09 1.473-.264l.55-.798-.435-.782c-.29-.175-1.37-.478-3.244-.909-1.349-.324-2.288-.73-2.817-1.22-.525-.483-.79-1.179-.79-2.088 0-1.072.427-1.994 1.276-2.762.846-.773 2.045-1.157 3.59-1.157 1.456 0 2.651.29 3.569.871.922.58 1.451 1.588 1.588 3.014h-3.022c-.047-.393-.158-.705-.342-.93-.346-.415-.922-.62-1.754-.62-.675 0-1.157.103-1.443.307l-.427.726.457.76c.307.162 1.379.44 3.218.837 1.226.281 2.135.708 2.728 1.28.576.58.871 1.307.871 2.173 0 1.148-.427 2.083-1.293 2.805-.858.73-2.19 1.088-3.992 1.088-1.84 0-3.201-.38-4.076-1.152-.875-.769-1.315-1.746-1.315-2.937zM500.781 66.53c.069.539.214.927.431 1.145.393.414 1.115.614 2.169.614.615 0 1.11-.09 1.477-.264l.546-.798-.43-.782c-.291-.175-1.371-.478-3.25-.909-1.348-.324-2.287-.73-2.812-1.22-.521-.483-.79-1.179-.79-2.088 0-1.072.427-1.994 1.276-2.762.845-.773 2.045-1.157 3.59-1.157 1.456 0 2.651.29 3.569.871.918.58 1.447 1.588 1.583 3.014h-3.022c-.047-.393-.158-.705-.337-.93-.346-.415-.926-.62-1.754-.62-.675 0-1.157.103-1.448.307l-.426.726.456.76c.312.162 1.38.44 3.223.837 1.225.281 2.135.708 2.724 1.28.58.58.875 1.307.875 2.173 0 1.148-.431 2.083-1.294 2.805-.862.73-2.194 1.088-3.99 1.088-1.845 0-3.202-.38-4.082-1.152-.87-.769-1.31-1.746-1.31-2.937zM517.177 67.137c.482-.632.72-1.533.72-2.694 0-1.174-.238-2.066-.72-2.693-.487-.632-1.179-.948-2.08-.948-.896 0-1.592.316-2.074.948-.487.627-.73 1.52-.73 2.693 0 1.161.243 2.062.73 2.694.482.636 1.178.952 2.075.952.9 0 1.592-.316 2.079-.952m2.394 1.673c-.986 1.208-2.476 1.81-4.478 1.81s-3.491-.602-4.477-1.81c-.982-1.208-1.473-2.663-1.473-4.362 0-1.674.49-3.117 1.473-4.342.986-1.225 2.475-1.835 4.477-1.835 2.002 0 3.492.61 4.478 1.835.982 1.225 1.473 2.668 1.473 4.342 0 1.699-.49 3.154-1.473 4.362M529.415 62.727a2.744 2.744 0 0 0-.444-1.174c-.354-.47-.896-.704-1.63-.704-1.06 0-1.772.503-2.156 1.524-.21.55-.308 1.28-.308 2.19 0 .866.099 1.562.303 2.087.367.96 1.072 1.434 2.092 1.434.726 0 1.242-.188 1.55-.568.298-.38.49-.87.555-1.477h3.15c-.077.918-.414 1.785-1.016 2.6-.96 1.323-2.39 1.98-4.282 1.98-1.886 0-3.278-.55-4.166-1.651-.892-1.102-1.34-2.549-1.34-4.337 0-2.02.495-3.573 1.485-4.67.978-1.102 2.34-1.652 4.068-1.652 1.477 0 2.681.328 3.62.977.94.65 1.499 1.797 1.67 3.44zM533.843 57.206h3.018v-2.779h-3.018zm0 13.045h3.018V58.602h-3.018zM545.61 64.556l-.59.299-.82.205-.691.136c-.653.111-1.123.252-1.409.419-.49.281-.73.713-.73 1.306 0 .53.145.9.44 1.14.295.23.649.35 1.076.35.666 0 1.28-.192 1.844-.59.568-.38.854-1.096.88-2.125zm-1.866-1.426c.567-.077.977-.158 1.216-.264.44-.188.662-.479.662-.88 0-.474-.17-.807-.508-.986-.337-.183-.828-.277-1.477-.277-.734 0-1.242.175-1.55.529-.217.269-.367.615-.43 1.063h-2.95c.068-1.003.354-1.836.858-2.484.806-1.016 2.194-1.52 4.157-1.52 1.285 0 2.417.247 3.415.743.986.49 1.486 1.451 1.486 2.868v5.379c0 .371.009.824.021 1.357.022.389.077.658.18.798l.435.342v.452h-3.283l-.188-.657-.09-.704a6.38 6.38 0 0 1-1.46 1.165c-.66.376-1.403.568-2.236.568-1.059 0-1.938-.303-2.62-.91-.697-.606-1.047-1.464-1.047-2.573 0-1.443.564-2.485 1.674-3.13.606-.35 1.51-.601 2.693-.75zM549.32 60.845V58.72h1.638v-3.274h3.023v3.274h1.882v2.126h-1.882v6.203c0 .482.06.785.183.905.12.115.491.17 1.101.17l.295-.008.303-.026v2.288l-1.443.039c-1.443.05-2.424-.2-2.95-.752-.345-.345-.512-.887-.512-1.622v-7.197zM557.056 57.206h3.022v-2.779h-3.022zm0 13.045h3.022V58.602h-3.022zM569.654 67.137c.487-.632.726-1.533.726-2.694 0-1.174-.239-2.066-.726-2.693-.482-.632-1.17-.948-2.07-.948-.9 0-1.592.316-2.079.948-.482.627-.73 1.52-.73 2.693 0 1.161.248 2.062.73 2.694.487.636 1.178.952 2.08.952.9 0 1.587-.316 2.07-.952m2.398 1.673c-.986 1.208-2.471 1.81-4.473 1.81s-3.496-.602-4.478-1.81c-.986-1.208-1.473-2.663-1.473-4.362 0-1.674.487-3.117 1.473-4.342.982-1.225 2.476-1.835 4.478-1.835s3.487.61 4.473 1.835c.987 1.225 1.469 2.668 1.469 4.342 0 1.699-.482 3.154-1.469 4.362M584.28 59.253c.756.636 1.14 1.678 1.14 3.137v7.863h-3.15v-7.098c0-.61-.08-1.08-.239-1.41-.294-.597-.858-.9-1.677-.9-1.016 0-1.708.44-2.092 1.315-.188.461-.29 1.059-.29 1.776v6.317h-3.023V58.596h2.946v1.711c.384-.597.755-1.024 1.101-1.289.62-.47 1.4-.708 2.36-.708 1.187 0 2.165.315 2.925.943" style="fill:#000;fill-opacity:1;stroke-width:4.26872"/></svg>