<?xml version="1.0" encoding="UTF-8"?>
<svg version="1.1" xmlns="http://www.w3.org/2000/svg" width="192" height="192">
<path d="M0 0 C0 0.66 0 1.32 0 2 C0.66 2 1.32 2 2 2 C6.57142857 9.28571429 6.57142857 9.28571429 6 14 C5.46375 13.690625 4.9275 13.38125 4.375 13.0625 C1.02945557 11.56580907 -2.33875549 11 -6 11 C-6.36351562 12.69769531 -6.36351562 12.69769531 -6.734375 14.4296875 C-7.07203928 15.91165852 -7.41062927 17.39341883 -7.75 18.875 C-7.90726562 19.62136719 -8.06453125 20.36773438 -8.2265625 21.13671875 C-9.5208965 26.66252929 -9.5208965 26.66252929 -12.140625 28.5078125 C-12.75421875 28.67023437 -13.3678125 28.83265625 -14 29 C-12.515 29.495 -12.515 29.495 -11 30 C-10.93941406 30.9178125 -10.87882812 31.835625 -10.81640625 32.78125 C-10.73261719 34.0084375 -10.64882812 35.235625 -10.5625 36.5 C-10.47742188 37.79035156 -10.39234375 39.08070312 -10.3046875 40.41015625 C-10.08175087 43.03680709 -9.74489148 45.38373699 -9.1875 47.9375 C-8.42876436 53.11475495 -10.56130173 58.23494079 -12.08984375 63.12109375 C-14.19929837 72.11117288 -12.7515472 77.78046269 -8.5 85.875 C-7.65137111 87.53657969 -6.80739523 89.2005465 -5.96875 90.8671875 C-5.59169922 91.59019043 -5.21464844 92.31319336 -4.82617188 93.05810547 C-4 95 -4 95 -4 98 C-9.445 98.99 -9.445 98.99 -15 100 C-11.04 100.33 -7.08 100.66 -3 101 C-2.875 104.375 -2.875 104.375 -3 108 C-5.53414765 110.53414765 -7.55467854 110.85772342 -11 111.8125 C-17.10402326 113.63370038 -22.39737068 116.01719171 -28 119 C-35.94756808 123.06050904 -43.94535652 127.03127299 -52 130.875 C-53.155 131.42929688 -54.31 131.98359375 -55.5 132.5546875 C-64.41638127 136.2366753 -74.27380504 137.87582249 -83.625 134.8125 C-87.61214329 131.76968012 -88.72397444 129.16325057 -89.875 124.3125 C-90.39043457 119.22623052 -88.71546559 114.72964524 -87 110 C-86.01 110 -85.02 110 -84 110 C-83.0234375 111.79036458 -82.046875 113.58072917 -81.0703125 115.37109375 C-80.08589976 117.16618315 -80.08589976 117.16618315 -78 118 C-78.598125 117.319375 -79.19625 116.63875 -79.8125 115.9375 C-83.35080415 111.186063 -85.38092005 107.40164738 -84.59375 101.4453125 C-84.1706688 97.81676907 -83.90427383 94.25021042 -83.82421875 90.59765625 C-83.45561326 74.43084982 -81.82935393 64.74485855 -70 53 C-69.46375 52.42765625 -68.9275 51.8553125 -68.375 51.265625 C-67.30051966 50.12718749 -66.15831892 49.0530172 -65 48 C-64.34 48 -63.68 48 -63 48 C-62.731875 47.360625 -62.46375 46.72125 -62.1875 46.0625 C-61 44 -61 44 -58 43 C-56.65812182 43.6492959 -55.32520503 44.31731862 -54 45 C-52.68 45 -51.36 45 -50 45 C-51.32 44.34 -52.64 43.68 -54 43 C-54 42.34 -54 41.68 -54 41 C-54.99 40.67 -55.98 40.34 -57 40 C-55.73092275 30.73991988 -52.34637957 19.41967378 -44.94921875 13.3046875 C-38.71364344 8.71005306 -32.00823284 5.25665057 -25 2 C-24.29359375 1.66871094 -23.5871875 1.33742188 -22.859375 0.99609375 C-15.12891026 -2.48261538 -8.00210903 -3.12277425 0 0 Z M-30 103 C-25.99799622 104.60080151 -22.95443764 103.29279692 -19 102 C-19 101.67 -19 101.34 -19 101 C-23.21878192 100.80377759 -26.17010894 101.19769832 -30 103 Z " fill="#E2B93C" transform="translate(138,4)"/>
<path d="M0 0 C0.77601562 -0.00257812 1.55203125 -0.00515625 2.3515625 -0.0078125 C4.375 0.125 4.375 0.125 6.375 1.125 C5.92256472 4.63137339 4.81680905 7.31468747 3.25 10.4375 C1.04493338 15.22177811 1.26783876 18.01502507 2.375 23.125 C2.560625 24.115 2.74625 25.105 2.9375 26.125 C3.081875 26.785 3.22625 27.445 3.375 28.125 C4.365 28.455 5.355 28.785 6.375 29.125 C6.375 29.785 6.375 30.445 6.375 31.125 C7.303125 31.3415625 7.303125 31.3415625 8.25 31.5625 C10.375 32.125 10.375 32.125 12.375 33.125 C30.14737165 34.63701488 44.10646815 27.36428794 59.1640625 19.0390625 C65.63956351 15.4702363 72.08047477 12.25715181 79 9.625 C79.99483398 9.24190674 79.99483398 9.24190674 81.00976562 8.85107422 C84.57771031 7.54923184 87.57448894 6.8337731 91.375 7.125 C90.24969572 10.50091285 89.21446383 11.40946799 86.5625 13.6875 C85.53189453 14.58662109 85.53189453 14.58662109 84.48046875 15.50390625 C82.375 17.125 82.375 17.125 80.17578125 18.15234375 C78.01914355 19.05186467 78.01914355 19.05186467 77.375 22.125 C75.24360057 23.96362479 73.11585626 25.6805459 70.875 27.375 C69.58981986 28.36194806 68.30466359 29.3489272 67.01953125 30.3359375 C66.39256348 30.81385742 65.7655957 31.29177734 65.11962891 31.78417969 C62.28046962 33.96619239 59.50673736 36.23091968 56.73046875 38.4921875 C53.11168915 41.00072792 49.24136573 43.02552393 45.375 45.125 C44.63789795 45.53459961 43.9007959 45.94419922 43.14135742 46.36621094 C32.20697182 52.43723571 21.3746306 57.54901203 9.375 61.125 C8.24578125 61.46402344 7.1165625 61.80304688 5.953125 62.15234375 C-4.0879583 64.80955726 -16.33676706 66.66850615 -25.81640625 61.41796875 C-29.20492881 58.99550446 -31.27307252 57.1612835 -32.625 53.125 C-34.55926328 37.56454268 -30.30751504 23.77196378 -21.1875 11.1328125 C-15.69713751 4.18034261 -8.94626213 -0.02992061 0 0 Z " fill="#E1B73C" transform="translate(38.625,121.875)"/>
<path d="M0 0 C2.66857622 1.39058718 4.39129375 2.95736957 6.0390625 5.46484375 C7.96559645 15.09751351 5.91628173 23.02735235 0.5390625 31.15234375 C-0.43292991 32.53242458 -1.41132614 33.90803607 -2.3984375 35.27734375 C-3.0584375 36.26734375 -3.7184375 37.25734375 -4.3984375 38.27734375 C-5.0584375 38.27734375 -5.7184375 38.27734375 -6.3984375 38.27734375 C-6.7284375 39.26734375 -7.0584375 40.25734375 -7.3984375 41.27734375 C-9.84798961 43.56060773 -12.63996163 45.38634199 -15.3984375 47.27734375 C-16.12160156 47.7878125 -16.84476562 48.29828125 -17.58984375 48.82421875 C-32.80073129 58.81038519 -52.84839469 61.79289087 -70.578125 58.3828125 C-74.88178002 57.46006266 -79.14390159 56.40384026 -83.3984375 55.27734375 C-83.3984375 53.95734375 -83.3984375 52.63734375 -83.3984375 51.27734375 C-81.5334133 49.5924119 -79.75929247 48.20484456 -77.7109375 46.77734375 C-72.72827547 43.13762449 -68.08166197 39.31728569 -63.5859375 35.08984375 C-63.04437012 34.58211426 -62.50280273 34.07438477 -61.94482422 33.55126953 C-60.9044149 32.57399262 -59.86482658 31.59584074 -58.82617188 30.61669922 C-56.85423942 28.76683235 -54.85489399 26.95071055 -52.8359375 25.15234375 C-51.96775391 24.37503906 -51.96775391 24.37503906 -51.08203125 23.58203125 C-49.3984375 22.27734375 -49.3984375 22.27734375 -47.24609375 21.28515625 C-45.0466703 20.3577397 -45.0466703 20.3577397 -44.3984375 17.27734375 C-42.26914469 15.38788886 -40.15040593 13.63312822 -37.8984375 11.90234375 C-37.26494385 11.41064697 -36.6314502 10.9189502 -35.97875977 10.41235352 C-31.36352857 6.88623473 -26.69287755 3.7087864 -21.3984375 1.27734375 C-20.25181641 0.73400391 -20.25181641 0.73400391 -19.08203125 0.1796875 C-13.22471326 -1.7898037 -5.91636242 -1.78261734 0 0 Z " fill="#C79C35" transform="translate(180.3984375,108.72265625)"/>
</svg>
